<?xml version="1.0" encoding="UTF-8" standalone="no"?>
<!-- Created with Inkscape (http://www.inkscape.org/) -->

<svg
   xmlns:dc="http://purl.org/dc/elements/1.1/"
   xmlns:cc="http://creativecommons.org/ns#"
   xmlns:rdf="http://www.w3.org/1999/02/22-rdf-syntax-ns#"
   xmlns:svg="http://www.w3.org/2000/svg"
   xmlns="http://www.w3.org/2000/svg"
   xmlns:xlink="http://www.w3.org/1999/xlink"
   xmlns:sodipodi="http://sodipodi.sourceforge.net/DTD/sodipodi-0.dtd"
   xmlns:inkscape="http://www.inkscape.org/namespaces/inkscape"
   width="123.93974mm"
   height="19.68133mm"
   viewBox="0 0 439.15654 69.736987"
   id="svg2"
   version="1.1"
   inkscape:version="0.91 r"
   sodipodi:docname="title.svg">
  <defs
     id="defs4">
    <linearGradient
       inkscape:collect="always"
       id="linearGradient5654">
      <stop
         style="stop-color:#9a5528;stop-opacity:1;"
         offset="0"
         id="stop5656" />
      <stop
         style="stop-color:#9a5528;stop-opacity:0;"
         offset="1"
         id="stop5658" />
    </linearGradient>
    <radialGradient
       inkscape:collect="always"
       xlink:href="#linearGradient5654"
       id="radialGradient5660"
       cx="-47.808453"
       cy="-158.10399"
       fx="-47.808453"
       fy="-158.10399"
       r="118.63542"
       gradientTransform="matrix(1,0,0,0.14136447,0,-135.7537)"
       gradientUnits="userSpaceOnUse" />
  </defs>
  <sodipodi:namedview
     id="base"
     pagecolor="#ffffff"
     bordercolor="#666666"
     borderopacity="1.0"
     inkscape:pageopacity="0.0"
     inkscape:pageshadow="2"
     inkscape:zoom="1.5695312"
     inkscape:cx="363.50281"
     inkscape:cy="77.575747"
     inkscape:document-units="px"
     inkscape:current-layer="g3349"
     showgrid="false"
     inkscape:window-width="1920"
     inkscape:window-height="1028"
     inkscape:window-x="0"
     inkscape:window-y="0"
     inkscape:window-maximized="1"
     inkscape:snap-text-baseline="false"
     fit-margin-top="1"
     fit-margin-right="1"
     fit-margin-bottom="1"
     fit-margin-left="1" />
  <metadata
     id="metadata7">
    <rdf:RDF>
      <cc:Work
         rdf:about="">
        <dc:format>image/svg+xml</dc:format>
        <dc:type
           rdf:resource="http://purl.org/dc/dcmitype/StillImage" />
        <dc:title></dc:title>
      </cc:Work>
    </rdf:RDF>
  </metadata>
  <g
     inkscape:label="Calque 1"
     inkscape:groupmode="layer"
     id="layer1"
     transform="translate(25.18499,-97.627775)">
    <g
       id="g3367"
       transform="translate(315.47795,189.05444)">
      <path
         id="path3337"
         d="m 160.8,246.4 c -0.2,-0.7 -0.9,-1.2 -1.7,-1 -0.7,0.2 -1.1,0.8 -1,1.5 0,-0.6 0.4,-1.1 1,-1.2 0.7,-0.2 1.3,0.2 1.5,0.9 0.1,0.6 -0.1,1.1 -0.6,1.4 0.6,-0.3 1,-0.9 0.8,-1.6"
         inkscape:connector-curvature="0"
         style="fill:#ca92c1" />
      <path
         id="path3339"
         d="m 159.8,248.5 c -0.9,0.2 -1.8,-0.3 -2,-1.1 -0.2,-0.8 0.2,-1.6 0.9,-2 -0.6,0.3 -0.9,1 -0.7,1.7 0.2,0.8 1.1,1.3 1.8,1 0.7,-0.2 1.1,-0.8 1.1,-1.5 0.2,0.9 -0.3,1.7 -1.1,1.9"
         inkscape:connector-curvature="0"
         style="fill:#c64d9b" />
      <g
         id="g3341">
        <path
           id="path3343"
           d="m 159.8,247.2 0,0 c 0,0 0,0 0,0 z"
           inkscape:connector-curvature="0"
           style="fill:#0697cc" />
        <path
           id="path3345"
           d="m 159.7,246.9 c 0,0 0,0 0,0 0,0 0,0 0,0 z"
           inkscape:connector-curvature="0"
           style="fill:#0697cc" />
        <path
           id="path3347"
           d="m 159.8,247.2 c 0.3,-0.1 0.4,-0.4 0.4,-0.4 0,0 -0.2,0 -0.5,0 0,0 0,0 0,0 0,0 0,0 0,0 0,-0.1 0.1,-0.2 0.1,-0.2 0,0 -0.1,0 -0.1,0 0,0 0,0 0,0 0,0 0,0 0,0 0.1,-0.3 0,-0.6 0,-0.6 0,0 -0.1,0 -0.1,0.1 0,-0.2 -0.1,-0.3 -0.1,-0.3 0,0 -0.4,0.5 -0.4,1 0,0 0,-0.1 -0.1,-0.1 0,-0.1 -0.1,-0.1 -0.3,0 -0.1,0 -0.2,0.1 -0.3,0.1 0.2,0 0.6,0.2 0.7,0.4 0,0 0,0 0,0 0,0.2 -0.1,0.4 -0.3,0.4 0.2,0 0.4,-0.2 0.4,-0.4 0,0 0,0 0,-0.1 0,0 0,-0.1 0,-0.1 0.2,0.3 0.4,0.3 0.6,0.2 0,0.1 0,0 0,0 l 0,0"
           inkscape:connector-curvature="0"
           style="fill:#c64d9b" />
      </g>
      <g
         inkscape:groupmode="layer"
         id="layer3"
         inkscape:label="fond" />
      <g
         id="g3349"
         transform="translate(-23.991123,46.467017)">
        <g
           style="font-style:normal;font-variant:normal;font-weight:normal;font-stretch:normal;font-size:40px;line-height:125%;font-family:DriftType;-inkscape-font-specification:'DriftType, Normal';text-align:start;letter-spacing:0px;word-spacing:0px;writing-mode:lr-tb;text-anchor:start;fill:#ff3636;fill-opacity:1;stroke:none;stroke-width:1px;stroke-linecap:butt;stroke-linejoin:miter;stroke-opacity:1"
           id="text5672"
           transform="translate(-13.889598,0.25253814)" />
        <text
           xml:space="preserve"
           style="font-style:normal;font-variant:normal;font-weight:600;font-stretch:normal;font-size:72.5px;line-height:125%;font-family:DriftType;-inkscape-font-specification:'DriftType, Semi-Bold';text-align:start;letter-spacing:0px;word-spacing:0px;writing-mode:lr-tb;text-anchor:start;fill:#e5ac86;fill-opacity:1;stroke:none;stroke-width:1px;stroke-linecap:butt;stroke-linejoin:miter;stroke-opacity:1"
           x="-313.16757"
           y="-73.129356"
           id="text4235"
           sodipodi:linespacing="125%"><tspan
             sodipodi:role="line"
             id="tspan4237"
             x="-313.16757"
             y="-73.129356"
             style="font-style:normal;font-variant:normal;font-weight:600;font-stretch:normal;font-size:72.5px;line-height:125%;font-family:DriftType;-inkscape-font-specification:'DriftType, Semi-Bold';text-align:start;writing-mode:lr-tb;text-anchor:start;fill:#e5ac86;fill-opacity:1">EasyGoing!</tspan></text>
        <text
           sodipodi:linespacing="125%"
           id="text4243"
           y="-73.129356"
           x="-313.16757"
           style="font-style:normal;font-variant:normal;font-weight:normal;font-stretch:normal;font-size:68.75px;line-height:125%;font-family:DriftType;-inkscape-font-specification:DriftType;text-align:start;letter-spacing:0px;word-spacing:0px;writing-mode:lr-tb;text-anchor:start;fill:#5a2706;fill-opacity:1;stroke:none;stroke-width:1px;stroke-linecap:butt;stroke-linejoin:miter;stroke-opacity:1"
           xml:space="preserve"><tspan
             y="-73.129356"
             x="-313.16757"
             id="tspan4245"
             sodipodi:role="line"
             style="font-style:normal;font-variant:normal;font-weight:normal;font-stretch:normal;font-size:72.5px;line-height:125%;font-family:DriftType;-inkscape-font-specification:'DriftType, Normal';text-align:start;writing-mode:lr-tb;text-anchor:start">EasyGoing!</tspan></text>
      </g>
      <path
         style="fill:#000000;fill-opacity:0;stroke:none;stroke-opacity:1"
         d="m -342.40115,-59.155726 0,-18.18274 120.58696,0 120.58696,0 0,18.18274 0,18.182751 -120.58696,0 -120.58696,0 0,-18.182751 z m 94.65836,16.839021 c 0.0565,-0.29743 -0.0988,-0.50851 -0.43967,-0.59766 -0.30928,-0.0809 -0.54125,-0.36043 -0.56143,-0.67658 -0.0315,-0.49393 -0.0438,-0.48948 -0.14699,0.0535 -0.0893,0.47001 -0.22559,0.55997 -0.66008,0.43586 -0.30113,-0.086 -0.84309,-0.22129 -1.20437,-0.30062 l -0.65687,-0.14424 0.4418,-2.185661 c 0.24299,-1.20211 0.51832,-3.03798 0.61185,-4.0797 0.20338,-2.26516 0.34479,-2.83342 0.65708,-2.64041 0.12889,0.0797 0.23435,-0.26526 0.23435,-0.76649 0,-0.50123 0.17737,-1.25431 0.39415,-1.67352 0.60049,-1.16123 0.27842,-1.48282 -0.41465,-0.41403 -0.33596,0.5181 -0.72448,0.90634 -0.86338,0.86277 -0.39216,-0.12302 -0.45529,-1.44078 -0.12228,-2.55228 0.20864,-0.69638 0.21893,-1.0334 0.0335,-1.09522 -0.14735,-0.0491 -0.85185,-0.87699 -1.56554,-1.83971 -2.07255,-2.79571 -1.93784,-2.14623 0.17395,0.8387 0.94315,1.33312 1.22241,2.47016 0.38577,1.57076 -0.25482,-0.27393 -1.78423,-2.31633 -3.39869,-4.53867 -1.61445,-2.22233 -3.4133,-4.64136 -3.99743,-5.37562 -0.82037,-1.03122 -0.99375,-1.40331 -0.76189,-1.63517 0.23186,-0.23186 0.41709,-0.22714 0.814,0.0207 0.46312,0.28922 0.48917,0.27479 0.26386,-0.1462 -0.1427,-0.26664 -0.15755,-0.61666 -0.0346,-0.81559 0.16945,-0.2742 0.46185,-0.14654 1.37133,0.59872 0.63578,0.52097 1.15596,0.80068 1.15596,0.62158 0,-0.1791 0.17691,-0.0731 0.39313,0.23563 0.21622,0.3087 0.51264,0.56127 0.65872,0.56127 0.48693,0 -0.0556,-1.35616 -1.0936,-2.73367 -0.9606,-1.2748 -0.98914,-1.36301 -0.5489,-1.69678 0.50108,-0.37989 0.6077,-0.3057 1.66877,1.16116 0.35667,0.49307 0.34394,0.4032 -0.0631,-0.44559 -0.6503,-1.35595 -0.64702,-1.68318 0.0151,-1.51003 0.36856,0.0964 0.48664,0.0373 0.39621,-0.1984 -0.30398,-0.79213 0.22004,-0.48565 1.65274,0.96668 0.84231,0.85384 1.85587,2.15692 2.25236,2.89573 0.39649,0.7388 1.24496,2.12439 1.88549,3.07908 1.03862,1.54804 1.30892,2.57448 0.55531,2.10872 -0.16749,-0.10351 -0.20112,-0.0513 -0.0864,0.13425 0.10322,0.167 0.11943,0.48147 0.036,0.6988 -0.11544,0.30084 -0.2332,0.32747 -0.49336,0.11156 -0.27759,-0.23039 -0.33627,-0.10541 -0.31268,0.66603 0.0218,0.71371 -0.0686,0.94296 -0.36385,0.92275 -0.29246,-0.02 -0.36582,0.15749 -0.28701,0.69448 0.095,0.64744 0.55364,1.05577 0.55364,0.49293 0,-0.82439 9.01414,-12.90354 9.62935,-12.90354 0.34224,0 0.25924,0.58345 -0.18061,1.26964 -0.39303,0.61314 -0.38925,0.61252 0.20998,-0.0347 0.49199,-0.53139 0.68727,-0.60274 1.00793,-0.36827 0.30984,0.22656 0.33726,0.40007 0.12411,0.78535 -0.24509,0.44301 -0.22947,0.45842 0.14993,0.14794 0.55044,-0.45045 1.18114,0.0208 1.18114,0.88259 0,0.33024 0.093,0.60043 0.20667,0.60043 0.11366,0 0.63415,0.38032 1.15664,0.84515 l 0.94998,0.84516 -1.04248,1.2045 c -0.57337,0.66248 -1.61555,2.05373 -2.31595,3.09168 -1.47244,2.18206 -4.98538,8.87052 -5.77415,10.99367 -0.29608,0.79698 -0.7171,1.5491 -0.93559,1.67138 -0.21849,0.12227 -0.31777,0.35092 -0.22062,0.5081 0.26158,0.42325 0.90443,0.34654 0.90443,-0.10792 0,-0.21654 0.10119,-0.33118 0.22485,-0.25475 0.12367,0.0764 0.3094,-0.2862 0.41275,-0.80584 0.18631,-0.93682 0.18955,-0.93897 0.38345,-0.25484 0.10755,0.37949 0.27083,1.68637 0.36282,2.90419 0.092,1.21782 0.27508,2.8525 0.40686,3.63262 0.24271,1.436911 0.11064,2.355771 -0.30196,2.100771 -0.12434,-0.0768 -0.22608,-0.35359 -0.22608,-0.61499 0,-0.261391 -0.11819,-0.548321 -0.26266,-0.637601 -0.17106,-0.10572 -0.20718,0.0872 -0.10358,0.55331 0.53713,2.416481 0.89567,2.801841 1.73941,1.869521 0.41879,-0.46277 0.42002,-0.81692 0.0241,-6.946711 l -0.41716,-6.45909 1.31358,-2.33407 c 2.23555,-3.97229 5.13367,-7.92977 7.04264,-9.61697 l 0.81115,-0.71691 -1.85727,-1.71135 c -3.05921,-2.81887 -5.00307,-4.3047 -5.63169,-4.3047 -0.26493,0 -5.15035,6.29723 -6.31673,8.14219 -0.24073,0.38077 -0.52504,0.63832 -0.63182,0.57233 -0.10677,-0.066 -0.86142,-1.27598 -1.677,-2.68885 -0.81559,-1.41288 -2.08118,-3.18275 -2.81244,-3.93305 -0.73125,-0.75029 -1.51141,-1.64171 -1.73367,-1.98093 -0.22227,-0.33922 -0.53675,-0.61677 -0.69884,-0.61677 -0.56867,0 -4.20351,2.80846 -4.0284,3.11254 0.094,0.1632 0.37952,0.59838 0.63454,0.96706 0.71072,1.02749 0.53127,1.20043 -0.27179,0.26192 l -0.71494,-0.83551 -1.18419,1.02492 c -0.65131,0.5637 -1.34775,1.02491 -1.54765,1.02491 -0.1999,0 -0.36345,0.18545 -0.36345,0.41211 0,0.22665 1.91532,2.98248 4.25625,6.12405 5.56568,7.46921 5.52067,7.39543 5.71887,9.37374 0.1757,1.75376 -0.37187,7.00236 -1.0248,9.822971 -0.20568,0.88852 -0.34332,1.6387 -0.30586,1.66708 0.25118,0.19031 3.0472,0.57046 3.98018,0.54114 0.87979,-0.0276 1.15374,-0.13876 1.22152,-0.49547 z m 55.34929,0.19815 c 4.71433,-0.32246 8.45843,-4.144291 10.13453,-10.344911 0.71015,-2.62714 0.78958,-8.85546 0.14852,-11.6459 -1.05127,-4.57602 -2.72908,-7.5563 -5.33331,-9.47355 -0.97208,-0.71565 -2.20446,-0.93712 -2.86858,-0.51551 -0.52679,0.33443 -2.56932,-0.26353 -2.7403,-0.80224 -0.16196,-0.51029 -0.12189,-0.51096 -3.68145,0.0613 -2.87433,0.46214 -5.51024,2.85314 -7.40665,6.71849 -1.57129,3.20267 -1.97481,5.09405 -1.96658,9.21764 0.0124,6.21993 1.39931,10.54756 4.41244,13.76861 2.44322,2.611811 4.3274,3.514421 6.776,3.246021 0.76393,-0.0837 1.90035,-0.18723 2.52538,-0.22999 z m -135.68615,-0.36965 c 0.16801,-0.64249 0.8042,-0.64487 5.62901,-0.021 2.01399,0.2604 3.73862,0.42698 3.83251,0.37016 0.0939,-0.0568 0.25116,-1.13167 0.34948,-2.38857 0.11615,-1.484711 0.31048,-2.416971 0.55475,-2.661241 0.26862,-0.26862 0.41379,-1.1737 0.5084,-3.16976 0.12599,-2.65812 0.10916,-2.78653 -0.34665,-2.64442 -0.69179,0.21567 -7.65389,1.84803 -8.61363,2.01959 -0.44603,0.0797 -0.87409,0.0428 -0.95126,-0.082 -0.0772,-0.12486 -0.0643,-0.87404 0.0287,-1.66487 l 0.16899,-1.43786 3.37078,0.11432 3.37078,0.11432 0,-4.24957 0,-4.24956 -1.07329,0.003 c -0.59031,0.002 -2.14756,0.22497 -3.46056,0.49588 -1.313,0.2709 -2.4156,0.46422 -2.45022,0.4296 -0.0346,-0.0346 -0.0968,-0.96804 -0.13812,-2.07424 l -0.0752,-2.01128 4.70269,-0.0686 4.70269,-0.0686 0.0298,-2.70933 c 0.0278,-2.5297 0.24133,-4.48103 0.68016,-6.21567 0.17538,-0.69328 0.14905,-0.72271 -0.5461,-0.61025 -0.40171,0.065 -2.931,0.50114 -5.62066,0.96924 -4.44644,0.77383 -4.9172,0.81426 -5.18687,0.44547 -0.24748,-0.33845 -0.66084,-0.38289 -2.49646,-0.26837 -2.01362,0.12563 -2.20235,0.18234 -2.22916,0.66986 -0.0249,0.45307 -0.0471,0.46384 -0.14836,0.0721 -0.0812,-0.31408 -0.25255,-0.40573 -0.53892,-0.28828 -0.71866,0.29476 -1.88631,0.5713 -3.12978,0.74125 -1.05772,0.14456 -1.24402,0.2672 -1.62478,1.06959 -0.40575,0.85505 -0.40541,0.94929 0.006,1.66631 0.30288,0.52772 0.35565,0.84052 0.17269,1.02348 -0.47695,0.47695 -0.27567,1.13688 0.48353,1.58535 0.87073,0.51436 1.08052,1.26718 1.53884,5.52193 0.31446,2.91938 0.17541,7.19504 -0.3531,10.85706 -0.26112,1.80934 -0.3616,2.05179 -0.97084,2.34261 -0.72441,0.34579 -1.11403,1.1234 -0.80964,1.6159 0.24239,0.39221 0.23601,1.67162 -0.0127,2.55357 -0.16466,0.583831 -0.0784,0.812321 0.51359,1.361001 0.68901,0.63856 0.84552,0.66498 4.95569,0.83667 2.33431,0.0975 4.31905,0.25215 4.41054,0.34363 0.31077,0.31078 0.63411,0.16791 0.7666,-0.33873 z m 22.10869,-1.99343 1.15133,-2.498511 1.47543,-0.55542 c 1.86061,-0.70042 3.92621,-1.14467 4.42765,-0.95225 0.21187,0.0813 0.46052,0.52693 0.55257,0.99027 0.092,0.46335 0.45601,1.7906 0.80882,2.949441 0.77924,2.55951 0.39148,2.57571 5.79807,-0.242251 2.8736,-1.49775 3.90418,-2.15688 3.90418,-2.49703 0,-0.70758 -1.88483,-5.78882 -2.62258,-7.07011 -0.35989,-0.62504 -0.6557,-1.52562 -0.65738,-2.0013 -0.002,-0.47568 -0.56276,-2.57806 -1.24686,-4.67195 -0.68409,-2.0939 -1.42967,-4.71622 -1.65682,-5.82739 -0.49487,-2.42072 -0.95576,-7.34183 -0.7487,-7.99422 0.12691,-0.39986 0.004,-0.46581 -0.86489,-0.46581 -0.59654,0 -1.40786,0.23333 -1.97419,0.56775 -0.77238,0.4561 -1.33393,0.56588 -2.85549,0.55828 -1.77401,-0.009 -3.83912,-0.20556 -5.30822,-0.50557 -1.11283,-0.22726 -1.47527,0.32381 -1.91723,2.91507 -0.22505,1.31952 -0.74369,3.47872 -1.15251,4.79823 -0.40883,1.31951 -0.84313,2.85368 -0.9651,3.40926 -0.39177,1.78446 -4.17402,12.30001 -5.24696,14.5878 -0.78329,1.67018 -0.96418,2.27648 -0.73703,2.47033 0.8463,0.72224 3.75706,2.261951 3.99644,2.114001 0.15147,-0.0936 0.36109,-0.0315 0.46583,0.13791 0.15331,0.24807 3.49157,2.086 4.07114,2.24143 0.0831,0.0223 0.66926,-1.08378 1.3025,-2.45796 z m 35.23815,2.10869 c 4.17478,-0.83605 6.39187,-2.626251 7.41201,-5.984841 1.12497,-3.7037 0.19098,-7.80394 -2.31068,-10.14395 -1.46375,-1.36917 -4.24938,-2.79835 -5.8704,-3.01184 -1.55423,-0.20469 -2.94611,-0.92642 -3.91516,-2.03009 -1.04705,-1.19253 -1.25853,-1.92191 -0.67993,-2.345 1.33203,-0.974 3.87282,-0.64547 7.14546,0.92393 1.15919,0.55589 2.20049,0.95331 2.314,0.88316 0.11352,-0.0701 0.28671,-0.60994 0.38489,-1.19952 0.0982,-0.58958 0.32104,-1.46971 0.49527,-1.95585 0.17423,-0.48613 0.52368,-2.00565 0.77654,-3.37669 0.54734,-2.96766 0.62856,-2.8436 -2.5109,-3.83536 -5.30132,-1.67468 -10.16331,-1.12378 -13.81648,1.56553 -0.85208,0.62726 -1.77946,1.18482 -2.06084,1.23901 -0.69023,0.13292 -0.71826,0.17592 -0.8746,1.34157 -0.082,0.61153 -0.37535,1.24093 -0.73638,1.58011 -0.73357,0.68915 -0.74896,1.321 -0.0952,3.90768 0.70372,2.78427 2.05203,5.39187 3.71887,7.19226 1.73758,1.8768 2.82555,2.45644 5.74286,3.05964 2.52445,0.52197 3.39988,1.11547 3.86085,2.61747 0.31122,1.01402 0.12233,1.19 -1.72194,1.60438 -1.4423,0.32407 -3.20279,-0.023 -5.28591,-1.04214 -0.90342,-0.44198 -1.81305,-0.78094 -2.0214,-0.75324 -0.20834,0.0277 -0.964,-0.25676 -1.67924,-0.63212 -1.57001,-0.82395 -1.99608,-0.61888 -2.25139,1.08365 -0.092,0.61367 -0.30413,1.11577 -0.47134,1.11577 -0.34552,0 -1.0748,2.13061 -1.30558,3.81429 l -0.15447,1.127 1.22638,0.66269 c 4.81521,2.601971 10.03544,3.523571 14.68468,2.592501 z m 27.42074,-0.17145 c 0.40081,-0.63787 -0.1057,-1.01683 -1.33637,-0.99985 -0.94649,0.0131 -1.03304,-0.0412 -1.06048,-0.66442 l -0.0299,-0.678651 -0.15953,0.736781 c -0.0877,0.40523 -0.29522,0.78191 -0.46106,0.83708 -0.40276,0.13397 -0.90416,-1.782511 -0.78721,-3.008871 0.0506,-0.53026 0.017,-0.96411 -0.0747,-0.96411 -0.50476,0 -0.64577,3.231631 -0.19717,4.518501 l 0.2809,0.80579 1.77608,-0.0736 c 1.35158,-0.056 1.84141,-0.17759 2.0494,-0.50862 z m 25.34909,-0.16983 c 1.1058,-0.43723 1.32582,-0.46197 1.32582,-0.1491 0,0.53303 0.47437,0.47748 4.16688,-0.48794 5.15929,-1.348921 5.47425,-1.546921 4.98508,-3.133791 -2.22427,-7.21548 -2.44765,-8.24987 -1.72145,-7.9712 0.52162,0.20016 0.82454,-0.53872 1.13451,-2.76734 0.40984,-2.94662 0.36711,-3.95181 -0.16813,-3.95538 -0.54972,-0.004 -10.25581,1.55382 -10.38501,1.66643 -0.12968,0.11303 -1.0187,4.50525 -0.92987,4.59408 0.0394,0.0394 0.6552,0.1407 1.36852,0.22518 0.99396,0.11772 1.29693,0.25423 1.29693,0.58436 0,0.88941 -2.03573,2.02427 -3.63116,2.02427 -0.78731,0 -0.9244,-0.11335 -1.45079,-1.19956 -1.08569,-2.24032 -0.91543,-7.5737 0.33453,-10.47931 0.48774,-1.13379 1.70242,-2.46327 2.25056,-2.46327 0.13327,0 0.70546,0.73868 1.27153,1.6415 0.56606,0.90283 1.04922,1.6415 1.07366,1.6415 0.0244,0 1.00613,-0.40482 2.18151,-0.89961 1.17537,-0.49478 2.76207,-1.13412 3.526,-1.42074 0.76393,-0.28662 1.62468,-0.73515 1.91277,-0.99674 0.2881,-0.26158 0.60062,-0.3988 0.69448,-0.30493 0.31848,0.31848 0.1726,-0.43988 -0.24081,-1.25188 -1.2418,-2.43905 -3.13149,-4.58258 -4.76555,-5.40569 -0.69448,-0.34983 -1.62846,-0.9105 -2.07551,-1.24595 -0.57543,-0.43177 -0.99551,-0.56404 -1.43837,-0.45289 -0.37749,0.0947 -0.83675,0.009 -1.15813,-0.21603 -0.67214,-0.47079 -1.58558,-0.27981 -4.0749,0.85197 -5.28742,2.40396 -6.95265,4.27409 -8.46612,9.50787 -0.51283,1.77345 -0.6662,2.97217 -0.77154,6.0305 -0.18822,5.46403 0.48645,8.50836 2.6458,11.93882 0.95183,1.51212 3.1924,3.815811 3.71127,3.815811 0.18392,0 0.82978,0.23254 1.43526,0.51675 1.37945,0.64752 3.98625,0.54359 5.96223,-0.23769 z m 47.79457,-8.107741 c 0.002,-4.96401 0.16338,-11.10295 0.37565,-14.2684 0.20491,-3.05572 0.37429,-6.47914 0.37639,-7.60761 l 0.004,-2.05178 -2.08344,-0.1587 c -1.14589,-0.0873 -2.56544,-0.22703 -3.15455,-0.31053 -0.83003,-0.11765 -1.10473,-0.0642 -1.22046,0.23736 -0.0821,0.21405 -0.28199,0.34248 -0.44411,0.2854 -0.16213,-0.0571 -1.09027,-0.0211 -2.06254,0.0799 -2.04178,0.21217 -1.90513,-0.23199 -1.2603,4.09638 0.56033,3.76111 0.39064,13.70665 -0.36193,21.2132 -0.28547,2.84737 -0.52022,5.363571 -0.52169,5.591551 -0.003,0.54332 1.7133,1.22584 3.09605,1.23084 0.5875,0.002 1.23864,0.1176 1.44698,0.25661 0.21117,0.14088 1.57991,0.22299 3.09292,0.18553 l 2.7141,-0.0672 0.003,-8.712571 z m 19.55511,8.452001 c 0.32427,-0.24527 1.09791,-0.37078 2.28547,-0.37078 1.09843,0 1.91856,-0.12253 2.11292,-0.31567 0.20227,-0.201 1.06921,-0.31568 2.38649,-0.31568 l 2.06882,0 0.0745,-1.845221 c 0.0519,-1.28542 -0.0439,-2.08249 -0.31567,-2.62731 -0.45551,-0.9131 -0.47771,-1.04095 -0.14502,-0.83534 0.48096,0.29725 0.59221,-1.29728 0.31615,-4.53135 -0.16776,-1.96542 -0.39388,-3.32114 -0.56336,-3.37763 -0.15571,-0.0519 -0.38659,-0.36655 -0.51307,-0.69923 -0.12649,-0.33267 -0.34643,-0.60486 -0.48876,-0.60486 -0.33361,0 -0.33919,1.68827 -0.006,1.89404 0.14383,0.0889 0.25254,1.36352 0.25254,2.96118 0,3.07432 -0.24012,3.43193 -0.51222,0.76285 l -0.17368,-1.70373 -0.0358,1.54469 c -0.0249,1.0713 0.12978,1.94325 0.50461,2.8452 0.50248,1.20909 0.51135,1.33268 0.12627,1.75819 -0.2715,0.30001 -0.4142,0.90759 -0.4142,1.76362 0,1.4835 -0.30645,1.697351 -0.6953,0.4852 l -0.26329,-0.82075 -0.0258,0.82075 c -0.0305,0.97066 -0.45399,1.088681 -0.67969,0.1894 -0.0872,-0.34724 -0.23873,-0.63135 -0.33685,-0.63135 -0.0981,0 -0.37477,-0.41181 -0.61479,-0.91515 -0.24002,-0.50333 -0.49673,-0.85481 -0.57047,-0.78108 -0.0737,0.0737 0.0532,0.49612 0.28198,0.93862 0.22883,0.4425 0.3454,0.8752 0.25905,0.96155 -0.33857,0.33857 -1.08356,-0.45551 -2.63397,-2.8075 -0.88952,-1.34942 -1.6661,-2.40469 -1.72573,-2.34506 -0.0596,0.0596 0.12835,0.6437 0.41775,1.29794 0.58948,1.33261 0.62145,1.46654 0.3032,1.26984 -0.12264,-0.0758 0.0451,0.51412 0.37281,1.31092 0.73231,1.78068 0.75203,2.2528 0.10271,2.45888 -0.2778,0.0882 -0.50508,0.266291 -0.50508,0.395831 0,0.12953 -0.14205,0.23512 -0.31567,0.23464 -0.17362,-5.1e-4 -1.3628,-2.074461 -2.64261,-4.608821 -2.29963,-4.55387 -5.3984,-10.16145 -5.8831,-10.64615 -0.16496,-0.16496 -0.24999,0.0299 -0.24999,0.57303 0,0.45267 0.0948,0.76445 0.21062,0.69286 0.11585,-0.0716 0.47148,0.49916 0.79029,1.26836 l 0.57966,1.39853 -0.43096,3.45183 c -0.44984,3.60303 -1.29556,8.111951 -1.56787,8.358971 -0.0871,0.079 -0.0921,-0.28509 -0.0113,-0.80906 0.18373,-1.190241 -0.21034,-1.016931 -0.43719,0.19227 -0.1794,0.95627 -0.17776,0.95457 -0.71735,0.7475 -0.30832,-0.11831 -0.31524,-0.35488 -0.0462,-1.578361 0.42346,-1.92548 0.6323,-4.63329 0.34359,-4.45486 -0.12573,0.0777 -0.22714,0.67438 -0.22536,1.32594 0.005,1.78367 -0.76487,4.829061 -1.18029,4.669651 -0.186,-0.0714 -0.34587,-0.43013 -0.35527,-0.79723 -0.0169,-0.662211 -0.0192,-0.662991 -0.29113,-0.0992 -0.30803,0.6387 -0.5124,0.68741 -1.24319,0.2963 -0.28511,-0.15258 -0.44816,-0.42802 -0.37155,-0.627651 0.11205,-0.292 0.0488,-0.30098 -0.35292,-0.0501 -0.82246,0.513641 -1.16083,-0.0668 -0.77998,-1.338 0.50493,-1.6853 0.99418,-4.53511 0.75298,-4.38605 -0.12237,0.0756 -0.22249,0.39673 -0.22249,0.71356 0,0.79318 -0.96506,4.50083 -1.24416,4.77993 -0.67975,0.679751 -0.61981,-0.46351 0.25682,-4.89844 1.23991,-6.2728 1.48379,-8.37013 1.52496,-13.11425 l 0.034,-3.91434 0.309,2.27284 0.309,2.27285 0.0442,-1.76777 c 0.0685,-2.7385 0.60253,-1.38627 0.79782,2.0203 l 0.15926,2.77792 0.041,-2.50138 c 0.0407,-2.48435 0.0444,-2.49828 0.54605,-2.0443 1.04598,0.9466 0.46032,-0.25199 -2.20392,-4.51037 -2.22451,-3.55556 -2.45588,-4.06949 -1.437,-3.19205 0.51672,0.445 0.6032,0.4764 0.29298,0.10639 -0.5514,-0.65767 -0.55789,-1.01732 -0.0221,-1.22293 0.25608,-0.0983 0.66159,0.0625 1.04657,0.41492 l 0.6285,0.57535 -0.44943,-0.70236 c -0.58,-0.9064 -0.25006,-1.25197 0.41082,-0.43028 0.48761,0.60626 0.49491,0.60754 0.2148,0.0377 -0.45363,-0.92282 -0.11318,-0.91818 0.5202,0.007 0.75634,1.10489 1.22887,1.46663 1.91579,1.46663 0.77659,0 0.9566,-0.39452 0.48635,-1.0659 -0.48935,-0.69865 -0.49742,-0.9544 -0.0301,-0.9544 0.19983,0 0.78526,0.68357 1.30095,1.51905 0.51569,0.83549 0.99008,1.4666 1.0542,1.40248 0.0641,-0.0641 -0.28658,-0.77575 -0.77934,-1.58141 -0.78873,-1.28956 -0.84663,-1.4924 -0.48396,-1.69536 0.24708,-0.13828 0.44261,-0.13859 0.48855,-7.9e-4 0.40927,1.22756 2.75857,4.80122 3.90782,5.94439 0.78767,0.78351 1.68433,1.92063 1.99257,2.52692 0.70547,1.38761 3.24739,5.22697 3.60829,5.45001 0.1488,0.092 0.0135,-0.26844 -0.30066,-0.80092 -0.31417,-0.53247 -0.57245,-1.26421 -0.57396,-1.62608 -0.004,-1.01506 0.53634,-10.46802 0.60204,-10.52758 0.032,-0.029 0.88202,0.007 1.88902,0.081 1.68829,0.12331 1.8309,0.1778 1.8309,0.69957 0,0.31122 0.0763,0.94723 0.1695,1.41337 0.16801,0.84002 0.17434,0.83304 0.71598,-0.78918 0.41864,-1.25383 0.65961,-1.63671 1.03006,-1.63671 0.37775,0 0.51478,0.23386 0.6262,1.0686 0.20621,1.54502 0.48872,1.62558 0.48872,0.13937 0,-1.1027 0.0754,-1.29505 0.55718,-1.42103 0.30645,-0.0801 0.5911,-0.11179 0.63256,-0.0703 0.0415,0.0415 -0.0372,0.66884 -0.17473,1.39419 -0.13756,0.72535 -0.37673,3.72685 -0.53149,6.67 -0.15475,2.94315 -0.38808,5.41744 -0.5185,5.49841 -0.29977,0.18611 0.0927,1.27073 0.61733,1.70616 0.33433,0.27746 0.40075,0.0696 0.528,-1.65188 0.0801,-1.0831 0.37764,-4.4694 0.66129,-7.52511 0.60575,-6.5255 0.61368,-6.91749 0.14369,-7.09784 -0.19664,-0.0755 -1.66492,-0.008 -3.26285,0.14896 -2.15161,0.21192 -3.31046,0.21269 -4.46693,0.003 -0.85888,-0.15574 -1.60164,-0.24314 -1.65057,-0.19421 -0.0489,0.0489 -0.28494,2.27209 -0.52448,4.94036 -0.23953,2.66827 -0.51869,4.8514 -0.62035,4.8514 -0.10166,0 -0.48226,-0.76709 -0.84579,-1.70463 -0.75561,-1.94876 -1.04164,-2.3805 -1.8692,-2.82141 -0.73109,-0.38951 -1.44796,-1.98766 -1.67968,-3.74459 l -0.17486,-1.32582 -0.92657,0 c -0.71776,0 -0.98275,-0.12772 -1.17586,-0.56674 -0.37299,-0.84796 -1.04239,-0.82798 -2.05528,0.0613 -0.67519,0.59283 -1.06164,0.75848 -1.50809,0.64643 -0.36551,-0.0917 -0.60026,-0.0396 -0.60026,0.1334 0,0.15623 -0.33758,-0.0773 -0.75018,-0.51901 l -0.75018,-0.80307 -1.08072,0.66517 c -0.5944,0.36584 -1.5637,0.90831 -2.15401,1.20549 -0.59031,0.29718 -1.07329,0.67564 -1.07329,0.84103 0,0.16538 0.5398,1.02346 1.19956,1.90684 l 1.19956,1.60615 -0.0131,6.18718 c -0.014,6.61945 -0.33357,9.4075 -1.76074,15.36191 -0.3439,1.43481 -0.62528,2.74729 -0.62528,2.916631 0,0.45347 5.33481,1.87462 7.74913,2.06432 l 2.06702,0.1624 0.2718,-1.00939 c 0.14949,-0.55517 0.55245,-2.912771 0.89547,-5.239121 0.34301,-2.32635 0.6644,-4.27046 0.71419,-4.32026 0.11587,-0.11587 4.00173,7.98343 4.59247,9.572091 0.4906,1.31933 0.53681,1.34947 1.24646,0.81272 z m 25.07927,-0.34426 c 1.10581,-0.43723 1.32583,-0.46197 1.32583,-0.1491 0,0.20631 0.19887,0.37406 0.44194,0.37277 0.66265,-0.004 7.05208,-1.69733 7.81406,-2.07147 1.25726,-0.617311 1.26428,-0.910551 0.10536,-4.401971 -1.24258,-3.74347 -1.59433,-5.74686 -0.96672,-5.50602 0.24781,0.0951 0.5001,-0.0441 0.67616,-0.37309 0.34548,-0.64553 0.92962,-6.00298 0.68157,-6.25103 -0.15932,-0.15932 -10.50163,1.3639 -10.74379,1.58235 -0.14174,0.12786 -1.03208,4.48781 -0.93605,4.58384 0.0446,0.0446 0.66468,0.15018 1.37799,0.23466 0.99396,0.11772 1.29694,0.25423 1.29694,0.58436 0,0.88941 -2.03573,2.02427 -3.63116,2.02427 -0.78601,0 -0.92616,-0.11515 -1.46008,-1.19956 -1.08302,-2.19968 -0.90675,-7.57229 0.34382,-10.47931 0.48264,-1.12193 1.70104,-2.46327 2.23751,-2.46327 0.12608,0 0.69576,0.73868 1.26595,1.6415 0.57018,0.90283 1.05921,1.6415 1.08672,1.6415 0.0275,0 1.0117,-0.40482 2.18707,-0.89961 1.17538,-0.49478 2.76208,-1.13412 3.52601,-1.42074 0.76393,-0.28662 1.62467,-0.73515 1.91277,-0.99674 0.2881,-0.26158 0.60061,-0.3988 0.69448,-0.30493 0.44324,0.44323 0.0882,-0.67785 -0.5725,-1.80755 -1.3867,-2.3712 -2.97489,-4.12332 -4.37132,-4.82252 -0.72888,-0.36495 -1.691,-0.938 -2.13805,-1.27345 -0.58555,-0.43936 -0.99248,-0.5648 -1.45537,-0.44862 -0.38464,0.0965 -0.8034,0.0278 -1.04324,-0.17127 -0.63152,-0.52412 -1.8032,-0.29436 -4.2599,0.83533 -5.28166,2.4287 -6.85615,4.20924 -8.37901,9.47548 -0.51284,1.77345 -0.6662,2.97217 -0.77155,6.0305 -0.19785,5.74401 0.64113,9.18656 3.06757,12.58691 1.09068,1.52845 2.83574,3.167721 3.37215,3.167721 0.13847,0 0.74714,0.23254 1.35262,0.51675 1.37945,0.64752 3.98625,0.54359 5.96222,-0.23769 z m 15.6631,0.45812 c 1.80926,-0.20175 2.97319,-0.1962 4.46043,0.0213 2.53646,0.37088 2.71386,0.21794 2.31084,-1.99235 -0.15078,-0.826921 -0.34732,-1.576321 -0.43676,-1.665331 -0.0894,-0.089 0.10943,-0.43388 0.44194,-0.76639 0.50684,-0.50685 0.60456,-0.85596 0.60456,-2.15995 l 0,-1.55538 -1.19956,0.21808 c -1.30337,0.23695 -6.39091,0.29521 -8.01808,0.0918 l -1.01016,-0.12627 0.0412,1.73931 c 0.0265,1.11927 0.15866,1.8119 0.37068,1.94294 0.26723,0.16515 0.25121,0.43293 -0.0848,1.41741 -0.22783,0.667591 -0.48502,1.639951 -0.57153,2.160811 -0.18364,1.10572 -0.38546,1.06171 3.0912,0.67404 l 0,10e-6 z m -138.91703,-3.199421 c -0.0635,-0.24307 -0.11549,-0.0442 -0.11549,0.44194 0,0.486131 0.052,0.685011 0.11549,0.44194 0.0635,-0.24307 0.0635,-0.64082 0,-0.88388 z m 87.18636,-1.43105 c 0.0245,-1.36598 -0.13588,-1.05803 -0.31789,0.6103 -0.099,0.90707 -0.0732,1.21372 0.0743,0.88388 0.12421,-0.27779 0.23382,-0.95018 0.24358,-1.49418 z m -84.41001,0.81548 c -0.0806,-0.20145 -0.14046,-0.14161 -0.15257,0.15258 -0.011,0.26622 0.0487,0.41537 0.13264,0.33146 0.0839,-0.0839 0.0929,-0.30174 0.0199,-0.48404 l 1e-5,0 z m 2.48348,-3.68014 c -0.2663,-1.41949 -0.44196,-0.73225 -0.22114,0.86518 0.14624,1.05791 0.22914,1.26629 0.29399,0.73899 0.0497,-0.4039 0.0169,-1.12578 -0.0728,-1.60417 z m 90.93786,-0.92456 c -1.16274,-2.48819 -2.91405,-5.55227 -3.07911,-5.3872 -0.0505,0.0505 0.7571,1.6766 1.79476,3.61348 1.03766,1.93687 1.95398,3.72902 2.03626,3.98256 0.0823,0.25353 0.20269,0.4079 0.26755,0.34304 0.0649,-0.0649 -0.3939,-1.2132 -1.01946,-2.55188 z m -92.16391,1.55846 c -0.0701,-0.17362 -0.12738,-0.0316 -0.12738,0.31568 0,0.34724 0.0573,0.48929 0.12738,0.31567 0.0701,-0.17362 0.0701,-0.45773 0,-0.63135 z m 85.86823,0.26832 c -0.0806,-0.20145 -0.14046,-0.14161 -0.15258,0.15258 -0.011,0.26622 0.0487,0.41537 0.13264,0.33146 0.0839,-0.0839 0.0929,-0.30174 0.0199,-0.48404 l 1e-5,0 z m 12.2025,-0.0797 c 0.17327,-0.20877 0.31503,-0.66299 0.31503,-1.00937 0,-0.90514 -0.50752,-1.38896 -1.45702,-1.38896 -0.76345,0 -0.91592,-0.1503 -1.98553,-1.95717 -0.63722,-1.07644 -1.16031,-1.85445 -1.16242,-1.7289 -0.006,0.32738 1.72848,3.38182 2.02329,3.56402 0.16044,0.0992 0.15828,0.3186 -0.006,0.62585 -0.37974,0.70955 -0.3087,1.20848 0.25186,1.76904 0.59758,0.59758 1.57859,0.6585 2.02095,0.12549 l 1e-5,0 z m -99.91983,-1.94878 c 0.19117,-0.11973 0.34712,0.0992 0.44905,0.63053 0.1377,0.71772 0.16009,0.67213 0.1894,-0.3856 0.0234,-0.84546 0.13787,-1.19956 0.38768,-1.19956 0.24615,0 0.38586,-0.40504 0.45729,-1.32582 0.0566,-0.72921 0.0703,-1.37043 0.0305,-1.42495 -0.19286,-0.26413 -0.87215,0.64557 -1.13354,1.51804 -0.27577,0.92042 -0.5682,1.22435 -0.7609,0.79079 -0.0463,-0.10417 -0.47131,-0.3932 -0.94448,-0.6423 -1.00631,-0.52976 -1.6317,-0.228 -1.08386,0.52298 0.17453,0.23925 0.38205,0.626 0.46115,0.85946 0.0791,0.23346 0.29437,0.3667 0.47838,0.29609 0.38494,-0.14772 0.86086,0.6172 0.9162,1.47255 0.0286,0.44233 0.0649,0.40043 0.14906,-0.17198 0.0612,-0.41624 0.24302,-0.83934 0.4041,-0.94023 z m 85.41802,-0.13515 c -0.15208,-0.15207 -0.6613,1.08596 -0.63052,1.53294 0.0113,0.16458 0.18751,-0.0833 0.39152,-0.55089 0.204,-0.46757 0.31155,-0.90949 0.239,-0.98205 z m -88.11461,-0.37753 c -0.07,-0.17362 -0.12737,-0.0316 -0.12737,0.31567 0,0.34724 0.0573,0.48929 0.12737,0.31567 0.0701,-0.17362 0.0701,-0.45772 0,-0.63134 z m 104.72152,-1.27595 c -0.0867,-0.53427 -0.29565,-0.93376 -0.48841,-0.93376 -0.44037,0 -0.89815,-0.86869 -0.7126,-1.35224 0.10826,-0.28211 0.0137,-0.34425 -0.37098,-0.24366 l -0.5163,0.13501 0.52933,1.04612 c 0.62324,1.23173 1.49038,2.50239 1.61956,2.37322 0.05,-0.05 0.0228,-0.51113 -0.0606,-1.02469 z m 34.99991,0.46423 c 0.5365,-0.27744 0.92712,-0.30897 1.56415,-0.12627 0.46699,0.13393 1.54949,0.24351 2.40554,0.24351 l 1.55646,0 0.14908,-2.46225 c 0.34775,-5.74392 0.72073,-9.70611 1.15892,-12.31123 0.257,-1.52786 0.59924,-3.90087 0.76054,-5.27336 0.39442,-3.35601 0.38544,-3.36491 -3.04617,-3.0173 -1.41877,0.14372 -3.02592,0.16862 -3.60789,0.0559 -0.5772,-0.11179 -1.9099,-0.20822 -2.96157,-0.21426 l -1.91212,-0.011 0.43603,3.72493 c 0.49022,4.18793 1.1413,12.01297 1.38681,16.66752 0.16174,3.0663 0.16861,3.09359 0.77916,3.09359 0.33879,0 0.93776,-0.1664 1.33106,-0.36978 z m -42.66149,-0.33957 c 0,-0.11235 -0.17231,-0.42486 -0.38292,-0.69448 -0.35506,-0.45456 -0.3613,-0.43971 -0.0857,0.20427 0.29734,0.69486 0.46865,0.87405 0.46865,0.49021 z m -6.566,-3.97751 c 0,-0.21654 -0.11364,-0.32348 -0.25253,-0.23764 -0.1389,0.0858 -0.25254,0.26302 -0.25254,0.39372 0,0.13069 0.11364,0.23763 0.25254,0.23763 0.13889,0 0.25253,-0.17717 0.25253,-0.39371 z m 13.9389,-3.3874 c 0.90654,-2.27632 0.89648,-3.98204 -0.0312,-5.28481 -0.31807,-0.44668 -0.63512,-0.75533 -0.70457,-0.68588 -0.0695,0.0695 0.12494,0.47906 0.43197,0.91025 0.89972,1.26355 0.90545,2.36931 0.0254,4.90449 -0.4296,1.23757 -0.76562,2.48763 -0.7467,2.77792 0.0286,0.43884 0.0541,0.42256 0.15119,-0.0966 0.0643,-0.34341 0.45749,-1.47983 0.87387,-2.52538 z m -99.99641,2.11318 c 0.24693,-0.54195 0.22355,-0.79046 -0.13277,-1.41132 -0.23785,-0.41445 -0.3576,-0.87468 -0.26609,-1.02274 0.10901,-0.17639 0.0441,-0.19297 -0.18832,-0.0481 -0.19508,0.12162 -0.58198,0.25374 -0.85977,0.29362 -0.54363,0.078 -1.38896,0.94781 -1.38896,1.42913 0,0.73373 0.80114,1.41717 1.66123,1.41717 0.69762,0 0.93573,-0.13333 1.17468,-0.65778 z m 98.60145,-2.76848 c 0.17609,-0.68513 0.39383,-1.88775 0.48386,-2.67248 0.15427,-1.34457 0.12554,-1.45177 -0.49867,-1.86077 -0.54858,-0.35945 -0.73008,-0.3778 -1.05656,-0.10684 -1.36886,1.13605 -1.43685,3.50205 -0.15766,5.48716 0.52661,0.81721 0.8604,0.58716 1.22903,-0.84707 z m -8.40933,-0.93003 c -0.75637,-1.46398 -3.94177,-6.27479 -4.0699,-6.14666 -0.12025,0.12025 4.20092,6.96741 4.39706,6.96741 0.0533,0 -0.0939,-0.36933 -0.32716,-0.82075 z m 5.64469,-0.83021 c 0.035,-0.86314 0.34427,-2.08874 0.8119,-3.21773 0.74072,-1.7883 0.74321,-1.80892 0.12877,-1.06595 -0.7827,0.9464 -1.37605,2.87182 -1.37605,4.46525 0,1.684 0.36587,1.53142 0.43538,-0.18157 z m -11.7996,-0.24307 c 0,-0.20835 -0.11364,-0.37881 -0.25254,-0.37881 -0.13889,0 -0.25254,0.17046 -0.25254,0.37881 0,0.20834 0.11365,0.3788 0.25254,0.3788 0.1389,0 0.25254,-0.17046 0.25254,-0.3788 z m 0.85594,-1.19956 c -0.77287,-1.3258 -2.69757,-4.23001 -2.80334,-4.23001 -0.072,0 0.0347,0.25569 0.23715,0.56821 0.20248,0.31251 0.85077,1.33529 1.44064,2.27284 0.58988,0.93755 1.12584,1.70463 1.19104,1.70463 0.0652,0 0.0357,-0.14205 -0.0655,-0.31567 z m 3.43721,-2.96732 c -0.84054,-1.25007 -1.60488,-2.27285 -1.69852,-2.27285 -0.0937,0 -0.0339,0.13638 0.13278,0.30305 0.37755,0.37755 0.39942,0.79648 0.0296,0.56795 -0.15037,-0.0929 -0.0906,0.18446 0.13275,0.61644 0.41774,0.80781 0.74331,1.08104 0.48451,0.4066 -0.28392,-0.73987 0.10218,-0.35863 1.15091,1.13642 1.65132,2.35413 1.47649,1.7834 -0.23208,-0.75761 z m -87.1199,0.0631 c 0.66804,-1.01741 0.68716,-1.08452 0.12592,-0.44194 -0.71495,0.81855 -1.23463,1.64149 -1.03658,1.64149 0.0677,0 0.47746,-0.5398 0.91066,-1.19955 z m 94.94047,-0.59402 c 0.43605,-0.70868 0.75831,-1.45739 0.71614,-1.6638 -0.0422,-0.20641 -0.44496,0.37342 -0.89508,1.2885 -0.45011,0.91509 -0.77238,1.6638 -0.71614,1.6638 0.0562,0 0.45902,-0.57983 0.89508,-1.2885 z m 2.706,0.23099 c -0.0806,-0.20145 -0.14045,-0.14161 -0.15257,0.15258 -0.011,0.26622 0.0487,0.41537 0.13264,0.33146 0.0839,-0.0839 0.0929,-0.30174 0.0199,-0.48404 l 1e-5,0 z m 2.32698,-0.25357 c -0.16292,-0.3044 -0.38443,-0.8442 -0.49226,-1.19956 -0.13038,-0.42966 -0.20332,-0.49385 -0.21776,-0.19161 -0.0222,0.46497 0.64552,1.94463 0.87755,1.94463 0.0708,0 -0.005,-0.24906 -0.16753,-0.55346 z m -15.51952,-0.76542 c 0.58421,-0.83408 0.48668,-1.63863 -0.25779,-2.12643 -0.85431,-0.55976 -1.89941,-0.21748 -2.2331,0.73136 -0.20075,0.57083 -0.14098,0.79318 0.35519,1.32133 0.73746,0.78499 1.61627,0.81533 2.1357,0.0737 z m -83.16479,-0.38575 c 0.31413,-0.40054 0.3052,-0.40947 -0.0953,-0.0954 -0.42067,0.32991 -0.55445,0.53729 -0.3466,0.53729 0.0524,0 0.25132,-0.19887 0.44194,-0.44194 z m 96.60987,-0.36302 c -0.0806,-0.20146 -0.14046,-0.14162 -0.15257,0.15257 -0.011,0.26622 0.0487,0.41537 0.13264,0.33146 0.0839,-0.0839 0.0929,-0.30173 0.0199,-0.48403 l 1e-5,0 z m -107.86867,-0.67194 c -0.39885,-0.39049 -0.40537,-0.37094 -0.10199,0.30598 0.17824,0.39772 0.36997,0.58543 0.42607,0.41714 0.0561,-0.16829 -0.0897,-0.49369 -0.32408,-0.72312 z m 14.03697,-0.354 c 0.27454,-0.51524 0.2636,-0.5359 -0.11738,-0.22162 -0.23109,0.19063 -0.42016,0.44632 -0.42016,0.56821 0,0.38575 0.22442,0.24105 0.53754,-0.34659 z m 75.47644,-0.28476 c 0,-0.0524 -0.19887,-0.25131 -0.44194,-0.44194 -0.40054,-0.31412 -0.40947,-0.30519 -0.0953,0.0953 0.32991,0.42067 0.53729,0.55445 0.53729,0.3466 z m 1.12429,-0.68573 c -0.22215,-0.4296 -0.46144,-0.72356 -0.53174,-0.65326 -0.12651,0.12652 0.63205,1.43434 0.83194,1.43434 0.057,0 -0.078,-0.35149 -0.3002,-0.78108 z m 19.00484,-0.5418 c -0.0604,-0.31413 -0.11213,-0.11659 -0.11493,0.439 -0.003,0.55558 0.0466,0.8126 0.10983,0.57115 0.0632,-0.24144 0.0655,-0.69601 0.005,-1.01015 l 0,0 z"
         id="path5728"
         inkscape:connector-curvature="0" />
      <path
         style="fill:#000000;fill-opacity:0;stroke:none;stroke-opacity:1"
         d="m -342.40115,-59.155726 0,-18.18274 120.58696,0 120.58696,0 0,18.18274 0,18.182751 -120.58696,0 -120.58696,0 0,-18.182751 z m 94.65836,16.839021 c 0.0565,-0.29743 -0.0988,-0.50851 -0.43967,-0.59766 -0.30928,-0.0809 -0.54125,-0.36043 -0.56143,-0.67658 -0.0315,-0.49393 -0.0438,-0.48948 -0.14699,0.0535 -0.0893,0.47001 -0.22559,0.55997 -0.66008,0.43586 -0.30113,-0.086 -0.84309,-0.22129 -1.20437,-0.30062 l -0.65687,-0.14424 0.4418,-2.185661 c 0.24299,-1.20211 0.51832,-3.03798 0.61185,-4.0797 0.20338,-2.26516 0.34479,-2.83342 0.65708,-2.64041 0.12889,0.0797 0.23435,-0.26526 0.23435,-0.76649 0,-0.50123 0.17737,-1.25431 0.39415,-1.67352 0.60049,-1.16123 0.27842,-1.48282 -0.41465,-0.41403 -0.33596,0.5181 -0.72448,0.90634 -0.86338,0.86277 -0.39216,-0.12302 -0.45529,-1.44078 -0.12228,-2.55228 0.20864,-0.69638 0.21893,-1.0334 0.0335,-1.09522 -0.14735,-0.0491 -0.85185,-0.87699 -1.56554,-1.83971 -2.07255,-2.79571 -1.93784,-2.14623 0.17395,0.8387 0.94315,1.33312 1.22241,2.47016 0.38577,1.57076 -0.25482,-0.27393 -1.78423,-2.31633 -3.39869,-4.53867 -1.61445,-2.22233 -3.4133,-4.64136 -3.99743,-5.37562 -0.82037,-1.03122 -0.99375,-1.40331 -0.76189,-1.63517 0.23186,-0.23186 0.41709,-0.22714 0.814,0.0207 0.46312,0.28922 0.48917,0.27479 0.26386,-0.1462 -0.1427,-0.26664 -0.15755,-0.61666 -0.0346,-0.81559 0.16945,-0.2742 0.46185,-0.14654 1.37133,0.59872 0.63578,0.52097 1.15596,0.80068 1.15596,0.62158 0,-0.1791 0.17691,-0.0731 0.39313,0.23563 0.21622,0.3087 0.51264,0.56127 0.65872,0.56127 0.48693,0 -0.0556,-1.35616 -1.0936,-2.73367 -0.9606,-1.2748 -0.98914,-1.36301 -0.5489,-1.69678 0.50108,-0.37989 0.6077,-0.3057 1.66877,1.16116 0.35667,0.49307 0.34394,0.4032 -0.0631,-0.44559 -0.6503,-1.35595 -0.64702,-1.68318 0.0151,-1.51003 0.36856,0.0964 0.48664,0.0373 0.39621,-0.1984 -0.30398,-0.79213 0.22004,-0.48565 1.65274,0.96668 0.84231,0.85384 1.85587,2.15692 2.25236,2.89573 0.39649,0.7388 1.24496,2.12439 1.88549,3.07908 1.03862,1.54804 1.30892,2.57448 0.55531,2.10872 -0.16749,-0.10351 -0.20112,-0.0513 -0.0864,0.13425 0.10322,0.167 0.11943,0.48147 0.036,0.6988 -0.11544,0.30084 -0.2332,0.32747 -0.49336,0.11156 -0.27759,-0.23039 -0.33627,-0.10541 -0.31268,0.66603 0.0218,0.71371 -0.0686,0.94296 -0.36385,0.92275 -0.29246,-0.02 -0.36582,0.15749 -0.28701,0.69448 0.095,0.64744 0.55364,1.05577 0.55364,0.49293 0,-0.82439 9.01414,-12.90354 9.62935,-12.90354 0.34224,0 0.25924,0.58345 -0.18061,1.26964 -0.39303,0.61314 -0.38925,0.61252 0.20998,-0.0347 0.49199,-0.53139 0.68727,-0.60274 1.00793,-0.36827 0.30984,0.22656 0.33726,0.40007 0.12411,0.78535 -0.24509,0.44301 -0.22947,0.45842 0.14993,0.14794 0.55044,-0.45045 1.18114,0.0208 1.18114,0.88259 0,0.33024 0.093,0.60043 0.20667,0.60043 0.11366,0 0.63415,0.38032 1.15664,0.84515 l 0.94998,0.84516 -1.04248,1.2045 c -0.57337,0.66248 -1.61555,2.05373 -2.31595,3.09168 -1.47244,2.18206 -4.98538,8.87052 -5.77415,10.99367 -0.29608,0.79698 -0.7171,1.5491 -0.93559,1.67138 -0.21849,0.12227 -0.31777,0.35092 -0.22062,0.5081 0.26158,0.42325 0.90443,0.34654 0.90443,-0.10792 0,-0.21654 0.10119,-0.33118 0.22485,-0.25475 0.12367,0.0764 0.3094,-0.2862 0.41275,-0.80584 0.18631,-0.93682 0.18955,-0.93897 0.38345,-0.25484 0.10755,0.37949 0.27083,1.68637 0.36282,2.90419 0.092,1.21782 0.27508,2.8525 0.40686,3.63262 0.24271,1.436911 0.11064,2.355771 -0.30196,2.100771 -0.12434,-0.0768 -0.22608,-0.35359 -0.22608,-0.61499 0,-0.261391 -0.11819,-0.548321 -0.26266,-0.637601 -0.17106,-0.10572 -0.20718,0.0872 -0.10358,0.55331 0.53713,2.416481 0.89567,2.801841 1.73941,1.869521 0.41879,-0.46277 0.42002,-0.81692 0.0241,-6.946711 l -0.41716,-6.45909 1.31358,-2.33407 c 2.23555,-3.97229 5.13367,-7.92977 7.04264,-9.61697 l 0.81115,-0.71691 -1.85727,-1.71135 c -3.05921,-2.81887 -5.00307,-4.3047 -5.63169,-4.3047 -0.26493,0 -5.15035,6.29723 -6.31673,8.14219 -0.24073,0.38077 -0.52504,0.63832 -0.63182,0.57233 -0.10677,-0.066 -0.86142,-1.27598 -1.677,-2.68885 -0.81559,-1.41288 -2.08118,-3.18275 -2.81244,-3.93305 -0.73125,-0.75029 -1.51141,-1.64171 -1.73367,-1.98093 -0.22227,-0.33922 -0.53675,-0.61677 -0.69884,-0.61677 -0.56867,0 -4.20351,2.80846 -4.0284,3.11254 0.094,0.1632 0.37952,0.59838 0.63454,0.96706 0.71072,1.02749 0.53127,1.20043 -0.27179,0.26192 l -0.71494,-0.83551 -1.18419,1.02492 c -0.65131,0.5637 -1.34775,1.02491 -1.54765,1.02491 -0.1999,0 -0.36345,0.18545 -0.36345,0.41211 0,0.22665 1.91532,2.98248 4.25625,6.12405 5.56568,7.46921 5.52067,7.39543 5.71887,9.37374 0.1757,1.75376 -0.37187,7.00236 -1.0248,9.822971 -0.20568,0.88852 -0.34332,1.6387 -0.30586,1.66708 0.25118,0.19031 3.0472,0.57046 3.98018,0.54114 0.87979,-0.0276 1.15374,-0.13876 1.22152,-0.49547 z m 55.34929,0.19815 c 4.71433,-0.32246 8.45843,-4.144291 10.13453,-10.344911 0.71015,-2.62714 0.78958,-8.85546 0.14852,-11.6459 -1.05127,-4.57602 -2.72908,-7.5563 -5.33331,-9.47355 -0.97208,-0.71565 -2.20446,-0.93712 -2.86858,-0.51551 -0.52679,0.33443 -2.56932,-0.26353 -2.7403,-0.80224 -0.16196,-0.51029 -0.12189,-0.51096 -3.68145,0.0613 -2.87433,0.46214 -5.51024,2.85314 -7.40665,6.71849 -1.57129,3.20267 -1.97481,5.09405 -1.96658,9.21764 0.0124,6.21993 1.39931,10.54756 4.41244,13.76861 2.44322,2.611811 4.3274,3.514421 6.776,3.246021 0.76393,-0.0837 1.90035,-0.18723 2.52538,-0.22999 z m -135.68615,-0.36965 c 0.16801,-0.64249 0.8042,-0.64487 5.62901,-0.021 2.01399,0.2604 3.73862,0.42698 3.83251,0.37016 0.0939,-0.0568 0.25116,-1.13167 0.34948,-2.38857 0.11615,-1.484711 0.31048,-2.416971 0.55475,-2.661241 0.26862,-0.26862 0.41379,-1.1737 0.5084,-3.16976 0.12599,-2.65812 0.10916,-2.78653 -0.34665,-2.64442 -0.69179,0.21567 -7.65389,1.84803 -8.61363,2.01959 -0.44603,0.0797 -0.87409,0.0428 -0.95126,-0.082 -0.0772,-0.12486 -0.0643,-0.87404 0.0287,-1.66487 l 0.16899,-1.43786 3.37078,0.11432 3.37078,0.11432 0,-4.24957 0,-4.24956 -1.07329,0.003 c -0.59031,0.002 -2.14756,0.22497 -3.46056,0.49588 -1.313,0.2709 -2.4156,0.46422 -2.45022,0.4296 -0.0346,-0.0346 -0.0968,-0.96804 -0.13812,-2.07424 l -0.0752,-2.01128 4.70269,-0.0686 4.70269,-0.0686 0.0298,-2.70933 c 0.0278,-2.5297 0.24133,-4.48103 0.68016,-6.21567 0.17538,-0.69328 0.14905,-0.72271 -0.5461,-0.61025 -0.40171,0.065 -2.931,0.50114 -5.62066,0.96924 -4.44644,0.77383 -4.9172,0.81426 -5.18687,0.44547 -0.24748,-0.33845 -0.66084,-0.38289 -2.49646,-0.26837 -2.01362,0.12563 -2.20235,0.18234 -2.22916,0.66986 -0.0249,0.45307 -0.0471,0.46384 -0.14836,0.0721 -0.0812,-0.31408 -0.25255,-0.40573 -0.53892,-0.28828 -0.71866,0.29476 -1.88631,0.5713 -3.12978,0.74125 -1.05772,0.14456 -1.24402,0.2672 -1.62478,1.06959 -0.40575,0.85505 -0.40541,0.94929 0.006,1.66631 0.30288,0.52772 0.35565,0.84052 0.17269,1.02348 -0.47695,0.47695 -0.27567,1.13688 0.48353,1.58535 0.87073,0.51436 1.08052,1.26718 1.53884,5.52193 0.31446,2.91938 0.17541,7.19504 -0.3531,10.85706 -0.26112,1.80934 -0.3616,2.05179 -0.97084,2.34261 -0.72441,0.34579 -1.11403,1.1234 -0.80964,1.6159 0.24239,0.39221 0.23601,1.67162 -0.0127,2.55357 -0.16466,0.583831 -0.0784,0.812321 0.51359,1.361001 0.68901,0.63856 0.84552,0.66498 4.95569,0.83667 2.33431,0.0975 4.31905,0.25215 4.41054,0.34363 0.31077,0.31078 0.63411,0.16791 0.7666,-0.33873 z m 22.10869,-1.99343 1.15133,-2.498511 1.47543,-0.55542 c 1.86061,-0.70042 3.92621,-1.14467 4.42765,-0.95225 0.21187,0.0813 0.46052,0.52693 0.55257,0.99027 0.092,0.46335 0.45601,1.7906 0.80882,2.949441 0.77924,2.55951 0.39148,2.57571 5.79807,-0.242251 2.8736,-1.49775 3.90418,-2.15688 3.90418,-2.49703 0,-0.70758 -1.88483,-5.78882 -2.62258,-7.07011 -0.35989,-0.62504 -0.6557,-1.52562 -0.65738,-2.0013 -0.002,-0.47568 -0.56276,-2.57806 -1.24686,-4.67195 -0.68409,-2.0939 -1.42967,-4.71622 -1.65682,-5.82739 -0.49487,-2.42072 -0.95576,-7.34183 -0.7487,-7.99422 0.12691,-0.39986 0.004,-0.46581 -0.86489,-0.46581 -0.59654,0 -1.40786,0.23333 -1.97419,0.56775 -0.77238,0.4561 -1.33393,0.56588 -2.85549,0.55828 -1.77401,-0.009 -3.83912,-0.20556 -5.30822,-0.50557 -1.11283,-0.22726 -1.47527,0.32381 -1.91723,2.91507 -0.22505,1.31952 -0.74369,3.47872 -1.15251,4.79823 -0.40883,1.31951 -0.84313,2.85368 -0.9651,3.40926 -0.39177,1.78446 -4.17402,12.30001 -5.24696,14.5878 -0.78329,1.67018 -0.96418,2.27648 -0.73703,2.47033 0.8463,0.72224 3.75706,2.261951 3.99644,2.114001 0.15147,-0.0936 0.36109,-0.0315 0.46583,0.13791 0.15331,0.24807 3.49157,2.086 4.07114,2.24143 0.0831,0.0223 0.66926,-1.08378 1.3025,-2.45796 z m 35.23815,2.10869 c 4.17478,-0.83605 6.39187,-2.626251 7.41201,-5.984841 1.12497,-3.7037 0.19098,-7.80394 -2.31068,-10.14395 -1.46375,-1.36917 -4.24938,-2.79835 -5.8704,-3.01184 -1.55423,-0.20469 -2.94611,-0.92642 -3.91516,-2.03009 -1.04705,-1.19253 -1.25853,-1.92191 -0.67993,-2.345 1.33203,-0.974 3.87282,-0.64547 7.14546,0.92393 1.15919,0.55589 2.20049,0.95331 2.314,0.88316 0.11352,-0.0701 0.28671,-0.60994 0.38489,-1.19952 0.0982,-0.58958 0.32104,-1.46971 0.49527,-1.95585 0.17423,-0.48613 0.52368,-2.00565 0.77654,-3.37669 0.54734,-2.96766 0.62856,-2.8436 -2.5109,-3.83536 -5.30132,-1.67468 -10.16331,-1.12378 -13.81648,1.56553 -0.85208,0.62726 -1.77946,1.18482 -2.06084,1.23901 -0.69023,0.13292 -0.71826,0.17592 -0.8746,1.34157 -0.082,0.61153 -0.37535,1.24093 -0.73638,1.58011 -0.73357,0.68915 -0.74896,1.321 -0.0952,3.90768 0.70372,2.78427 2.05203,5.39187 3.71887,7.19226 1.73758,1.8768 2.82555,2.45644 5.74286,3.05964 2.52445,0.52197 3.39988,1.11547 3.86085,2.61747 0.31122,1.01402 0.12233,1.19 -1.72194,1.60438 -1.4423,0.32407 -3.20279,-0.023 -5.28591,-1.04214 -0.90342,-0.44198 -1.81305,-0.78094 -2.0214,-0.75324 -0.20834,0.0277 -0.964,-0.25676 -1.67924,-0.63212 -1.57001,-0.82395 -1.99608,-0.61888 -2.25139,1.08365 -0.092,0.61367 -0.30413,1.11577 -0.47134,1.11577 -0.34552,0 -1.0748,2.13061 -1.30558,3.81429 l -0.15447,1.127 1.22638,0.66269 c 4.81521,2.601971 10.03544,3.523571 14.68468,2.592501 z m 27.42074,-0.17145 c 0.40081,-0.63787 -0.1057,-1.01683 -1.33637,-0.99985 -0.94649,0.0131 -1.03304,-0.0412 -1.06048,-0.66442 l -0.0299,-0.678651 -0.15953,0.736781 c -0.0877,0.40523 -0.29522,0.78191 -0.46106,0.83708 -0.40276,0.13397 -0.90416,-1.782511 -0.78721,-3.008871 0.0506,-0.53026 0.017,-0.96411 -0.0747,-0.96411 -0.50476,0 -0.64577,3.231631 -0.19717,4.518501 l 0.2809,0.80579 1.77608,-0.0736 c 1.35158,-0.056 1.84141,-0.17759 2.0494,-0.50862 z m 25.34909,-0.16983 c 1.1058,-0.43723 1.32582,-0.46197 1.32582,-0.1491 0,0.53303 0.47437,0.47748 4.16688,-0.48794 5.15929,-1.348921 5.47425,-1.546921 4.98508,-3.133791 -2.22427,-7.21548 -2.44765,-8.24987 -1.72145,-7.9712 0.52162,0.20016 0.82454,-0.53872 1.13451,-2.76734 0.40984,-2.94662 0.36711,-3.95181 -0.16813,-3.95538 -0.54972,-0.004 -10.25581,1.55382 -10.38501,1.66643 -0.12968,0.11303 -1.0187,4.50525 -0.92987,4.59408 0.0394,0.0394 0.6552,0.1407 1.36852,0.22518 0.99396,0.11772 1.29693,0.25423 1.29693,0.58436 0,0.88941 -2.03573,2.02427 -3.63116,2.02427 -0.78731,0 -0.9244,-0.11335 -1.45079,-1.19956 -1.08569,-2.24032 -0.91543,-7.5737 0.33453,-10.47931 0.48774,-1.13379 1.70242,-2.46327 2.25056,-2.46327 0.13327,0 0.70546,0.73868 1.27153,1.6415 0.56606,0.90283 1.04922,1.6415 1.07366,1.6415 0.0244,0 1.00613,-0.40482 2.18151,-0.89961 1.17537,-0.49478 2.76207,-1.13412 3.526,-1.42074 0.76393,-0.28662 1.62468,-0.73515 1.91277,-0.99674 0.2881,-0.26158 0.60062,-0.3988 0.69448,-0.30493 0.31848,0.31848 0.1726,-0.43988 -0.24081,-1.25188 -1.2418,-2.43905 -3.13149,-4.58258 -4.76555,-5.40569 -0.69448,-0.34983 -1.62846,-0.9105 -2.07551,-1.24595 -0.57543,-0.43177 -0.99551,-0.56404 -1.43837,-0.45289 -0.37749,0.0947 -0.83675,0.009 -1.15813,-0.21603 -0.67214,-0.47079 -1.58558,-0.27981 -4.0749,0.85197 -5.28742,2.40396 -6.95265,4.27409 -8.46612,9.50787 -0.51283,1.77345 -0.6662,2.97217 -0.77154,6.0305 -0.18822,5.46403 0.48645,8.50836 2.6458,11.93882 0.95183,1.51212 3.1924,3.815811 3.71127,3.815811 0.18392,0 0.82978,0.23254 1.43526,0.51675 1.37945,0.64752 3.98625,0.54359 5.96223,-0.23769 z m 47.79457,-8.107741 c 0.002,-4.96401 0.16338,-11.10295 0.37565,-14.2684 0.20491,-3.05572 0.37429,-6.47914 0.37639,-7.60761 l 0.004,-2.05178 -2.08344,-0.1587 c -1.14589,-0.0873 -2.56544,-0.22703 -3.15455,-0.31053 -0.83003,-0.11765 -1.10473,-0.0642 -1.22046,0.23736 -0.0821,0.21405 -0.28199,0.34248 -0.44411,0.2854 -0.16213,-0.0571 -1.09027,-0.0211 -2.06254,0.0799 -2.04178,0.21217 -1.90513,-0.23199 -1.2603,4.09638 0.56033,3.76111 0.39064,13.70665 -0.36193,21.2132 -0.28547,2.84737 -0.52022,5.363571 -0.52169,5.591551 -0.003,0.54332 1.7133,1.22584 3.09605,1.23084 0.5875,0.002 1.23864,0.1176 1.44698,0.25661 0.21117,0.14088 1.57991,0.22299 3.09292,0.18553 l 2.7141,-0.0672 0.003,-8.712571 z m 19.55511,8.452001 c 0.32427,-0.24527 1.09791,-0.37078 2.28547,-0.37078 1.09843,0 1.91856,-0.12253 2.11292,-0.31567 0.20227,-0.201 1.06921,-0.31568 2.38649,-0.31568 l 2.06882,0 0.0745,-1.845221 c 0.0519,-1.28542 -0.0439,-2.08249 -0.31567,-2.62731 -0.45551,-0.9131 -0.47771,-1.04095 -0.14502,-0.83534 0.48096,0.29725 0.59221,-1.29728 0.31615,-4.53135 -0.16776,-1.96542 -0.39388,-3.32114 -0.56336,-3.37763 -0.15571,-0.0519 -0.38659,-0.36655 -0.51307,-0.69923 -0.12649,-0.33267 -0.34643,-0.60486 -0.48876,-0.60486 -0.33361,0 -0.33919,1.68827 -0.006,1.89404 0.14383,0.0889 0.25254,1.36352 0.25254,2.96118 0,3.07432 -0.24012,3.43193 -0.51222,0.76285 l -0.17368,-1.70373 -0.0358,1.54469 c -0.0249,1.0713 0.12978,1.94325 0.50461,2.8452 0.50248,1.20909 0.51135,1.33268 0.12627,1.75819 -0.2715,0.30001 -0.4142,0.90759 -0.4142,1.76362 0,1.4835 -0.30645,1.697351 -0.6953,0.4852 l -0.26329,-0.82075 -0.0258,0.82075 c -0.0305,0.97066 -0.45399,1.088681 -0.67969,0.1894 -0.0872,-0.34724 -0.23873,-0.63135 -0.33685,-0.63135 -0.0981,0 -0.37477,-0.41181 -0.61479,-0.91515 -0.24002,-0.50333 -0.49673,-0.85481 -0.57047,-0.78108 -0.0737,0.0737 0.0532,0.49612 0.28198,0.93862 0.22883,0.4425 0.3454,0.8752 0.25905,0.96155 -0.33857,0.33857 -1.08356,-0.45551 -2.63397,-2.8075 -0.88952,-1.34942 -1.6661,-2.40469 -1.72573,-2.34506 -0.0596,0.0596 0.12835,0.6437 0.41775,1.29794 0.58948,1.33261 0.62145,1.46654 0.3032,1.26984 -0.12264,-0.0758 0.0451,0.51412 0.37281,1.31092 0.73231,1.78068 0.75203,2.2528 0.10271,2.45888 -0.2778,0.0882 -0.50508,0.266291 -0.50508,0.395831 0,0.12953 -0.14205,0.23512 -0.31567,0.23464 -0.17362,-5.1e-4 -1.3628,-2.074461 -2.64261,-4.608821 -2.29963,-4.55387 -5.3984,-10.16145 -5.8831,-10.64615 -0.16496,-0.16496 -0.24999,0.0299 -0.24999,0.57303 0,0.45267 0.0948,0.76445 0.21062,0.69286 0.11585,-0.0716 0.47148,0.49916 0.79029,1.26836 l 0.57966,1.39853 -0.43096,3.45183 c -0.44984,3.60303 -1.29556,8.111951 -1.56787,8.358971 -0.0871,0.079 -0.0921,-0.28509 -0.0113,-0.80906 0.18373,-1.190241 -0.21034,-1.016931 -0.43719,0.19227 -0.1794,0.95627 -0.17776,0.95457 -0.71735,0.7475 -0.30832,-0.11831 -0.31524,-0.35488 -0.0462,-1.578361 0.42346,-1.92548 0.6323,-4.63329 0.34359,-4.45486 -0.12573,0.0777 -0.22714,0.67438 -0.22536,1.32594 0.005,1.78367 -0.76487,4.829061 -1.18029,4.669651 -0.186,-0.0714 -0.34587,-0.43013 -0.35527,-0.79723 -0.0169,-0.662211 -0.0192,-0.662991 -0.29113,-0.0992 -0.30803,0.6387 -0.5124,0.68741 -1.24319,0.2963 -0.28511,-0.15258 -0.44816,-0.42802 -0.37155,-0.627651 0.11205,-0.292 0.0488,-0.30098 -0.35292,-0.0501 -0.82246,0.513641 -1.16083,-0.0668 -0.77998,-1.338 0.50493,-1.6853 0.99418,-4.53511 0.75298,-4.38605 -0.12237,0.0756 -0.22249,0.39673 -0.22249,0.71356 0,0.79318 -0.96506,4.50083 -1.24416,4.77993 -0.67975,0.679751 -0.61981,-0.46351 0.25682,-4.89844 1.23991,-6.2728 1.48379,-8.37013 1.52496,-13.11425 l 0.034,-3.91434 0.309,2.27284 0.309,2.27285 0.0442,-1.76777 c 0.0685,-2.7385 0.60253,-1.38627 0.79782,2.0203 l 0.15926,2.77792 0.041,-2.50138 c 0.0407,-2.48435 0.0444,-2.49828 0.54605,-2.0443 1.04598,0.9466 0.46032,-0.25199 -2.20392,-4.51037 -2.22451,-3.55556 -2.45588,-4.06949 -1.437,-3.19205 0.51672,0.445 0.6032,0.4764 0.29298,0.10639 -0.5514,-0.65767 -0.55789,-1.01732 -0.0221,-1.22293 0.25608,-0.0983 0.66159,0.0625 1.04657,0.41492 l 0.6285,0.57535 -0.44943,-0.70236 c -0.58,-0.9064 -0.25006,-1.25197 0.41082,-0.43028 0.48761,0.60626 0.49491,0.60754 0.2148,0.0377 -0.45363,-0.92282 -0.11318,-0.91818 0.5202,0.007 0.75634,1.10489 1.22887,1.46663 1.91579,1.46663 0.77659,0 0.9566,-0.39452 0.48635,-1.0659 -0.48935,-0.69865 -0.49742,-0.9544 -0.0301,-0.9544 0.19983,0 0.78526,0.68357 1.30095,1.51905 0.51569,0.83549 0.99008,1.4666 1.0542,1.40248 0.0641,-0.0641 -0.28658,-0.77575 -0.77934,-1.58141 -0.78873,-1.28956 -0.84663,-1.4924 -0.48396,-1.69536 0.24708,-0.13828 0.44261,-0.13859 0.48855,-7.9e-4 0.40927,1.22756 2.75857,4.80122 3.90782,5.94439 0.78767,0.78351 1.68433,1.92063 1.99257,2.52692 0.70547,1.38761 3.24739,5.22697 3.60829,5.45001 0.1488,0.092 0.0135,-0.26844 -0.30066,-0.80092 -0.31417,-0.53247 -0.57245,-1.26421 -0.57396,-1.62608 -0.004,-1.01506 0.53634,-10.46802 0.60204,-10.52758 0.032,-0.029 0.88202,0.007 1.88902,0.081 1.68829,0.12331 1.8309,0.1778 1.8309,0.69957 0,0.31122 0.0763,0.94723 0.1695,1.41337 0.16801,0.84002 0.17434,0.83304 0.71598,-0.78918 0.41864,-1.25383 0.65961,-1.63671 1.03006,-1.63671 0.37775,0 0.51478,0.23386 0.6262,1.0686 0.20621,1.54502 0.48872,1.62558 0.48872,0.13937 0,-1.1027 0.0754,-1.29505 0.55718,-1.42103 0.30645,-0.0801 0.5911,-0.11179 0.63256,-0.0703 0.0415,0.0415 -0.0372,0.66884 -0.17473,1.39419 -0.13756,0.72535 -0.37673,3.72685 -0.53149,6.67 -0.15475,2.94315 -0.38808,5.41744 -0.5185,5.49841 -0.29977,0.18611 0.0927,1.27073 0.61733,1.70616 0.33433,0.27746 0.40075,0.0696 0.528,-1.65188 0.0801,-1.0831 0.37764,-4.4694 0.66129,-7.52511 0.60575,-6.5255 0.61368,-6.91749 0.14369,-7.09784 -0.19664,-0.0755 -1.66492,-0.008 -3.26285,0.14896 -2.15161,0.21192 -3.31046,0.21269 -4.46693,0.003 -0.85888,-0.15574 -1.60164,-0.24314 -1.65057,-0.19421 -0.0489,0.0489 -0.28494,2.27209 -0.52448,4.94036 -0.23953,2.66827 -0.51869,4.8514 -0.62035,4.8514 -0.10166,0 -0.48226,-0.76709 -0.84579,-1.70463 -0.75561,-1.94876 -1.04164,-2.3805 -1.8692,-2.82141 -0.73109,-0.38951 -1.44796,-1.98766 -1.67968,-3.74459 l -0.17486,-1.32582 -0.92657,0 c -0.71776,0 -0.98275,-0.12772 -1.17586,-0.56674 -0.37299,-0.84796 -1.04239,-0.82798 -2.05528,0.0613 -0.67519,0.59283 -1.06164,0.75848 -1.50809,0.64643 -0.36551,-0.0917 -0.60026,-0.0396 -0.60026,0.1334 0,0.15623 -0.33758,-0.0773 -0.75018,-0.51901 l -0.75018,-0.80307 -1.08072,0.66517 c -0.5944,0.36584 -1.5637,0.90831 -2.15401,1.20549 -0.59031,0.29718 -1.07329,0.67564 -1.07329,0.84103 0,0.16538 0.5398,1.02346 1.19956,1.90684 l 1.19956,1.60615 -0.0131,6.18718 c -0.014,6.61945 -0.33357,9.4075 -1.76074,15.36191 -0.3439,1.43481 -0.62528,2.74729 -0.62528,2.916631 0,0.45347 5.33481,1.87462 7.74913,2.06432 l 2.06702,0.1624 0.2718,-1.00939 c 0.14949,-0.55517 0.55245,-2.912771 0.89547,-5.239121 0.34301,-2.32635 0.6644,-4.27046 0.71419,-4.32026 0.11587,-0.11587 4.00173,7.98343 4.59247,9.572091 0.4906,1.31933 0.53681,1.34947 1.24646,0.81272 z m 25.07927,-0.34426 c 1.10581,-0.43723 1.32583,-0.46197 1.32583,-0.1491 0,0.20631 0.19887,0.37406 0.44194,0.37277 0.66265,-0.004 7.05208,-1.69733 7.81406,-2.07147 1.25726,-0.617311 1.26428,-0.910551 0.10536,-4.401971 -1.24258,-3.74347 -1.59433,-5.74686 -0.96672,-5.50602 0.24781,0.0951 0.5001,-0.0441 0.67616,-0.37309 0.34548,-0.64553 0.92962,-6.00298 0.68157,-6.25103 -0.15932,-0.15932 -10.50163,1.3639 -10.74379,1.58235 -0.14174,0.12786 -1.03208,4.48781 -0.93605,4.58384 0.0446,0.0446 0.66468,0.15018 1.37799,0.23466 0.99396,0.11772 1.29694,0.25423 1.29694,0.58436 0,0.88941 -2.03573,2.02427 -3.63116,2.02427 -0.78601,0 -0.92616,-0.11515 -1.46008,-1.19956 -1.08302,-2.19968 -0.90675,-7.57229 0.34382,-10.47931 0.48264,-1.12193 1.70104,-2.46327 2.23751,-2.46327 0.12608,0 0.69576,0.73868 1.26595,1.6415 0.57018,0.90283 1.05921,1.6415 1.08672,1.6415 0.0275,0 1.0117,-0.40482 2.18707,-0.89961 1.17538,-0.49478 2.76208,-1.13412 3.52601,-1.42074 0.76393,-0.28662 1.62467,-0.73515 1.91277,-0.99674 0.2881,-0.26158 0.60061,-0.3988 0.69448,-0.30493 0.44324,0.44323 0.0882,-0.67785 -0.5725,-1.80755 -1.3867,-2.3712 -2.97489,-4.12332 -4.37132,-4.82252 -0.72888,-0.36495 -1.691,-0.938 -2.13805,-1.27345 -0.58555,-0.43936 -0.99248,-0.5648 -1.45537,-0.44862 -0.38464,0.0965 -0.8034,0.0278 -1.04324,-0.17127 -0.63152,-0.52412 -1.8032,-0.29436 -4.2599,0.83533 -5.28166,2.4287 -6.85615,4.20924 -8.37901,9.47548 -0.51284,1.77345 -0.6662,2.97217 -0.77155,6.0305 -0.19785,5.74401 0.64113,9.18656 3.06757,12.58691 1.09068,1.52845 2.83574,3.167721 3.37215,3.167721 0.13847,0 0.74714,0.23254 1.35262,0.51675 1.37945,0.64752 3.98625,0.54359 5.96222,-0.23769 z m 15.6631,0.45812 c 1.80926,-0.20175 2.97319,-0.1962 4.46043,0.0213 2.53646,0.37088 2.71386,0.21794 2.31084,-1.99235 -0.15078,-0.826921 -0.34732,-1.576321 -0.43676,-1.665331 -0.0894,-0.089 0.10943,-0.43388 0.44194,-0.76639 0.50684,-0.50685 0.60456,-0.85596 0.60456,-2.15995 l 0,-1.55538 -1.19956,0.21808 c -1.30337,0.23695 -6.39091,0.29521 -8.01808,0.0918 l -1.01016,-0.12627 0.0412,1.73931 c 0.0265,1.11927 0.15866,1.8119 0.37068,1.94294 0.26723,0.16515 0.25121,0.43293 -0.0848,1.41741 -0.22783,0.667591 -0.48502,1.639951 -0.57153,2.160811 -0.18364,1.10572 -0.38546,1.06171 3.0912,0.67404 l 0,10e-6 z m -138.91703,-3.199421 c -0.0635,-0.24307 -0.11549,-0.0442 -0.11549,0.44194 0,0.486131 0.052,0.685011 0.11549,0.44194 0.0635,-0.24307 0.0635,-0.64082 0,-0.88388 z m 87.18636,-1.43105 c 0.0245,-1.36598 -0.13588,-1.05803 -0.31789,0.6103 -0.099,0.90707 -0.0732,1.21372 0.0743,0.88388 0.12421,-0.27779 0.23382,-0.95018 0.24358,-1.49418 z m -84.41001,0.81548 c -0.0806,-0.20145 -0.14046,-0.14161 -0.15257,0.15258 -0.011,0.26622 0.0487,0.41537 0.13264,0.33146 0.0839,-0.0839 0.0929,-0.30174 0.0199,-0.48404 l 1e-5,0 z m 2.48348,-3.68014 c -0.2663,-1.41949 -0.44196,-0.73225 -0.22114,0.86518 0.14624,1.05791 0.22914,1.26629 0.29399,0.73899 0.0497,-0.4039 0.0169,-1.12578 -0.0728,-1.60417 z m 90.93786,-0.92456 c -1.16274,-2.48819 -2.91405,-5.55227 -3.07911,-5.3872 -0.0505,0.0505 0.7571,1.6766 1.79476,3.61348 1.03766,1.93687 1.95398,3.72902 2.03626,3.98256 0.0823,0.25353 0.20269,0.4079 0.26755,0.34304 0.0649,-0.0649 -0.3939,-1.2132 -1.01946,-2.55188 z m -92.16391,1.55846 c -0.0701,-0.17362 -0.12738,-0.0316 -0.12738,0.31568 0,0.34724 0.0573,0.48929 0.12738,0.31567 0.0701,-0.17362 0.0701,-0.45773 0,-0.63135 z m 85.86823,0.26832 c -0.0806,-0.20145 -0.14046,-0.14161 -0.15258,0.15258 -0.011,0.26622 0.0487,0.41537 0.13264,0.33146 0.0839,-0.0839 0.0929,-0.30174 0.0199,-0.48404 l 1e-5,0 z m 12.2025,-0.0797 c 0.17327,-0.20877 0.31503,-0.66299 0.31503,-1.00937 0,-0.90514 -0.50752,-1.38896 -1.45702,-1.38896 -0.76345,0 -0.91592,-0.1503 -1.98553,-1.95717 -0.63722,-1.07644 -1.16031,-1.85445 -1.16242,-1.7289 -0.006,0.32738 1.72848,3.38182 2.02329,3.56402 0.16044,0.0992 0.15828,0.3186 -0.006,0.62585 -0.37974,0.70955 -0.3087,1.20848 0.25186,1.76904 0.59758,0.59758 1.57859,0.6585 2.02095,0.12549 l 1e-5,0 z m -99.91983,-1.94878 c 0.19117,-0.11973 0.34712,0.0992 0.44905,0.63053 0.1377,0.71772 0.16009,0.67213 0.1894,-0.3856 0.0234,-0.84546 0.13787,-1.19956 0.38768,-1.19956 0.24615,0 0.38586,-0.40504 0.45729,-1.32582 0.0566,-0.72921 0.0703,-1.37043 0.0305,-1.42495 -0.19286,-0.26413 -0.87215,0.64557 -1.13354,1.51804 -0.27577,0.92042 -0.5682,1.22435 -0.7609,0.79079 -0.0463,-0.10417 -0.47131,-0.3932 -0.94448,-0.6423 -1.00631,-0.52976 -1.6317,-0.228 -1.08386,0.52298 0.17453,0.23925 0.38205,0.626 0.46115,0.85946 0.0791,0.23346 0.29437,0.3667 0.47838,0.29609 0.38494,-0.14772 0.86086,0.6172 0.9162,1.47255 0.0286,0.44233 0.0649,0.40043 0.14906,-0.17198 0.0612,-0.41624 0.24302,-0.83934 0.4041,-0.94023 z m 85.41802,-0.13515 c -0.15208,-0.15207 -0.6613,1.08596 -0.63052,1.53294 0.0113,0.16458 0.18751,-0.0833 0.39152,-0.55089 0.204,-0.46757 0.31155,-0.90949 0.239,-0.98205 z m -88.11461,-0.37753 c -0.07,-0.17362 -0.12737,-0.0316 -0.12737,0.31567 0,0.34724 0.0573,0.48929 0.12737,0.31567 0.0701,-0.17362 0.0701,-0.45772 0,-0.63134 z m 104.72152,-1.27595 c -0.0867,-0.53427 -0.29565,-0.93376 -0.48841,-0.93376 -0.44037,0 -0.89815,-0.86869 -0.7126,-1.35224 0.10826,-0.28211 0.0137,-0.34425 -0.37098,-0.24366 l -0.5163,0.13501 0.52933,1.04612 c 0.62324,1.23173 1.49038,2.50239 1.61956,2.37322 0.05,-0.05 0.0228,-0.51113 -0.0606,-1.02469 z m 34.99991,0.46423 c 0.5365,-0.27744 0.92712,-0.30897 1.56415,-0.12627 0.46699,0.13393 1.54949,0.24351 2.40554,0.24351 l 1.55646,0 0.14908,-2.46225 c 0.34775,-5.74392 0.72073,-9.70611 1.15892,-12.31123 0.257,-1.52786 0.59924,-3.90087 0.76054,-5.27336 0.39442,-3.35601 0.38544,-3.36491 -3.04617,-3.0173 -1.41877,0.14372 -3.02592,0.16862 -3.60789,0.0559 -0.5772,-0.11179 -1.9099,-0.20822 -2.96157,-0.21426 l -1.91212,-0.011 0.43603,3.72493 c 0.49022,4.18793 1.1413,12.01297 1.38681,16.66752 0.16174,3.0663 0.16861,3.09359 0.77916,3.09359 0.33879,0 0.93776,-0.1664 1.33106,-0.36978 z m -42.66149,-0.33957 c 0,-0.11235 -0.17231,-0.42486 -0.38292,-0.69448 -0.35506,-0.45456 -0.3613,-0.43971 -0.0857,0.20427 0.29734,0.69486 0.46865,0.87405 0.46865,0.49021 z m -6.566,-3.97751 c 0,-0.21654 -0.11364,-0.32348 -0.25253,-0.23764 -0.1389,0.0858 -0.25254,0.26302 -0.25254,0.39372 0,0.13069 0.11364,0.23763 0.25254,0.23763 0.13889,0 0.25253,-0.17717 0.25253,-0.39371 z m 13.9389,-3.3874 c 0.90654,-2.27632 0.89648,-3.98204 -0.0312,-5.28481 -0.31807,-0.44668 -0.63512,-0.75533 -0.70457,-0.68588 -0.0695,0.0695 0.12494,0.47906 0.43197,0.91025 0.89972,1.26355 0.90545,2.36931 0.0254,4.90449 -0.4296,1.23757 -0.76562,2.48763 -0.7467,2.77792 0.0286,0.43884 0.0541,0.42256 0.15119,-0.0966 0.0643,-0.34341 0.45749,-1.47983 0.87387,-2.52538 z m -99.99641,2.11318 c 0.24693,-0.54195 0.22355,-0.79046 -0.13277,-1.41132 -0.23785,-0.41445 -0.3576,-0.87468 -0.26609,-1.02274 0.10901,-0.17639 0.0441,-0.19297 -0.18832,-0.0481 -0.19508,0.12162 -0.58198,0.25374 -0.85977,0.29362 -0.54363,0.078 -1.38896,0.94781 -1.38896,1.42913 0,0.73373 0.80114,1.41717 1.66123,1.41717 0.69762,0 0.93573,-0.13333 1.17468,-0.65778 z m 98.60145,-2.76848 c 0.17609,-0.68513 0.39383,-1.88775 0.48386,-2.67248 0.15427,-1.34457 0.12554,-1.45177 -0.49867,-1.86077 -0.54858,-0.35945 -0.73008,-0.3778 -1.05656,-0.10684 -1.36886,1.13605 -1.43685,3.50205 -0.15766,5.48716 0.52661,0.81721 0.8604,0.58716 1.22903,-0.84707 z m -8.40933,-0.93003 c -0.75637,-1.46398 -3.94177,-6.27479 -4.0699,-6.14666 -0.12025,0.12025 4.20092,6.96741 4.39706,6.96741 0.0533,0 -0.0939,-0.36933 -0.32716,-0.82075 z m 5.64469,-0.83021 c 0.035,-0.86314 0.34427,-2.08874 0.8119,-3.21773 0.74072,-1.7883 0.74321,-1.80892 0.12877,-1.06595 -0.7827,0.9464 -1.37605,2.87182 -1.37605,4.46525 0,1.684 0.36587,1.53142 0.43538,-0.18157 z m -11.7996,-0.24307 c 0,-0.20835 -0.11364,-0.37881 -0.25254,-0.37881 -0.13889,0 -0.25254,0.17046 -0.25254,0.37881 0,0.20834 0.11365,0.3788 0.25254,0.3788 0.1389,0 0.25254,-0.17046 0.25254,-0.3788 z m 0.85594,-1.19956 c -0.77287,-1.3258 -2.69757,-4.23001 -2.80334,-4.23001 -0.072,0 0.0347,0.25569 0.23715,0.56821 0.20248,0.31251 0.85077,1.33529 1.44064,2.27284 0.58988,0.93755 1.12584,1.70463 1.19104,1.70463 0.0652,0 0.0357,-0.14205 -0.0655,-0.31567 z m 3.43721,-2.96732 c -0.84054,-1.25007 -1.60488,-2.27285 -1.69852,-2.27285 -0.0937,0 -0.0339,0.13638 0.13278,0.30305 0.37755,0.37755 0.39942,0.79648 0.0296,0.56795 -0.15037,-0.0929 -0.0906,0.18446 0.13275,0.61644 0.41774,0.80781 0.74331,1.08104 0.48451,0.4066 -0.28392,-0.73987 0.10218,-0.35863 1.15091,1.13642 1.65132,2.35413 1.47649,1.7834 -0.23208,-0.75761 z m -87.1199,0.0631 c 0.66804,-1.01741 0.68716,-1.08452 0.12592,-0.44194 -0.71495,0.81855 -1.23463,1.64149 -1.03658,1.64149 0.0677,0 0.47746,-0.5398 0.91066,-1.19955 z m 94.94047,-0.59402 c 0.43605,-0.70868 0.75831,-1.45739 0.71614,-1.6638 -0.0422,-0.20641 -0.44496,0.37342 -0.89508,1.2885 -0.45011,0.91509 -0.77238,1.6638 -0.71614,1.6638 0.0562,0 0.45902,-0.57983 0.89508,-1.2885 z m 2.706,0.23099 c -0.0806,-0.20145 -0.14045,-0.14161 -0.15257,0.15258 -0.011,0.26622 0.0487,0.41537 0.13264,0.33146 0.0839,-0.0839 0.0929,-0.30174 0.0199,-0.48404 l 1e-5,0 z m 2.32698,-0.25357 c -0.16292,-0.3044 -0.38443,-0.8442 -0.49226,-1.19956 -0.13038,-0.42966 -0.20332,-0.49385 -0.21776,-0.19161 -0.0222,0.46497 0.64552,1.94463 0.87755,1.94463 0.0708,0 -0.005,-0.24906 -0.16753,-0.55346 z m -15.51952,-0.76542 c 0.58421,-0.83408 0.48668,-1.63863 -0.25779,-2.12643 -0.85431,-0.55976 -1.89941,-0.21748 -2.2331,0.73136 -0.20075,0.57083 -0.14098,0.79318 0.35519,1.32133 0.73746,0.78499 1.61627,0.81533 2.1357,0.0737 z m -83.16479,-0.38575 c 0.31413,-0.40054 0.3052,-0.40947 -0.0953,-0.0954 -0.42067,0.32991 -0.55445,0.53729 -0.3466,0.53729 0.0524,0 0.25132,-0.19887 0.44194,-0.44194 z m 96.60987,-0.36302 c -0.0806,-0.20146 -0.14046,-0.14162 -0.15257,0.15257 -0.011,0.26622 0.0487,0.41537 0.13264,0.33146 0.0839,-0.0839 0.0929,-0.30173 0.0199,-0.48403 l 1e-5,0 z m -107.86867,-0.67194 c -0.39885,-0.39049 -0.40537,-0.37094 -0.10199,0.30598 0.17824,0.39772 0.36997,0.58543 0.42607,0.41714 0.0561,-0.16829 -0.0897,-0.49369 -0.32408,-0.72312 z m 14.03697,-0.354 c 0.27454,-0.51524 0.2636,-0.5359 -0.11738,-0.22162 -0.23109,0.19063 -0.42016,0.44632 -0.42016,0.56821 0,0.38575 0.22442,0.24105 0.53754,-0.34659 z m 75.47644,-0.28476 c 0,-0.0524 -0.19887,-0.25131 -0.44194,-0.44194 -0.40054,-0.31412 -0.40947,-0.30519 -0.0953,0.0953 0.32991,0.42067 0.53729,0.55445 0.53729,0.3466 z m 1.12429,-0.68573 c -0.22215,-0.4296 -0.46144,-0.72356 -0.53174,-0.65326 -0.12651,0.12652 0.63205,1.43434 0.83194,1.43434 0.057,0 -0.078,-0.35149 -0.3002,-0.78108 z m 19.00484,-0.5418 c -0.0604,-0.31413 -0.11213,-0.11659 -0.11493,0.439 -0.003,0.55558 0.0466,0.8126 0.10983,0.57115 0.0632,-0.24144 0.0655,-0.69601 0.005,-1.01015 l 0,0 z"
         id="path5730"
         inkscape:connector-curvature="0" />
    </g>
  </g>
</svg>
