<?xml version="1.0" encoding="UTF-8" standalone="no"?>
<svg
   xmlns:dc="http://purl.org/dc/elements/1.1/"
   xmlns:cc="http://creativecommons.org/ns#"
   xmlns:rdf="http://www.w3.org/1999/02/22-rdf-syntax-ns#"
   xmlns:svg="http://www.w3.org/2000/svg"
   xmlns="http://www.w3.org/2000/svg"
   xmlns:sodipodi="http://sodipodi.sourceforge.net/DTD/sodipodi-0.dtd"
   xmlns:inkscape="http://www.inkscape.org/namespaces/inkscape"
   width="100%"
   height="100%"
   viewBox="0 0 800 800"
   version="1.1"
   xml:space="preserve"
   style="fill-rule:evenodd;clip-rule:evenodd;stroke-linejoin:round;stroke-miterlimit:1.41421;"
   id="svg2"
   inkscape:version="0.91 r"
   sodipodi:docname="info.svg"><metadata
     id="metadata25"><rdf:RDF><cc:Work
         rdf:about=""><dc:format>image/svg+xml</dc:format><dc:type
           rdf:resource="http://purl.org/dc/dcmitype/StillImage" /></cc:Work></rdf:RDF></metadata><defs
     id="defs23" /><sodipodi:namedview
     pagecolor="#ffffff"
     bordercolor="#666666"
     borderopacity="1"
     objecttolerance="10"
     gridtolerance="10"
     guidetolerance="10"
     inkscape:pageopacity="0"
     inkscape:pageshadow="2"
     inkscape:window-width="1920"
     inkscape:window-height="1028"
     id="namedview21"
     showgrid="false"
     inkscape:zoom="0.295"
     inkscape:cx="964.57728"
     inkscape:cy="393.22034"
     inkscape:window-x="0"
     inkscape:window-y="0"
     inkscape:window-maximized="1"
     inkscape:current-layer="g9" /><g
     transform="matrix(1.74664,0,0,1.74642,-252.1,-60.7251)"
     id="g4"><g
       id="Ebene1"><g
         id="g7"><g
           transform="matrix(3.48575,0,0,3.48575,-650.368,-420.328)"
           id="g9"><circle
             cx="293.685"
             cy="196.267"
             r="65.165"
             style="fill:#4988e2;fill-opacity:1"
             id="circle11" /><path
             d="m 357.24652,196.83996 a 63.232755,63.240719 0 0 1 -126.4655,0 63.232755,63.240719 0 1 1 126.4655,0 z"
             id="D"
             inkscape:connector-curvature="0"
             style="fill:none;stroke:#0f559c;stroke-width:4.40552998;stroke-opacity:1" /></g><g
           transform="matrix(3.08698,0,0,3.08698,-779.162,-550.57)"
           id="g13"><path
             d="M383.686,244.808L383.686,311.2L393.411,311.2L393.411,318.84L354.496,318.84L354.496,311.2L363.406,311.2L363.406,255.222L354.496,251.655L354.496,244.808L383.686,244.808Z"
             style="fill:white;"
             id="path15" /></g><g
           transform="matrix(3.22886,0,0,3.22886,-797.323,-547.116)"
           id="g17"><circle
             cx="362.95"
             cy="211.755"
             r="11.84"
             style="fill:white;"
             id="circle19" /></g></g></g></g></svg>