<?xml version="1.0" encoding="UTF-8" standalone="no"?>
<!-- Created with Inkscape (http://www.inkscape.org/) -->

<svg
   xmlns:dc="http://purl.org/dc/elements/1.1/"
   xmlns:cc="http://creativecommons.org/ns#"
   xmlns:rdf="http://www.w3.org/1999/02/22-rdf-syntax-ns#"
   xmlns:svg="http://www.w3.org/2000/svg"
   xmlns="http://www.w3.org/2000/svg"
   xmlns:sodipodi="http://sodipodi.sourceforge.net/DTD/sodipodi-0.dtd"
   xmlns:inkscape="http://www.inkscape.org/namespaces/inkscape"
   width="44mm"
   height="38mm"
   viewBox="0 0 155.90549 134.64563"
   id="svg4189"
   version="1.1"
   inkscape:version="0.91 r"
   sodipodi:docname="logo.svg">
  <defs
     id="defs4191" />
  <sodipodi:namedview
     id="base"
     pagecolor="#ffffff"
     bordercolor="#666666"
     borderopacity="1.0"
     inkscape:pageopacity="0.0"
     inkscape:pageshadow="2"
     inkscape:zoom="1.979899"
     inkscape:cx="-59.61707"
     inkscape:cy="198.12116"
     inkscape:document-units="px"
     inkscape:current-layer="layer1"
     showgrid="false"
     inkscape:window-width="1920"
     inkscape:window-height="1028"
     inkscape:window-x="0"
     inkscape:window-y="0"
     inkscape:window-maximized="1" />
  <metadata
     id="metadata4194">
    <rdf:RDF>
      <cc:Work
         rdf:about="">
        <dc:format>image/svg+xml</dc:format>
        <dc:type
           rdf:resource="http://purl.org/dc/dcmitype/StillImage" />
        <dc:title></dc:title>
      </cc:Work>
    </rdf:RDF>
  </metadata>
  <g
     inkscape:label="Calque 1"
     inkscape:groupmode="layer"
     id="layer1"
     transform="translate(0,-917.71657)">
    <path
       id="path3351"
       d="m 54.48024,1022.1392 c -3.48851,0.5536 -5.63529,0.8699 -6.35089,0.949 -6.61924,7.5917 -13.32792,13.2855 -20.30496,17.1604 12.79123,-3.3214 23.61458,-9.4896 32.55949,-18.663 -1.34173,-0.079 -3.39907,0.1582 -5.90364,0.5536 z"
       inkscape:connector-curvature="0"
       style="fill:#9a5528;fill-opacity:1" />
    <path
       id="path3353"
       d="m 105.30329,995.76782 c -0.48367,0.38056 -1.9243,1.58969 -4.33227,3.55996 -1.766535,1.44032 -3.128285,2.57482 -3.885965,3.52382 13.625585,-1.3079 25.486785,-5.27243 35.604375,-11.75885 -7.47501,2.517 -16.54422,4.07054 -27.38614,4.67507 z"
       inkscape:connector-curvature="0"
       style="fill:#9a5528;fill-opacity:1" />
    <path
       id="path3355"
       d="m 131.19533,983.18641 c -8.27551,0.22673 -15.64411,-1.36035 -22.33253,-4.87461 l -0.9069,-1.02027 c 0,-0.11336 0,-0.11336 0,-0.22672 -0.22673,-2.1539 -0.22673,-3.28753 -0.22673,-3.40089 0.22673,-0.56682 0.68018,-1.13364 1.47372,-1.47372 0.22673,-0.11337 0.56682,-0.22673 1.13363,-0.45346 0.56682,-0.22672 1.02027,-0.34009 1.247,-0.45345 1.70044,-0.68018 2.49398,-1.02027 2.38062,-0.9069 0.34009,-0.11337 0.79354,-0.22673 1.36036,-0.22673 0.68018,-0.11336 1.13363,-0.11336 1.36035,-0.22673 0.79355,-0.22672 1.47372,-0.79354 2.1539,-1.70044 0.68018,-0.79354 0.90691,-1.58709 0.90691,-2.26726 0,-0.90691 -0.68018,-1.58709 -1.81381,-2.04054 -0.34009,-0.11336 -0.90691,-0.34009 -1.47372,-0.45345 -0.79354,-0.22673 -1.247,-0.34009 -1.36036,-0.34009 -2.60735,-0.79354 -4.19443,-1.47372 -4.76125,-1.81381 -0.11336,-0.34009 -0.22672,-0.68018 -0.22672,-0.79354 -0.68018,0.22672 -1.247,0.34009 -1.92718,0.45345 -0.79354,-0.45345 -3.74098,-1.70045 -8.955675,-3.74098 -3.40089,0.45345 -6.4617,0.22672 -9.06905,-0.68018 -1.24699,-2.04054 -1.81381,-4.19444 -1.92717,-6.12161 -0.68018,0.22673 -1.020275,1.247 -0.906915,2.83408 0,1.92717 -0.11336,3.17417 -0.34008,3.62762 -5.10134,-0.68018 -7.93542,-4.87461 -8.6156,-12.5833 -0.56681,0.56681 -0.9069,1.47372 -1.13363,2.94744 -0.11336,1.24699 -0.11336,2.60735 0.22673,4.08107 0,0.11336 0.11336,0.34009 0.22672,0.68018 0.11337,0.34008 0.11337,0.45345 0.22673,0.68017 0.11336,0.56682 0,0.90691 -0.34009,1.13363 -3.51426,-1.13363 -5.55479,-3.40089 -6.34833,-6.68842 -0.79355,-3.40089 -0.11337,-7.02851 2.04053,-10.99622 0.68018,-1.24699 2.60735,-3.85433 5.66816,-8.04877 -1.47372,0.68018 -3.17417,2.1539 -5.10134,4.3078 -0.22673,0.34009 -0.56682,0.79353 -1.02027,1.36035 -0.45345,0.68018 -0.79354,1.02027 -0.90691,1.24699 -0.79354,1.02027 -1.70044,1.70045 -2.49398,2.1539 -0.79354,-2.26726 -0.45346,-5.44142 0.79354,-9.63585 0.56681,-2.04054 1.70044,-4.64789 3.17416,-8.04878 -3.0608,2.72071 -5.10133,6.4617 -6.23497,11.22294 -1.02026,4.76124 -1.02026,9.97595 0.22673,15.53074 0.34009,1.81381 0.56682,2.83408 0.56682,3.0608 0.11336,1.247 -0.22673,2.04054 -1.02027,2.26726 -0.79354,0.22673 -2.04054,-0.22672 -3.85435,-1.47372 -2.60735,-1.81381 -3.85434,-4.98797 -3.9677,-9.29577 0,-3.51426 0.68017,-6.80179 2.04053,-9.86258 -1.24699,1.47372 -2.26726,3.06079 -2.94744,4.8746 -0.11336,0.34009 -0.22673,0.79355 -0.45345,1.36036 -0.22673,0.68018 -0.34009,1.13363 -0.45345,1.47372 -0.45346,1.13363 -1.02027,1.92717 -1.70045,2.38063 -2.38062,-5.5548 -1.58708,-11.67639 2.1539,-18.25145 -2.38063,1.92717 -4.08107,4.64789 -4.87461,8.27549 -0.79355,3.74099 -0.56682,7.3686 0.79354,11.10959 0.22672,0.56681 0.68018,1.58708 1.58708,3.17416 0.68018,1.36036 1.13363,2.38063 1.24699,3.28753 -1.58708,-0.11336 -3.62761,-1.02026 -6.1216,-2.72071 0,0 -0.22673,-0.22673 -0.79354,-0.68018 -0.34009,-0.22673 -0.56682,-0.34009 -0.79355,-0.34009 1.92718,2.94744 4.87462,5.44143 8.84233,7.25524 2.04053,1.02027 6.00824,2.38062 11.56303,4.19443 6.80179,2.1539 10.65613,3.4009 11.56304,3.74098 3.0608,1.247 5.32806,2.26727 6.688425,3.17417 0.56681,0.34009 1.13363,0.79354 1.58708,1.247 -1.813815,7.3686 -5.101345,15.41737 -9.975955,24.14633 -1.81381,0.79354 -4.3078,1.92718 -7.82205,3.4009 -3.62762,1.58708 -6.12161,2.72071 -7.82206,3.40089 -2.72071,0.56681 -6.68842,1.81381 -11.78976,3.62762 -4.98797,1.70045 -8.95568,2.94745 -12.01649,3.51425 -5.32806,2.6073 -8.38886,5.6682 -9.29577,9.1824 l 0.56682,3.5143 c -1.58709,7.3686 -4.98798,14.1704 -10.42941,20.4054 -4.08107,4.7612 -10.08931,9.7492 -17.7980003,15.0773 1.58708,-0.2268 4.42116,-1.247 8.5022303,-3.1742 0.79354,-0.3401 1.81381,-0.6802 2.94744,-1.0203 1.13363,-0.3401 1.92717,-0.6802 2.49399,-0.9069 2.1539,-1.1336 4.08107,-2.1539 5.66815,-3.1742 4.08107,-2.4939 8.27551,-5.5547 12.58331,-9.2957 3.28752,-2.9475 6.91514,-6.4618 10.88285,-10.8829 0.68018,-0.6802 3.17417,-1.247 7.48197,-1.7005 5.2147,-0.4534 8.2755,-0.7935 9.52249,-1.1336 5.21471,-1.4737 7.59533,-2.2673 7.25524,-2.2673 2.94744,-1.587 12.12985,-2.6073 25.846795,-15.0773 0.34009,-0.6801 7.708685,-8.16209 8.728945,-8.16209 5.89488,-0.34009 10.99622,-0.79354 15.30402,-1.47372 5.66816,-0.90691 10.65613,-2.1539 15.19065,-3.74098 1.70045,-0.56682 3.74099,-1.36036 6.00825,-2.38063 0.56681,-0.22673 1.36036,-0.68018 2.26726,-1.36036 1.02027,-0.68017 1.92717,-1.24699 2.72071,-1.58708 4.08108,-1.92717 6.80179,-3.51426 7.93542,-4.53452 -8.84232,2.83407 -16.55101,4.19443 -22.78598,4.30779 z"
       inkscape:connector-curvature="0"
       style="fill:#e5ac86;fill-opacity:1" />
  </g>
</svg>
