<?xml version="1.0" encoding="UTF-8" standalone="no"?>
<!-- Created with Inkscape (http://www.inkscape.org/) -->

<svg
   xmlns:dc="http://purl.org/dc/elements/1.1/"
   xmlns:cc="http://creativecommons.org/ns#"
   xmlns:rdf="http://www.w3.org/1999/02/22-rdf-syntax-ns#"
   xmlns:svg="http://www.w3.org/2000/svg"
   xmlns="http://www.w3.org/2000/svg"
   xmlns:xlink="http://www.w3.org/1999/xlink"
   xmlns:sodipodi="http://sodipodi.sourceforge.net/DTD/sodipodi-0.dtd"
   xmlns:inkscape="http://www.inkscape.org/namespaces/inkscape"
   width="167.93974mm"
   height="34.681332mm"
   viewBox="0 0 595.06203 122.88661"
   id="svg2"
   version="1.1"
   inkscape:version="0.91 r"
   sodipodi:docname="title2.svg">
  <defs
     id="defs4">
    <linearGradient
       inkscape:collect="always"
       id="linearGradient5654">
      <stop
         style="stop-color:#9a5528;stop-opacity:1;"
         offset="0"
         id="stop5656" />
      <stop
         style="stop-color:#9a5528;stop-opacity:0;"
         offset="1"
         id="stop5658" />
    </linearGradient>
    <radialGradient
       inkscape:collect="always"
       xlink:href="#linearGradient5654"
       id="radialGradient5660"
       cx="-47.808453"
       cy="-158.10399"
       fx="-47.808453"
       fy="-158.10399"
       r="118.63542"
       gradientTransform="matrix(1,0,0,0.14136447,0,-135.7537)"
       gradientUnits="userSpaceOnUse" />
  </defs>
  <sodipodi:namedview
     id="base"
     pagecolor="#ffffff"
     bordercolor="#666666"
     borderopacity="1.0"
     inkscape:pageopacity="0.0"
     inkscape:pageshadow="2"
     inkscape:zoom="1.5695312"
     inkscape:cx="306.34421"
     inkscape:cy="77.575747"
     inkscape:document-units="px"
     inkscape:current-layer="g3349"
     showgrid="false"
     inkscape:window-width="1920"
     inkscape:window-height="1028"
     inkscape:window-x="0"
     inkscape:window-y="0"
     inkscape:window-maximized="1"
     inkscape:snap-text-baseline="false"
     fit-margin-top="1"
     fit-margin-right="1"
     fit-margin-bottom="1"
     fit-margin-left="1" />
  <metadata
     id="metadata7">
    <rdf:RDF>
      <cc:Work
         rdf:about="">
        <dc:format>image/svg+xml</dc:format>
        <dc:type
           rdf:resource="http://purl.org/dc/dcmitype/StillImage" />
        <dc:title></dc:title>
      </cc:Work>
    </rdf:RDF>
  </metadata>
  <g
     inkscape:label="Calque 1"
     inkscape:groupmode="layer"
     id="layer1"
     transform="translate(25.18499,-44.47814)">
    <g
       id="g3367"
       transform="translate(315.47795,189.05444)">
      <path
         id="path3337"
         d="m 160.8,246.4 c -0.2,-0.7 -0.9,-1.2 -1.7,-1 -0.7,0.2 -1.1,0.8 -1,1.5 0,-0.6 0.4,-1.1 1,-1.2 0.7,-0.2 1.3,0.2 1.5,0.9 0.1,0.6 -0.1,1.1 -0.6,1.4 0.6,-0.3 1,-0.9 0.8,-1.6"
         inkscape:connector-curvature="0"
         style="fill:#ca92c1" />
      <path
         id="path3339"
         d="m 159.8,248.5 c -0.9,0.2 -1.8,-0.3 -2,-1.1 -0.2,-0.8 0.2,-1.6 0.9,-2 -0.6,0.3 -0.9,1 -0.7,1.7 0.2,0.8 1.1,1.3 1.8,1 0.7,-0.2 1.1,-0.8 1.1,-1.5 0.2,0.9 -0.3,1.7 -1.1,1.9"
         inkscape:connector-curvature="0"
         style="fill:#c64d9b" />
      <g
         id="g3341">
        <path
           id="path3343"
           d="m 159.8,247.2 0,0 c 0,0 0,0 0,0 z"
           inkscape:connector-curvature="0"
           style="fill:#0697cc" />
        <path
           id="path3345"
           d="m 159.7,246.9 c 0,0 0,0 0,0 0,0 0,0 0,0 z"
           inkscape:connector-curvature="0"
           style="fill:#0697cc" />
        <path
           id="path3347"
           d="m 159.8,247.2 c 0.3,-0.1 0.4,-0.4 0.4,-0.4 0,0 -0.2,0 -0.5,0 0,0 0,0 0,0 0,0 0,0 0,0 0,-0.1 0.1,-0.2 0.1,-0.2 0,0 -0.1,0 -0.1,0 0,0 0,0 0,0 0,0 0,0 0,0 0.1,-0.3 0,-0.6 0,-0.6 0,0 -0.1,0 -0.1,0.1 0,-0.2 -0.1,-0.3 -0.1,-0.3 0,0 -0.4,0.5 -0.4,1 0,0 0,-0.1 -0.1,-0.1 0,-0.1 -0.1,-0.1 -0.3,0 -0.1,0 -0.2,0.1 -0.3,0.1 0.2,0 0.6,0.2 0.7,0.4 0,0 0,0 0,0 0,0.2 -0.1,0.4 -0.3,0.4 0.2,0 0.4,-0.2 0.4,-0.4 0,0 0,0 0,-0.1 0,0 0,-0.1 0,-0.1 0.2,0.3 0.4,0.3 0.6,0.2 0,0.1 0,0 0,0 l 0,0"
           inkscape:connector-curvature="0"
           style="fill:#c64d9b" />
      </g>
      <g
         inkscape:groupmode="layer"
         id="layer3"
         inkscape:label="fond" />
      <g
         id="g3349"
         transform="translate(-23.991123,46.467017)">
        <path
           id="path3351"
           d="m -267.40053,-96.938971 c -3.07729,0.48831 -4.97101,0.76735 -5.60225,0.83711 -5.83898,6.69679 -11.75685,11.71938 -17.91144,15.13753 11.28341,-2.92984 20.83092,-8.37098 28.72142,-16.462942 -1.18357,-0.06976 -2.99839,0.139516 -5.20773,0.488302 z"
           inkscape:connector-curvature="0"
           style="fill:#9a5528;fill-opacity:1" />
        <path
           id="path3353"
           d="m -222.56843,-120.20172 c -0.42666,0.3357 -1.69747,1.4023 -3.82159,3.14031 -1.5583,1.27057 -2.75953,2.2713 -3.4279,3.10843 12.01943,-1.15367 22.48245,-4.65091 31.40739,-10.37272 -6.59387,2.2203 -14.59401,3.59071 -24.1579,4.12398 z"
           inkscape:connector-curvature="0"
           style="fill:#9a5528;fill-opacity:1" />
        <path
           id="path3355"
           d="m -199.72851,-131.30005 c -7.3,0.2 -13.8,-1.2 -19.7,-4.3 l -0.8,-0.9 c 0,-0.1 0,-0.1 0,-0.2 -0.2,-1.9 -0.2,-2.9 -0.2,-3 0.2,-0.5 0.6,-1 1.3,-1.3 0.2,-0.1 0.5,-0.2 1,-0.4 0.5,-0.2 0.9,-0.3 1.1,-0.4 1.5,-0.6 2.2,-0.9 2.1,-0.8 0.3,-0.1 0.7,-0.2 1.2,-0.2 0.6,-0.1 1,-0.1 1.2,-0.2 0.7,-0.2 1.3,-0.7 1.9,-1.5 0.6,-0.7 0.8,-1.4 0.8,-2 0,-0.8 -0.6,-1.4 -1.6,-1.8 -0.3,-0.1 -0.8,-0.3 -1.3,-0.4 -0.7,-0.2 -1.1,-0.3 -1.2,-0.3 -2.3,-0.7 -3.7,-1.3 -4.2,-1.6 -0.1,-0.3 -0.2,-0.6 -0.2,-0.7 -0.6,0.2 -1.1,0.3 -1.7,0.4 -0.7,-0.4 -3.3,-1.5 -7.9,-3.3 -3,0.4 -5.7,0.2 -8,-0.6 -1.1,-1.8 -1.6,-3.7 -1.7,-5.4 -0.6,0.2 -0.9,1.1 -0.8,2.5 0,1.7 -0.1,2.8 -0.3,3.2 -4.5,-0.6 -7,-4.3 -7.6,-11.1 -0.5,0.5 -0.8,1.3 -1,2.6 -0.1,1.1 -0.1,2.3 0.2,3.6 0,0.1 0.1,0.3 0.2,0.6 0.1,0.3 0.1,0.4 0.2,0.6 0.1,0.5 0,0.8 -0.3,1 -3.1,-1 -4.9,-3 -5.6,-5.9 -0.7,-3 -0.1,-6.2 1.8,-9.7 0.6,-1.1 2.3,-3.4 5,-7.1 -1.3,0.6 -2.8,1.9 -4.5,3.8 -0.2,0.3 -0.5,0.7 -0.9,1.2 -0.4,0.6 -0.7,0.9 -0.8,1.1 -0.7,0.9 -1.5,1.5 -2.2,1.9 -0.7,-2 -0.4,-4.8 0.7,-8.5 0.5,-1.8 1.5,-4.1 2.8,-7.1 -2.7,2.4 -4.5,5.7 -5.5,9.9 -0.9,4.2 -0.9,8.8 0.2,13.7 0.3,1.6 0.5,2.5 0.5,2.7 0.1,1.1 -0.2,1.8 -0.9,2 -0.7,0.2 -1.8,-0.2 -3.4,-1.3 -2.3,-1.6 -3.4,-4.4 -3.5,-8.2 0,-3.1 0.6,-6 1.8,-8.7 -1.1,1.3 -2,2.7 -2.6,4.3 -0.1,0.3 -0.2,0.7 -0.4,1.2 -0.2,0.6 -0.3,1 -0.4,1.3 -0.4,1 -0.9,1.7 -1.5,2.1 -2.1,-4.9 -1.4,-10.3 1.9,-16.1 -2.1,1.7 -3.6,4.1 -4.3,7.3 -0.7,3.3 -0.5,6.5 0.7,9.8 0.2,0.5 0.6,1.4 1.4,2.8 0.6,1.2 1,2.1 1.1,2.9 -1.4,-0.1 -3.2,-0.9 -5.4,-2.4 0,0 -0.2,-0.2 -0.7,-0.6 -0.3,-0.2 -0.5,-0.3 -0.7,-0.3 1.7,2.6 4.3,4.8 7.8,6.4 1.8,0.9 5.3,2.1 10.2,3.7 6,1.9 9.4,3 10.2,3.3 2.7,1.1 4.7,2 5.9,2.8 0.5,0.3 1,0.7 1.4,1.1 -1.6,6.5 -4.5,13.6 -8.8,21.3 -1.6,0.7 -3.8,1.7 -6.9,3 -3.2,1.4 -5.4,2.4 -6.9,3 -2.4,0.5 -5.9,1.6 -10.4,3.2 -4.4,1.5 -7.9,2.6 -10.6,3.1 -4.7,2.3 -7.4,5 -8.2,8.1 l 0.5,3.1 c -1.4,6.499999 -4.4,12.499999 -9.2,17.999999 -3.6,4.2 -8.9,8.6 -15.7,13.3 1.4,-0.2 3.9,-1.1 7.5,-2.8 0.7,-0.3 1.6,-0.6 2.6,-0.9 1,-0.3 1.7,-0.6 2.2,-0.8 1.9,-1 3.6,-1.9 5,-2.8 3.6,-2.2 7.3,-4.9 11.1,-8.2 2.9,-2.6 6.1,-5.7 9.6,-9.6 0.6,-0.6 2.8,-1.1 6.6,-1.499999 4.6,-0.4 7.3,-0.7 8.4,-1 4.6,-1.3 6.7,-2 6.4,-2 2.6,-1.4 10.7,-2.3 22.8,-13.3 0.3,-0.6 6.8,-7.2 7.7,-7.2 5.2,-0.3 9.7,-0.7 13.5,-1.3 5,-0.8 9.4,-1.9 13.4,-3.3 1.5,-0.5 3.3,-1.2 5.3,-2.1 0.5,-0.2 1.2,-0.6 2,-1.2 0.9,-0.6 1.7,-1.1 2.4,-1.4 3.6,-1.7 6,-3.1 7,-4 -7.8,2.5 -14.6,3.7 -20.1,3.8 z"
           inkscape:connector-curvature="0"
           style="fill:#e5ac86;fill-opacity:1" />
        <g
           style="font-style:normal;font-variant:normal;font-weight:normal;font-stretch:normal;font-size:40px;line-height:125%;font-family:DriftType;-inkscape-font-specification:'DriftType, Normal';text-align:start;letter-spacing:0px;word-spacing:0px;writing-mode:lr-tb;text-anchor:start;fill:#ff3636;fill-opacity:1;stroke:none;stroke-width:1px;stroke-linecap:butt;stroke-linejoin:miter;stroke-opacity:1"
           id="text5672"
           transform="translate(-13.889598,0.25253814)" />
        <text
           xml:space="preserve"
           style="font-style:normal;font-variant:normal;font-weight:600;font-stretch:normal;font-size:72.5px;line-height:125%;font-family:DriftType;-inkscape-font-specification:'DriftType, Semi-Bold';text-align:start;letter-spacing:0px;word-spacing:0px;writing-mode:lr-tb;text-anchor:start;fill:#e5ac86;fill-opacity:1;stroke:none;stroke-width:1px;stroke-linecap:butt;stroke-linejoin:miter;stroke-opacity:1;"
           x="-169.81268"
           y="-115.81727"
           id="text4235"
           sodipodi:linespacing="125%"><tspan
             sodipodi:role="line"
             id="tspan4237"
             x="-169.81268"
             y="-115.81727"
             style="font-style:normal;font-variant:normal;font-weight:600;font-stretch:normal;font-size:72.5px;line-height:125%;font-family:DriftType;-inkscape-font-specification:'DriftType, Semi-Bold';text-align:start;writing-mode:lr-tb;text-anchor:start;fill:#e5ac86;fill-opacity:1;">EasyGoing!</tspan></text>
        <text
           sodipodi:linespacing="125%"
           id="text4243"
           y="-115.81726"
           x="-169.81268"
           style="font-style:normal;font-variant:normal;font-weight:normal;font-stretch:normal;font-size:68.75px;line-height:125%;font-family:DriftType;-inkscape-font-specification:DriftType;text-align:start;letter-spacing:0px;word-spacing:0px;writing-mode:lr-tb;text-anchor:start;fill:#5a2706;fill-opacity:1;stroke:none;stroke-width:1px;stroke-linecap:butt;stroke-linejoin:miter;stroke-opacity:1"
           xml:space="preserve"><tspan
             y="-115.81726"
             x="-169.81268"
             id="tspan4245"
             sodipodi:role="line"
             style="font-style:normal;font-variant:normal;font-weight:normal;font-stretch:normal;font-size:72.5px;line-height:125%;font-family:DriftType;-inkscape-font-specification:'DriftType, Normal';text-align:start;writing-mode:lr-tb;text-anchor:start">EasyGoing!</tspan></text>
        <text
           xml:space="preserve"
           style="font-style:normal;font-weight:normal;font-size:33.03322983px;line-height:125%;font-family:sans-serif;letter-spacing:0px;word-spacing:0px;fill:#000000;fill-opacity:1;stroke:none;stroke-width:1px;stroke-linecap:butt;stroke-linejoin:miter;stroke-opacity:1"
           x="-243.00314"
           y="-76.24823"
           id="text4158"
           sodipodi:linespacing="125%"
           transform="scale(0.97518754,1.0254438)"><tspan
             sodipodi:role="line"
             id="tspan4160"
             x="-243.00314"
             y="-76.24823"
             style="font-style:normal;font-variant:normal;font-weight:bold;font-stretch:normal;font-size:21.31342316px;line-height:125%;font-family:Purisa;-inkscape-font-specification:'Purisa, Bold';text-align:start;letter-spacing:0px;writing-mode:lr-tb;text-anchor:start;fill:#e4ab85;fill-opacity:1">In difficult terrain, it's in good shape!</tspan></text>
      </g>
      <path
         style="fill:#000000;fill-opacity:0;stroke:none;stroke-opacity:1"
         d="m 116.43172,87.210811 0,-18.182746 120.58696,0 120.58696,0 0,18.182746 0,18.182749 -120.58696,0 -120.58696,0 0,-18.182749 z m 94.65836,16.839019 c 0.0565,-0.29743 -0.0988,-0.50851 -0.43967,-0.59766 -0.30928,-0.0809 -0.54125,-0.36043 -0.56143,-0.67658 -0.0315,-0.49393 -0.0438,-0.48948 -0.14699,0.0535 -0.0893,0.47001 -0.22559,0.55997 -0.66008,0.43586 -0.30113,-0.086 -0.84309,-0.22129 -1.20437,-0.30062 l -0.65687,-0.14424 0.4418,-2.18566 c 0.24299,-1.202114 0.51832,-3.037978 0.61185,-4.079698 0.20338,-2.265163 0.34479,-2.833419 0.65708,-2.640413 0.12889,0.07966 0.23435,-0.265258 0.23435,-0.766489 0,-0.50123 0.17737,-1.254315 0.39415,-1.673521 0.60049,-1.161228 0.27842,-1.482823 -0.41465,-0.414032 -0.33596,0.518098 -0.72448,0.906345 -0.86338,0.862772 -0.39216,-0.123024 -0.45529,-1.44078 -0.12228,-2.552283 0.20864,-0.696378 0.21893,-1.033395 0.0335,-1.095221 -0.14735,-0.04912 -0.85185,-0.876988 -1.56554,-1.839707 -2.07255,-2.795706 -1.93784,-2.146233 0.17395,0.838702 0.94315,1.333118 1.22241,2.470162 0.38577,1.570764 -0.25482,-0.273934 -1.78423,-2.316336 -3.39869,-4.538671 -1.61445,-2.222336 -3.4133,-4.641366 -3.99743,-5.375622 -0.82037,-1.031219 -0.99375,-1.403315 -0.76189,-1.635174 0.23186,-0.231858 0.41709,-0.22714 0.814,0.02074 0.46312,0.289225 0.48917,0.274795 0.26386,-0.1462 -0.1427,-0.266636 -0.15755,-0.616659 -0.0346,-0.815592 0.16945,-0.274191 0.46185,-0.146534 1.37133,0.598725 0.63578,0.520971 1.15596,0.800683 1.15596,0.621583 0,-0.1791 0.17691,-0.07307 0.39313,0.235631 0.21622,0.308696 0.51264,0.561266 0.65872,0.561266 0.48693,0 -0.0556,-1.356157 -1.0936,-2.73367 -0.9606,-1.274801 -0.98914,-1.363015 -0.5489,-1.69678 0.50108,-0.379888 0.6077,-0.3057 1.66877,1.161163 0.35667,0.493069 0.34394,0.4032 -0.0631,-0.445589 -0.6503,-1.35595 -0.64702,-1.683188 0.0151,-1.510035 0.36856,0.09638 0.48664,0.03726 0.39621,-0.198395 -0.30398,-0.792138 0.22004,-0.48565 1.65274,0.966672 0.84231,0.853845 1.85587,2.156924 2.25236,2.895731 0.39649,0.738807 1.24496,2.124396 1.88549,3.079086 1.03862,1.548033 1.30892,2.574477 0.55531,2.10872 -0.16749,-0.103518 -0.20112,-0.05131 -0.0864,0.134244 0.10322,0.167007 0.11943,0.48147 0.036,0.698806 -0.11544,0.300836 -0.2332,0.327462 -0.49336,0.111552 -0.27759,-0.230386 -0.33627,-0.105403 -0.31268,0.666037 0.0218,0.713706 -0.0686,0.94296 -0.36385,0.922744 -0.29246,-0.02002 -0.36582,0.157497 -0.28701,0.69448 0.095,0.647439 0.55364,1.055769 0.55364,0.492937 0,-0.824398 9.01414,-12.903542 9.62935,-12.903542 0.34224,0 0.25924,0.583453 -0.18061,1.269634 -0.39303,0.613147 -0.38925,0.612522 0.20998,-0.03468 0.49199,-0.531384 0.68727,-0.602735 1.00793,-0.368268 0.30984,0.22656 0.33726,0.400075 0.12411,0.785349 -0.24509,0.443014 -0.22947,0.458427 0.14993,0.147943 0.55044,-0.450453 1.18114,0.02083 1.18114,0.882593 0,0.330233 0.093,0.600423 0.20667,0.600423 0.11366,0 0.63415,0.380321 1.15664,0.845157 l 0.94998,0.845157 -1.04248,1.204501 c -0.57337,0.662475 -1.61555,2.053731 -2.31595,3.09168 -1.47244,2.182062 -4.98538,8.870515 -5.77415,10.993666 -0.29608,0.796987 -0.7171,1.549108 -0.93559,1.671379 -0.21849,0.122272 -0.31777,0.35092 -0.22062,0.508104 0.26158,0.423252 0.90443,0.346543 0.90443,-0.107919 0,-0.216542 0.10119,-0.331176 0.22485,-0.254748 0.12367,0.07643 0.3094,-0.286199 0.41275,-0.805844 0.18631,-0.936817 0.18955,-0.938973 0.38345,-0.254835 0.10755,0.379485 0.27083,1.68637 0.36282,2.90419 0.092,1.217817 0.27508,2.852494 0.40686,3.632617 0.24271,1.43691 0.11064,2.35577 -0.30196,2.10077 -0.12434,-0.0768 -0.22608,-0.35359 -0.22608,-0.61499 0,-0.26139 -0.11819,-0.54832 -0.26266,-0.6376 -0.17106,-0.10572 -0.20718,0.0872 -0.10358,0.55331 0.53713,2.41648 0.89567,2.80184 1.73941,1.86952 0.41879,-0.46277 0.42002,-0.81692 0.0241,-6.946715 l -0.41716,-6.45909 1.31358,-2.334065 c 2.23555,-3.972291 5.13367,-7.929771 7.04264,-9.616967 l 0.81115,-0.716912 -1.85727,-1.711356 c -3.05921,-2.818866 -5.00307,-4.304696 -5.63169,-4.304696 -0.26493,0 -5.15035,6.297233 -6.31673,8.142186 -0.24073,0.380772 -0.52504,0.63832 -0.63182,0.572331 -0.10677,-0.06599 -0.86142,-1.275973 -1.677,-2.688851 -0.81559,-1.412878 -2.08118,-3.182747 -2.81244,-3.933041 -0.73125,-0.750294 -1.51141,-1.641716 -1.73367,-1.980936 -0.22227,-0.339221 -0.53675,-0.616766 -0.69884,-0.616766 -0.56867,0 -4.20351,2.808456 -4.0284,3.112542 0.094,0.163198 0.37952,0.598372 0.63454,0.967053 0.71072,1.027495 0.53127,1.20043 -0.27179,0.261924 l -0.71494,-0.835513 -1.18419,1.024917 c -0.65131,0.563704 -1.34775,1.024916 -1.54765,1.024916 -0.1999,0 -0.36345,0.185448 -0.36345,0.412106 0,0.226657 1.91532,2.98248 4.25625,6.124049 5.56568,7.469212 5.52067,7.395429 5.71887,9.373748 0.1757,1.753751 -0.37187,7.002355 -1.0248,9.822966 -0.20568,0.88852 -0.34332,1.6387 -0.30586,1.66708 0.25118,0.19031 3.0472,0.57046 3.98018,0.54114 0.87979,-0.0276 1.15374,-0.13876 1.22152,-0.49547 z m 55.34929,0.19815 c 4.71433,-0.32246 8.45843,-4.14429 10.13453,-10.344908 0.71015,-2.62714 0.78958,-8.855467 0.14852,-11.645904 -1.05127,-4.576018 -2.72908,-7.556303 -5.33331,-9.473551 -0.97208,-0.715647 -2.20446,-0.937118 -2.86858,-0.51551 -0.52679,0.33443 -2.56932,-0.263529 -2.7403,-0.802236 -0.16196,-0.510293 -0.12189,-0.51096 -3.68145,0.06134 -2.87433,0.462134 -5.51024,2.853137 -7.40665,6.718491 -1.57129,3.202669 -1.97481,5.094045 -1.96658,9.217642 0.0124,6.21993 1.39931,10.547551 4.41244,13.768606 2.44322,2.61181 4.3274,3.51442 6.776,3.24602 0.76393,-0.0837 1.90035,-0.18723 2.52538,-0.22999 z m -135.68615,-0.36965 c 0.16801,-0.64249 0.8042,-0.64487 5.62901,-0.021 2.01399,0.2604 3.73862,0.42698 3.83251,0.37016 0.0939,-0.0568 0.25116,-1.13167 0.34948,-2.38857 0.11615,-1.48471 0.31048,-2.416968 0.55475,-2.661238 0.26862,-0.26862 0.41379,-1.173707 0.5084,-3.16976 0.12599,-2.658127 0.10916,-2.78653 -0.34665,-2.644427 -0.69179,0.215672 -7.65389,1.848037 -8.61363,2.019592 -0.44603,0.07973 -0.87409,0.04281 -0.95126,-0.08205 -0.0772,-0.124853 -0.0643,-0.87404 0.0287,-1.664864 l 0.16899,-1.437868 3.37078,0.11432 3.37078,0.114321 0,-4.249562 0,-4.249562 -1.07329,0.0033 c -0.59031,0.0018 -2.14756,0.224968 -3.46056,0.495875 -1.313,0.270907 -2.4156,0.464226 -2.45022,0.429599 -0.0346,-0.03463 -0.0968,-0.968034 -0.13812,-2.074238 l -0.0752,-2.011281 4.70269,-0.06859 4.70269,-0.06859 0.0298,-2.709332 c 0.0278,-2.529692 0.24133,-4.481022 0.68016,-6.215662 0.17538,-0.693288 0.14905,-0.722713 -0.5461,-0.610252 -0.40171,0.06499 -2.931,0.501143 -5.62066,0.969236 -4.44644,0.773833 -4.9172,0.814264 -5.18687,0.44547 -0.24748,-0.338447 -0.66084,-0.382883 -2.49646,-0.268363 -2.01362,0.125626 -2.20235,0.182337 -2.22916,0.669859 -0.0249,0.453064 -0.0471,0.463837 -0.14836,0.07213 -0.0812,-0.31408 -0.25255,-0.405736 -0.53892,-0.288284 -0.71866,0.294756 -1.88631,0.571296 -3.12978,0.741246 -1.05772,0.144561 -1.24402,0.267207 -1.62478,1.069595 -0.40575,0.855053 -0.40541,0.949294 0.006,1.666305 0.30288,0.527727 0.35565,0.840521 0.17269,1.023486 -0.47695,0.476949 -0.27567,1.136883 0.48353,1.585353 0.87073,0.514354 1.08052,1.267173 1.53884,5.521924 0.31446,2.919381 0.17541,7.195037 -0.3531,10.857059 -0.26112,1.809342 -0.3616,2.051796 -0.97084,2.342609 -0.72441,0.345793 -1.11403,1.123401 -0.80964,1.615906 0.24239,0.392207 0.23601,1.671618 -0.0127,2.553568 -0.16466,0.58383 -0.0784,0.81232 0.51359,1.361 0.68901,0.63856 0.84552,0.66498 4.95569,0.83667 2.33431,0.0975 4.31905,0.25215 4.41054,0.34363 0.31077,0.31078 0.63411,0.16791 0.7666,-0.33873 z m 22.10869,-1.99343 1.15133,-2.498511 1.47543,-0.555419 c 1.86061,-0.700422 3.92621,-1.14467 4.42765,-0.952251 0.21187,0.0813 0.46052,0.526926 0.55257,0.990275 0.092,0.46335 0.45601,1.790596 0.80882,2.949436 0.77924,2.55951 0.39148,2.57571 5.79807,-0.24225 2.8736,-1.49775 3.90418,-2.156882 3.90418,-2.497033 0,-0.707579 -1.88483,-5.788814 -2.62258,-7.070111 -0.35989,-0.625032 -0.6557,-1.525614 -0.65738,-2.001293 -0.002,-0.47568 -0.56276,-2.57806 -1.24686,-4.671956 -0.68409,-2.093896 -1.42967,-4.716221 -1.65682,-5.827389 -0.49487,-2.420717 -0.95576,-7.341832 -0.7487,-7.994214 0.12691,-0.399866 0.004,-0.465814 -0.86489,-0.465814 -0.59654,0 -1.40786,0.233327 -1.97419,0.567748 -0.77238,0.456098 -1.33393,0.565886 -2.85549,0.558281 -1.77401,-0.0089 -3.83912,-0.205555 -5.30822,-0.505572 -1.11283,-0.227262 -1.47527,0.323813 -1.91723,2.915077 -0.22505,1.319512 -0.74369,3.478713 -1.15251,4.798225 -0.40883,1.319512 -0.84313,2.853681 -0.9651,3.409265 -0.39177,1.784457 -4.17402,12.300006 -5.24696,14.587795 -0.78329,1.670181 -0.96418,2.276479 -0.73703,2.47033 0.8463,0.722241 3.75706,2.261951 3.99644,2.114001 0.15147,-0.0936 0.36109,-0.0315 0.46583,0.13791 0.15331,0.24807 3.49157,2.086 4.07114,2.24143 0.0831,0.0223 0.66926,-1.08378 1.3025,-2.45796 z m 35.23815,2.10869 c 4.17478,-0.83605 6.39187,-2.62625 7.41201,-5.984844 1.12497,-3.703699 0.19098,-7.803941 -2.31068,-10.143947 -1.46375,-1.369165 -4.24938,-2.798347 -5.8704,-3.011838 -1.55423,-0.204695 -2.94611,-0.926418 -3.91516,-2.030096 -1.04705,-1.192527 -1.25853,-1.921906 -0.67993,-2.344994 1.33203,-0.974002 3.87282,-0.645471 7.14546,0.923931 1.15919,0.55589 2.20049,0.95331 2.314,0.883155 0.11352,-0.07015 0.28671,-0.609939 0.38489,-1.199519 0.0982,-0.58958 0.32104,-1.469711 0.49527,-1.955847 0.17423,-0.486136 0.52368,-2.005648 0.77654,-3.376693 0.54734,-2.967662 0.62856,-2.8436 -2.5109,-3.835354 -5.30132,-1.674688 -10.16331,-1.123785 -13.81648,1.565521 -0.85208,0.627267 -1.77946,1.184821 -2.06084,1.239011 -0.69023,0.132925 -0.71826,0.175924 -0.8746,1.341575 -0.082,0.611532 -0.37535,1.240929 -0.73638,1.580106 -0.73357,0.689151 -0.74896,1.321 -0.0952,3.907684 0.70372,2.784266 2.05203,5.391869 3.71887,7.192256 1.73758,1.876799 2.82555,2.456441 5.74286,3.059641 2.52445,0.52197 3.39988,1.115468 3.86085,2.61747 0.31122,1.014019 0.12233,1.190002 -1.72194,1.604385 -1.4423,0.324062 -3.20279,-0.02303 -5.28591,-1.042142 -0.90342,-0.441979 -1.81305,-0.780939 -2.0214,-0.753243 -0.20834,0.0277 -0.964,-0.256756 -1.67924,-0.63212 -1.57001,-0.823953 -1.99608,-0.618875 -2.25139,1.083648 -0.092,0.613676 -0.30413,1.115772 -0.47134,1.115772 -0.34552,0 -1.0748,2.130614 -1.30558,3.814288 l -0.15447,1.127004 1.22638,0.66269 c 4.81521,2.60197 10.03544,3.52357 14.68468,2.5925 z m 27.42074,-0.17145 c 0.40081,-0.63787 -0.1057,-1.01683 -1.33637,-0.99985 -0.94649,0.0131 -1.03304,-0.0412 -1.06048,-0.66442 l -0.0299,-0.67865 -0.15953,0.73678 c -0.0877,0.40523 -0.29522,0.78191 -0.46106,0.83708 -0.40276,0.13397 -0.90416,-1.78251 -0.78721,-3.00887 0.0506,-0.530261 0.017,-0.964106 -0.0747,-0.964106 -0.50476,0 -0.64577,3.231626 -0.19717,4.518496 l 0.2809,0.80579 1.77608,-0.0736 c 1.35158,-0.056 1.84141,-0.17759 2.0494,-0.50862 z m 25.34909,-0.16983 c 1.1058,-0.43723 1.32582,-0.46197 1.32582,-0.1491 0,0.53303 0.47437,0.47748 4.16688,-0.48794 5.15929,-1.34892 5.47425,-1.54692 4.98508,-3.133792 -2.22427,-7.215482 -2.44765,-8.249869 -1.72145,-7.971199 0.52162,0.200165 0.82454,-0.538718 1.13451,-2.767343 0.40984,-2.946618 0.36711,-3.951808 -0.16813,-3.955375 -0.54972,-0.0037 -10.25581,1.553822 -10.38501,1.666427 -0.12968,0.113035 -1.0187,4.505252 -0.92987,4.594081 0.0394,0.03937 0.6552,0.140696 1.36852,0.225178 0.99396,0.11772 1.29693,0.254233 1.29693,0.584363 0,0.889408 -2.03573,2.024269 -3.63116,2.024269 -0.78731,0 -0.9244,-0.113347 -1.45079,-1.199556 -1.08569,-2.240321 -0.91543,-7.573703 0.33453,-10.479314 0.48774,-1.13379 1.70242,-2.463266 2.25056,-2.463266 0.13327,0 0.70546,0.738674 1.27153,1.641498 0.56606,0.902824 1.04922,1.641498 1.07366,1.641498 0.0244,0 1.00613,-0.404824 2.18151,-0.899609 1.17537,-0.494785 2.76207,-1.134118 3.526,-1.420741 0.76393,-0.286622 1.62468,-0.735153 1.91277,-0.996736 0.2881,-0.261583 0.60062,-0.398805 0.69448,-0.304937 0.31848,0.318479 0.1726,-0.439877 -0.24081,-1.251877 -1.2418,-2.43905 -3.13149,-4.582578 -4.76555,-5.405691 -0.69448,-0.349825 -1.62846,-0.9105 -2.07551,-1.245945 -0.57543,-0.431773 -0.99551,-0.564044 -1.43837,-0.452895 -0.37749,0.09474 -0.83675,0.0091 -1.15813,-0.216032 -0.67214,-0.470785 -1.58558,-0.279804 -4.0749,0.851975 -5.28742,2.403959 -6.95265,4.274089 -8.46612,9.507865 -0.51283,1.773451 -0.6662,2.972176 -0.77154,6.0305 -0.18822,5.464033 0.48645,8.508367 2.6458,11.938823 0.95183,1.512121 3.1924,3.815811 3.71127,3.815811 0.18392,0 0.82978,0.23254 1.43526,0.51675 1.37945,0.64752 3.98625,0.54359 5.96223,-0.23769 z m 47.79457,-8.10774 c 0.002,-4.964015 0.16338,-11.102946 0.37565,-14.268405 0.20491,-3.055711 0.37429,-6.479136 0.37639,-7.60761 l 0.004,-2.051771 -2.08344,-0.158709 c -1.14589,-0.08729 -2.56544,-0.227026 -3.15455,-0.310525 -0.83003,-0.117646 -1.10473,-0.06422 -1.22046,0.237364 -0.0821,0.214048 -0.28199,0.342478 -0.44411,0.2854 -0.16213,-0.05708 -1.09027,-0.02112 -2.06254,0.07991 -2.04178,0.212162 -1.90513,-0.23199 -1.2603,4.096371 0.56033,3.761115 0.39064,13.706653 -0.36193,21.213204 -0.28547,2.847367 -0.52022,5.363571 -0.52169,5.591551 -0.003,0.54332 1.7133,1.22584 3.09605,1.23084 0.5875,0.002 1.23864,0.1176 1.44698,0.25661 0.21117,0.14088 1.57991,0.22299 3.09292,0.18553 l 2.7141,-0.0672 0.003,-8.71257 z m 19.55511,8.452 c 0.32427,-0.24527 1.09791,-0.37078 2.28547,-0.37078 1.09843,0 1.91856,-0.12253 2.11292,-0.31567 0.20227,-0.201 1.06921,-0.31568 2.38649,-0.31568 l 2.06882,0 0.0745,-1.84522 c 0.0519,-1.285425 -0.0439,-2.082486 -0.31567,-2.627311 -0.45551,-0.913098 -0.47771,-1.04095 -0.14502,-0.835341 0.48096,0.29725 0.59221,-1.297283 0.31615,-4.531349 -0.16776,-1.96542 -0.39388,-3.321135 -0.56336,-3.377627 -0.15571,-0.0519 -0.38659,-0.366556 -0.51307,-0.69923 -0.12649,-0.332673 -0.34643,-0.60486 -0.48876,-0.60486 -0.33361,0 -0.33919,1.68827 -0.006,1.894036 0.14383,0.08889 0.25254,1.363522 0.25254,2.961182 0,3.074323 -0.24012,3.431932 -0.51222,0.762849 l -0.17368,-1.703726 -0.0358,1.544687 c -0.0249,1.071295 0.12978,1.943246 0.50461,2.845196 0.50248,1.20909 0.51135,1.332684 0.12627,1.758193 -0.2715,0.300011 -0.4142,0.90759 -0.4142,1.763621 0,1.4835 -0.30645,1.69735 -0.6953,0.4852 l -0.26329,-0.820753 -0.0258,0.820753 c -0.0305,0.97066 -0.45399,1.08868 -0.67969,0.1894 -0.0872,-0.34724 -0.23873,-0.63135 -0.33685,-0.63135 -0.0981,0 -0.37477,-0.411812 -0.61479,-0.915146 -0.24002,-0.503331 -0.49673,-0.854819 -0.57047,-0.781083 -0.0737,0.07374 0.0532,0.496117 0.28198,0.938619 0.22883,0.4425 0.3454,0.8752 0.25905,0.96155 -0.33857,0.33857 -1.08356,-0.45551 -2.63397,-2.8075 -0.88952,-1.349418 -1.6661,-2.404694 -1.72573,-2.345059 -0.0596,0.05963 0.12835,0.643702 0.41775,1.297935 0.58948,1.332616 0.62145,1.466539 0.3032,1.269845 -0.12264,-0.07579 0.0451,0.514119 0.37281,1.31092 0.73231,1.780679 0.75203,2.252799 0.10271,2.458879 -0.2778,0.0882 -0.50508,0.26629 -0.50508,0.39583 0,0.12953 -0.14205,0.23512 -0.31567,0.23464 -0.17362,-5.1e-4 -1.3628,-2.07446 -2.64261,-4.608825 -2.29963,-4.553861 -5.3984,-10.161443 -5.8831,-10.646147 -0.16496,-0.164961 -0.24999,0.02994 -0.24999,0.573036 0,0.452664 0.0948,0.764448 0.21062,0.692852 0.11585,-0.0716 0.47148,0.499166 0.79029,1.26836 l 0.57966,1.398535 -0.43096,3.451826 c -0.44984,3.60303 -1.29556,8.111953 -1.56787,8.358973 -0.0871,0.079 -0.0921,-0.28509 -0.0113,-0.80906 0.18373,-1.19024 -0.21034,-1.01693 -0.43719,0.19227 -0.1794,0.95627 -0.17776,0.95457 -0.71735,0.7475 -0.30832,-0.11831 -0.31524,-0.35488 -0.0462,-1.57836 0.42346,-1.925478 0.6323,-4.63329 0.34359,-4.454857 -0.12573,0.07771 -0.22714,0.674378 -0.22536,1.325937 0.005,1.78367 -0.76487,4.82906 -1.18029,4.66965 -0.186,-0.0714 -0.34587,-0.43013 -0.35527,-0.79723 -0.0169,-0.66221 -0.0192,-0.66299 -0.29113,-0.0992 -0.30803,0.6387 -0.5124,0.68741 -1.24319,0.2963 -0.28511,-0.15258 -0.44816,-0.42802 -0.37155,-0.62765 0.11205,-0.292 0.0488,-0.30098 -0.35292,-0.0501 -0.82246,0.51364 -1.16083,-0.0668 -0.77998,-1.338 0.50493,-1.685298 0.99418,-4.535115 0.75298,-4.386049 -0.12237,0.07563 -0.22249,0.396732 -0.22249,0.713557 0,0.793182 -0.96506,4.500832 -1.24416,4.779932 -0.67975,0.67975 -0.61981,-0.46351 0.25682,-4.898441 1.23991,-6.272799 1.48379,-8.370131 1.52496,-13.11425 l 0.034,-3.914341 0.309,2.272843 0.309,2.272844 0.0442,-1.767767 c 0.0685,-2.7385 0.60253,-1.386268 0.79782,2.020305 l 0.15926,2.777919 0.041,-2.501387 c 0.0407,-2.484346 0.0444,-2.498273 0.54605,-2.044299 1.04598,0.946606 0.46032,-0.251982 -2.20392,-4.510369 -2.22451,-3.555555 -2.45588,-4.069489 -1.437,-3.192044 0.51672,0.444992 0.6032,0.476393 0.29298,0.106384 -0.5514,-0.65767 -0.55789,-1.017313 -0.0221,-1.222927 0.25608,-0.09827 0.66159,0.0625 1.04657,0.414923 l 0.6285,0.57535 -0.44943,-0.702361 c -0.58,-0.9064 -0.25006,-1.251973 0.41082,-0.430287 0.48761,0.606265 0.49491,0.607546 0.2148,0.03773 -0.45363,-0.922817 -0.11318,-0.918177 0.5202,0.0071 0.75634,1.104894 1.22887,1.466635 1.91579,1.466635 0.77659,0 0.9566,-0.394524 0.48635,-1.065901 -0.48935,-0.698648 -0.49742,-0.954404 -0.0301,-0.954404 0.19983,0 0.78526,0.683576 1.30095,1.519059 0.51569,0.835483 0.99008,1.466597 1.0542,1.402477 0.0641,-0.06412 -0.28658,-0.775754 -0.77934,-1.581408 -0.78873,-1.289565 -0.84663,-1.492408 -0.48396,-1.695368 0.24708,-0.138274 0.44261,-0.138589 0.48855,-7.83e-4 0.40927,1.227556 2.75857,4.801216 3.90782,5.94439 0.78767,0.783511 1.68433,1.920627 1.99257,2.526922 0.70547,1.387603 3.24739,5.226964 3.60829,5.45001 0.1488,0.09196 0.0135,-0.268449 -0.30066,-0.80092 -0.31417,-0.532471 -0.57245,-1.26421 -0.57396,-1.626086 -0.004,-1.015063 0.53634,-10.46802 0.60204,-10.527579 0.032,-0.02898 0.88202,0.0075 1.88902,0.08104 1.68829,0.123312 1.8309,0.177801 1.8309,0.699573 0,0.311215 0.0763,0.947229 0.1695,1.413365 0.16801,0.840025 0.17434,0.833047 0.71598,-0.789182 0.41864,-1.253825 0.65961,-1.636701 1.03006,-1.636701 0.37775,0 0.51478,0.233852 0.6262,1.068597 0.20621,1.545016 0.48872,1.625579 0.48872,0.139368 0,-1.102695 0.0754,-1.295049 0.55718,-1.421032 0.30645,-0.08014 0.5911,-0.111787 0.63256,-0.07033 0.0415,0.04146 -0.0372,0.668845 -0.17473,1.394193 -0.13756,0.725348 -0.37673,3.726848 -0.53149,6.670001 -0.15475,2.943152 -0.38808,5.417435 -0.5185,5.498407 -0.29977,0.186108 0.0927,1.270735 0.61733,1.706158 0.33433,0.277462 0.40075,0.06964 0.528,-1.651877 0.0801,-1.083098 0.37764,-4.469397 0.66129,-7.525109 0.60575,-6.525504 0.61368,-6.917487 0.14369,-7.097841 -0.19664,-0.07546 -1.66492,-0.0084 -3.26285,0.148961 -2.15161,0.211916 -3.31046,0.212689 -4.46693,0.003 -0.85888,-0.155744 -1.60164,-0.243139 -1.65057,-0.194211 -0.0489,0.04893 -0.28494,2.272091 -0.52448,4.940362 -0.23953,2.668266 -0.51869,4.851396 -0.62035,4.851396 -0.10166,0 -0.48226,-0.767084 -0.84579,-1.704632 -0.75561,-1.948759 -1.04164,-2.380494 -1.8692,-2.821402 -0.73109,-0.389509 -1.44796,-1.987668 -1.67968,-3.74459 l -0.17486,-1.325825 -0.92657,0 c -0.71776,0 -0.98275,-0.127719 -1.17586,-0.566735 -0.37299,-0.847965 -1.04239,-0.827985 -2.05528,0.06134 -0.67519,0.592826 -1.06164,0.758477 -1.50809,0.646427 -0.36551,-0.09174 -0.60026,-0.03957 -0.60026,0.1334 0,0.156231 -0.33758,-0.07732 -0.75018,-0.519012 l -0.75018,-0.80307 -1.08072,0.66517 c -0.5944,0.365843 -1.5637,0.908315 -2.15401,1.205492 -0.59031,0.297176 -1.07329,0.675638 -1.07329,0.841025 0,0.165387 0.5398,1.023468 1.19956,1.906848 l 1.19956,1.606145 -0.0131,6.187184 c -0.014,6.619447 -0.33357,9.407493 -1.76074,15.361908 -0.3439,1.43481 -0.62528,2.74729 -0.62528,2.91663 0,0.45347 5.33481,1.87462 7.74913,2.06432 l 2.06702,0.1624 0.2718,-1.00939 c 0.14949,-0.55517 0.55245,-2.91277 0.89547,-5.23912 0.34301,-2.326349 0.6644,-4.270465 0.71419,-4.320258 0.11587,-0.115868 4.00173,7.983428 4.59247,9.572088 0.4906,1.31933 0.53681,1.34947 1.24646,0.81272 z m 25.07927,-0.34426 c 1.10581,-0.43723 1.32583,-0.46197 1.32583,-0.1491 0,0.20631 0.19887,0.37406 0.44194,0.37277 0.66265,-0.004 7.05208,-1.69733 7.81406,-2.07147 1.25726,-0.61731 1.26428,-0.91055 0.10536,-4.401967 -1.24258,-3.743469 -1.59433,-5.746863 -0.96672,-5.506028 0.24781,0.0951 0.5001,-0.04411 0.67616,-0.373086 0.34548,-0.645528 0.92962,-6.002982 0.68157,-6.251029 -0.15932,-0.159319 -10.50163,1.363899 -10.74379,1.582349 -0.14174,0.127857 -1.03208,4.487815 -0.93605,4.583836 0.0446,0.04458 0.66468,0.15018 1.37799,0.234662 0.99396,0.11772 1.29694,0.254233 1.29694,0.584363 0,0.889408 -2.03573,2.024269 -3.63116,2.024269 -0.78601,0 -0.92616,-0.115145 -1.46008,-1.199556 -1.08302,-2.199687 -0.90675,-7.572291 0.34382,-10.479314 0.48264,-1.121934 1.70104,-2.463266 2.23751,-2.463266 0.12608,0 0.69576,0.738674 1.26595,1.641498 0.57018,0.902824 1.05921,1.641498 1.08672,1.641498 0.0275,0 1.0117,-0.404824 2.18707,-0.899609 1.17538,-0.494785 2.76208,-1.134118 3.52601,-1.420741 0.76393,-0.286622 1.62467,-0.735153 1.91277,-0.996736 0.2881,-0.261583 0.60061,-0.398805 0.69448,-0.304937 0.44324,0.443237 0.0882,-0.677842 -0.5725,-1.807547 -1.3867,-2.371203 -2.97489,-4.123323 -4.37132,-4.822516 -0.72888,-0.364953 -1.691,-0.938005 -2.13805,-1.27345 -0.58555,-0.439366 -0.99248,-0.564806 -1.45537,-0.448627 -0.38464,0.09654 -0.8034,0.02779 -1.04324,-0.171267 -0.63152,-0.524115 -1.8032,-0.29436 -4.2599,0.835327 -5.28166,2.428708 -6.85615,4.209242 -8.37901,9.47548 -0.51284,1.773451 -0.6662,2.972176 -0.77155,6.0305 -0.19785,5.744018 0.64113,9.186566 3.06757,12.586914 1.09068,1.52845 2.83574,3.16772 3.37215,3.16772 0.13847,0 0.74714,0.23254 1.35262,0.51675 1.37945,0.64752 3.98625,0.54359 5.96222,-0.23769 z m 15.6631,0.45812 c 1.80926,-0.20175 2.97319,-0.1962 4.46043,0.0213 2.53646,0.37088 2.71386,0.21794 2.31084,-1.99235 -0.15078,-0.82692 -0.34732,-1.57632 -0.43676,-1.66533 -0.0894,-0.089 0.10943,-0.43388 0.44194,-0.766392 0.50684,-0.506844 0.60456,-0.855963 0.60456,-2.159944 l 0,-1.555382 -1.19956,0.218079 c -1.30337,0.236952 -6.39091,0.295205 -8.01808,0.09181 l -1.01016,-0.126269 0.0412,1.739311 c 0.0265,1.119269 0.15866,1.811898 0.37068,1.942935 0.26723,0.165152 0.25121,0.432932 -0.0848,1.417412 -0.22783,0.66759 -0.48502,1.63995 -0.57153,2.16081 -0.18364,1.10572 -0.38546,1.06171 3.0912,0.67404 l 0,1e-5 z m -138.91703,-3.19942 c -0.0635,-0.24307 -0.11549,-0.0442 -0.11549,0.44194 0,0.48613 0.052,0.68501 0.11549,0.44194 0.0635,-0.24307 0.0635,-0.64082 0,-0.88388 z m 87.18636,-1.431055 c 0.0245,-1.365971 -0.13588,-1.058024 -0.31789,0.610305 -0.099,0.90707 -0.0732,1.21372 0.0743,0.88388 0.12421,-0.27779 0.23382,-0.95018 0.24358,-1.494185 z m -84.41001,0.815485 c -0.0806,-0.20145 -0.14046,-0.14161 -0.15257,0.15258 -0.011,0.26622 0.0487,0.41537 0.13264,0.33146 0.0839,-0.0839 0.0929,-0.30174 0.0199,-0.48404 l 10e-6,0 z m 2.48348,-3.680139 c -0.2663,-1.419489 -0.44196,-0.732254 -0.22114,0.865178 0.14624,1.057913 0.22914,1.266287 0.29399,0.738992 0.0497,-0.403902 0.0169,-1.125777 -0.0728,-1.60417 z m 90.93786,-0.924557 c -1.16274,-2.488192 -2.91405,-5.55227 -3.07911,-5.387204 -0.0505,0.05054 0.7571,1.676603 1.79476,3.613477 1.03766,1.936874 1.95398,3.729026 2.03626,3.982562 0.0823,0.253535 0.20269,0.407904 0.26755,0.343043 0.0649,-0.06486 -0.3939,-1.213206 -1.01946,-2.551878 z m -92.16391,1.558458 c -0.0701,-0.17362 -0.12738,-0.03157 -0.12738,0.315673 0,0.34724 0.0573,0.489292 0.12738,0.315673 0.0701,-0.17362 0.0701,-0.457726 0,-0.631346 z m 85.86823,0.268322 c -0.0806,-0.201457 -0.14046,-0.141618 -0.15258,0.152576 -0.011,0.266216 0.0487,0.415372 0.13264,0.331456 0.0839,-0.08392 0.0929,-0.301732 0.0199,-0.484032 l 10e-6,0 z m 12.2025,-0.0797 c 0.17327,-0.208771 0.31503,-0.662991 0.31503,-1.009375 0,-0.905144 -0.50752,-1.38896 -1.45702,-1.38896 -0.76345,0 -0.91592,-0.150295 -1.98553,-1.95717 -0.63722,-1.076444 -1.16031,-1.854449 -1.16242,-1.728901 -0.006,0.327377 1.72848,3.381824 2.02329,3.564025 0.16044,0.09916 0.15828,0.318597 -0.006,0.625847 -0.37974,0.709552 -0.3087,1.208479 0.25186,1.769043 0.59758,0.597581 1.57859,0.658498 2.02095,0.125491 l 10e-6,0 z m -99.91983,-1.948781 c 0.19117,-0.119729 0.34712,0.09924 0.44905,0.630524 0.1377,0.717724 0.16009,0.672136 0.1894,-0.385598 0.0234,-0.845459 0.13787,-1.199556 0.38768,-1.199556 0.24615,0 0.38586,-0.405048 0.45729,-1.325825 0.0566,-0.729204 0.0703,-1.37043 0.0305,-1.424947 -0.19286,-0.264129 -0.87215,0.645572 -1.13354,1.518039 -0.27577,0.920424 -0.5682,1.224349 -0.7609,0.790791 -0.0463,-0.104172 -0.47131,-0.393206 -0.94448,-0.642299 -1.00631,-0.529761 -1.6317,-0.227998 -1.08386,0.522981 0.17453,0.239246 0.38205,0.626001 0.46115,0.859457 0.0791,0.233459 0.29437,0.366696 0.47838,0.296086 0.38494,-0.147715 0.86086,0.617206 0.9162,1.472555 0.0286,0.442328 0.0649,0.400427 0.14906,-0.171981 0.0612,-0.416236 0.24302,-0.839338 0.4041,-0.940227 z m 85.41802,-0.135149 c -0.15208,-0.152073 -0.6613,1.085952 -0.63052,1.532937 0.0113,0.164577 0.18751,-0.08333 0.39152,-0.550894 0.204,-0.467569 0.31155,-0.909488 0.239,-0.982043 z M 209.533,94.976359 c -0.07,-0.17362 -0.12737,-0.03157 -0.12737,0.315673 0,0.34724 0.0573,0.489292 0.12737,0.315672 0.0701,-0.17362 0.0701,-0.457725 0,-0.631345 z m 104.72152,-1.275952 c -0.0867,-0.534268 -0.29565,-0.933757 -0.48841,-0.933757 -0.44037,0 -0.89815,-0.868686 -0.7126,-1.352239 0.10826,-0.282115 0.0137,-0.344248 -0.37098,-0.243662 l -0.5163,0.135015 0.52933,1.046116 c 0.62324,1.231728 1.49038,2.502394 1.61956,2.373219 0.05,-0.05001 0.0228,-0.511125 -0.0606,-1.024692 z m 34.99991,0.464229 c 0.5365,-0.277434 0.92712,-0.308968 1.56415,-0.126269 0.46699,0.133931 1.54949,0.243512 2.40554,0.243512 l 1.55646,0 0.14908,-2.462247 c 0.34775,-5.743926 0.72073,-9.706108 1.15892,-12.311234 0.257,-1.527856 0.59924,-3.900869 0.76054,-5.273362 0.39442,-3.356009 0.38544,-3.364908 -3.04617,-3.017292 -1.41877,0.143719 -3.02592,0.168617 -3.60789,0.05589 -0.5772,-0.111799 -1.9099,-0.20822 -2.96157,-0.214269 l -1.91212,-0.011 0.43603,3.724938 c 0.49022,4.187929 1.1413,12.012967 1.38681,16.667517 0.16174,3.066295 0.16861,3.093592 0.77916,3.093592 0.33879,0 0.93776,-0.166402 1.33106,-0.369781 z M 306.59294,93.82507 c 0,-0.112349 -0.17231,-0.424864 -0.38292,-0.694479 -0.35506,-0.454566 -0.3613,-0.439713 -0.0857,0.20427 0.29734,0.694856 0.46865,0.874045 0.46865,0.490209 z m -6.566,-3.977512 c 0,-0.216541 -0.11364,-0.323477 -0.25253,-0.237634 -0.1389,0.08584 -0.25254,0.263012 -0.25254,0.393711 0,0.130699 0.11364,0.237634 0.25254,0.237634 0.13889,0 0.25253,-0.17717 0.25253,-0.393711 z m 13.9389,-3.387398 c 0.90654,-2.276323 0.89648,-3.982044 -0.0312,-5.284811 -0.31807,-0.446681 -0.63512,-0.755326 -0.70457,-0.685878 -0.0695,0.06945 0.12494,0.47906 0.43197,0.910249 0.89972,1.263545 0.90545,2.369312 0.0254,4.90449 -0.4296,1.237569 -0.76562,2.487633 -0.7467,2.777919 0.0286,0.43884 0.0541,0.422561 0.15119,-0.09659 0.0643,-0.34341 0.45749,-1.479832 0.87387,-2.525381 z m -99.99641,2.113179 c 0.24693,-0.541953 0.22355,-0.790464 -0.13277,-1.411318 -0.23785,-0.414447 -0.3576,-0.87468 -0.26609,-1.022739 0.10901,-0.176393 0.0441,-0.192969 -0.18832,-0.04808 -0.19508,0.121614 -0.58198,0.253742 -0.85977,0.293618 -0.54363,0.07803 -1.38896,0.947813 -1.38896,1.429126 0,0.733734 0.80114,1.417173 1.66123,1.417173 0.69762,0 0.93573,-0.133333 1.17468,-0.657777 z m 98.60145,-2.768476 c 0.17609,-0.685136 0.39383,-1.887752 0.48386,-2.672479 0.15427,-1.344579 0.12554,-1.451778 -0.49867,-1.860774 -0.54858,-0.359446 -0.73008,-0.3778 -1.05656,-0.106845 -1.36886,1.136058 -1.43685,3.502051 -0.15766,5.487162 0.52661,0.817216 0.8604,0.587158 1.22903,-0.847064 z m -8.40933,-0.93003 c -0.75637,-1.463983 -3.94177,-6.274795 -4.0699,-6.146662 -0.12025,0.120252 4.20092,6.967411 4.39706,6.967411 0.0533,0 -0.0939,-0.369337 -0.32716,-0.820749 z m 5.64469,-0.830218 c 0.035,-0.863135 0.34427,-2.08874 0.8119,-3.217726 0.74072,-1.7883 0.74321,-1.808915 0.12877,-1.065953 -0.7827,0.946405 -1.37605,2.871828 -1.37605,4.465254 0,1.684001 0.36587,1.531417 0.43538,-0.181575 z m -11.7996,-0.243069 c 0,-0.208344 -0.11364,-0.378807 -0.25254,-0.378807 -0.13889,0 -0.25254,0.170463 -0.25254,0.378807 0,0.208344 0.11365,0.378808 0.25254,0.378808 0.1389,0 0.25254,-0.170464 0.25254,-0.378808 z m 0.85594,-1.199556 c -0.77287,-1.325801 -2.69757,-4.230014 -2.80334,-4.230014 -0.072,0 0.0347,0.255695 0.23715,0.568211 0.20248,0.312516 0.85077,1.335296 1.44064,2.272843 0.58988,0.937548 1.12584,1.704633 1.19104,1.704633 0.0652,0 0.0357,-0.142053 -0.0655,-0.315673 z m 3.43721,-2.967323 c -0.84054,-1.250064 -1.60488,-2.272843 -1.69852,-2.272843 -0.0937,0 -0.0339,0.136371 0.13278,0.303046 0.37755,0.377547 0.39942,0.796475 0.0296,0.567946 -0.15037,-0.09293 -0.0906,0.184466 0.13275,0.616441 0.41774,0.807812 0.74331,1.081038 0.48451,0.406603 -0.28392,-0.739875 0.10218,-0.358634 1.15091,1.136422 1.65132,2.354127 1.47649,1.7834 -0.23208,-0.757615 z m -87.1199,0.06314 c 0.66804,-1.017404 0.68716,-1.084513 0.12592,-0.441942 -0.71495,0.818554 -1.23463,1.641498 -1.03658,1.641498 0.0677,0 0.47746,-0.5398 0.91066,-1.199556 z m 94.94047,-0.594021 c 0.43605,-0.708675 0.75831,-1.457382 0.71614,-1.663794 -0.0422,-0.206411 -0.44496,0.373414 -0.89508,1.288501 -0.45011,0.915086 -0.77238,1.663794 -0.71614,1.663794 0.0562,0 0.45902,-0.579826 0.89508,-1.288501 z m 2.706,0.230997 c -0.0806,-0.201458 -0.14045,-0.141617 -0.15257,0.152575 -0.011,0.266217 0.0487,0.415373 0.13264,0.331457 0.0839,-0.08392 0.0929,-0.301731 0.0199,-0.484032 l 1e-5,0 z m 2.32698,-0.253574 c -0.16292,-0.304404 -0.38443,-0.844204 -0.49226,-1.199556 -0.13038,-0.429664 -0.20332,-0.49385 -0.21776,-0.19161 -0.0222,0.464962 0.64552,1.944629 0.87755,1.944629 0.0708,0 -0.005,-0.249058 -0.16753,-0.553463 z M 299.63382,78.31579 c 0.58421,-0.834085 0.48668,-1.638634 -0.25779,-2.126429 -0.85431,-0.559762 -1.89941,-0.217479 -2.2331,0.731362 -0.20075,0.570824 -0.14098,0.793177 0.35519,1.321326 0.73746,0.784988 1.61627,0.815331 2.1357,0.07374 z m -83.16479,-0.38575 c 0.31413,-0.40054 0.3052,-0.409472 -0.0953,-0.09535 -0.42067,0.329908 -0.55445,0.537288 -0.3466,0.537288 0.0524,0 0.25132,-0.198873 0.44194,-0.441941 z m 96.60987,-0.363024 c -0.0806,-0.201458 -0.14046,-0.141617 -0.15257,0.152575 -0.011,0.266217 0.0487,0.415373 0.13264,0.331457 0.0839,-0.08392 0.0929,-0.301731 0.0199,-0.484032 l 1e-5,0 z M 205.21023,76.895079 c -0.39885,-0.390488 -0.40537,-0.37094 -0.10199,0.305984 0.17824,0.397718 0.36997,0.585431 0.42607,0.417139 0.0561,-0.168291 -0.0897,-0.493696 -0.32408,-0.723123 z m 14.03697,-0.354004 c 0.27454,-0.515234 0.2636,-0.535896 -0.11738,-0.221616 -0.23109,0.190627 -0.42016,0.446322 -0.42016,0.568211 0,0.385748 0.22442,0.241051 0.53754,-0.346595 z m 75.47644,-0.284751 c 0,-0.05244 -0.19887,-0.251315 -0.44194,-0.441941 -0.40054,-0.314125 -0.40947,-0.305193 -0.0953,0.09535 0.32991,0.420665 0.53729,0.554442 0.53729,0.346594 z m 1.12429,-0.685735 c -0.22215,-0.429596 -0.46144,-0.723562 -0.53174,-0.653257 -0.12651,0.126513 0.63205,1.434339 0.83194,1.434339 0.057,0 -0.078,-0.351487 -0.3002,-0.781082 z m 19.00484,-0.541799 c -0.0604,-0.314135 -0.11213,-0.116586 -0.11493,0.438998 -0.003,0.555584 0.0466,0.812604 0.10983,0.571155 0.0632,-0.241448 0.0655,-0.696017 0.005,-1.010153 l 0,0 z"
         id="path5728"
         inkscape:connector-curvature="0"
         transform="translate(-315.47795,-189.05444)" />
      <path
         style="fill:#000000;fill-opacity:0;stroke:none;stroke-opacity:1"
         d="m 116.43172,87.210811 0,-18.182746 120.58696,0 120.58696,0 0,18.182746 0,18.182749 -120.58696,0 -120.58696,0 0,-18.182749 z m 94.65836,16.839019 c 0.0565,-0.29743 -0.0988,-0.50851 -0.43967,-0.59766 -0.30928,-0.0809 -0.54125,-0.36043 -0.56143,-0.67658 -0.0315,-0.49393 -0.0438,-0.48948 -0.14699,0.0535 -0.0893,0.47001 -0.22559,0.55997 -0.66008,0.43586 -0.30113,-0.086 -0.84309,-0.22129 -1.20437,-0.30062 l -0.65687,-0.14424 0.4418,-2.18566 c 0.24299,-1.202114 0.51832,-3.037978 0.61185,-4.079698 0.20338,-2.265163 0.34479,-2.833419 0.65708,-2.640413 0.12889,0.07966 0.23435,-0.265258 0.23435,-0.766489 0,-0.50123 0.17737,-1.254315 0.39415,-1.673521 0.60049,-1.161228 0.27842,-1.482823 -0.41465,-0.414032 -0.33596,0.518098 -0.72448,0.906345 -0.86338,0.862772 -0.39216,-0.123024 -0.45529,-1.44078 -0.12228,-2.552283 0.20864,-0.696378 0.21893,-1.033395 0.0335,-1.095221 -0.14735,-0.04912 -0.85185,-0.876988 -1.56554,-1.839707 -2.07255,-2.795706 -1.93784,-2.146233 0.17395,0.838702 0.94315,1.333118 1.22241,2.470162 0.38577,1.570764 -0.25482,-0.273934 -1.78423,-2.316336 -3.39869,-4.538671 -1.61445,-2.222336 -3.4133,-4.641366 -3.99743,-5.375622 -0.82037,-1.031219 -0.99375,-1.403315 -0.76189,-1.635174 0.23186,-0.231858 0.41709,-0.22714 0.814,0.02074 0.46312,0.289225 0.48917,0.274795 0.26386,-0.1462 -0.1427,-0.266636 -0.15755,-0.616659 -0.0346,-0.815592 0.16945,-0.274191 0.46185,-0.146534 1.37133,0.598725 0.63578,0.520971 1.15596,0.800683 1.15596,0.621583 0,-0.1791 0.17691,-0.07307 0.39313,0.235631 0.21622,0.308696 0.51264,0.561266 0.65872,0.561266 0.48693,0 -0.0556,-1.356157 -1.0936,-2.73367 -0.9606,-1.274801 -0.98914,-1.363015 -0.5489,-1.69678 0.50108,-0.379888 0.6077,-0.3057 1.66877,1.161163 0.35667,0.493069 0.34394,0.4032 -0.0631,-0.445589 -0.6503,-1.35595 -0.64702,-1.683188 0.0151,-1.510035 0.36856,0.09638 0.48664,0.03726 0.39621,-0.198395 -0.30398,-0.792138 0.22004,-0.48565 1.65274,0.966672 0.84231,0.853845 1.85587,2.156924 2.25236,2.895731 0.39649,0.738807 1.24496,2.124396 1.88549,3.079086 1.03862,1.548033 1.30892,2.574477 0.55531,2.10872 -0.16749,-0.103518 -0.20112,-0.05131 -0.0864,0.134244 0.10322,0.167007 0.11943,0.48147 0.036,0.698806 -0.11544,0.300836 -0.2332,0.327462 -0.49336,0.111552 -0.27759,-0.230386 -0.33627,-0.105403 -0.31268,0.666037 0.0218,0.713706 -0.0686,0.94296 -0.36385,0.922744 -0.29246,-0.02002 -0.36582,0.157497 -0.28701,0.69448 0.095,0.647439 0.55364,1.055769 0.55364,0.492937 0,-0.824398 9.01414,-12.903542 9.62935,-12.903542 0.34224,0 0.25924,0.583453 -0.18061,1.269634 -0.39303,0.613147 -0.38925,0.612522 0.20998,-0.03468 0.49199,-0.531384 0.68727,-0.602735 1.00793,-0.368268 0.30984,0.22656 0.33726,0.400075 0.12411,0.785349 -0.24509,0.443014 -0.22947,0.458427 0.14993,0.147943 0.55044,-0.450453 1.18114,0.02083 1.18114,0.882593 0,0.330233 0.093,0.600423 0.20667,0.600423 0.11366,0 0.63415,0.380321 1.15664,0.845157 l 0.94998,0.845157 -1.04248,1.204501 c -0.57337,0.662475 -1.61555,2.053731 -2.31595,3.09168 -1.47244,2.182062 -4.98538,8.870515 -5.77415,10.993666 -0.29608,0.796987 -0.7171,1.549108 -0.93559,1.671379 -0.21849,0.122272 -0.31777,0.35092 -0.22062,0.508104 0.26158,0.423252 0.90443,0.346543 0.90443,-0.107919 0,-0.216542 0.10119,-0.331176 0.22485,-0.254748 0.12367,0.07643 0.3094,-0.286199 0.41275,-0.805844 0.18631,-0.936817 0.18955,-0.938973 0.38345,-0.254835 0.10755,0.379485 0.27083,1.68637 0.36282,2.90419 0.092,1.217817 0.27508,2.852494 0.40686,3.632617 0.24271,1.43691 0.11064,2.35577 -0.30196,2.10077 -0.12434,-0.0768 -0.22608,-0.35359 -0.22608,-0.61499 0,-0.26139 -0.11819,-0.54832 -0.26266,-0.6376 -0.17106,-0.10572 -0.20718,0.0872 -0.10358,0.55331 0.53713,2.41648 0.89567,2.80184 1.73941,1.86952 0.41879,-0.46277 0.42002,-0.81692 0.0241,-6.946715 l -0.41716,-6.45909 1.31358,-2.334065 c 2.23555,-3.972291 5.13367,-7.929771 7.04264,-9.616967 l 0.81115,-0.716912 -1.85727,-1.711356 c -3.05921,-2.818866 -5.00307,-4.304696 -5.63169,-4.304696 -0.26493,0 -5.15035,6.297233 -6.31673,8.142186 -0.24073,0.380772 -0.52504,0.63832 -0.63182,0.572331 -0.10677,-0.06599 -0.86142,-1.275973 -1.677,-2.688851 -0.81559,-1.412878 -2.08118,-3.182747 -2.81244,-3.933041 -0.73125,-0.750294 -1.51141,-1.641716 -1.73367,-1.980936 -0.22227,-0.339221 -0.53675,-0.616766 -0.69884,-0.616766 -0.56867,0 -4.20351,2.808456 -4.0284,3.112542 0.094,0.163198 0.37952,0.598372 0.63454,0.967053 0.71072,1.027495 0.53127,1.20043 -0.27179,0.261924 l -0.71494,-0.835513 -1.18419,1.024917 c -0.65131,0.563704 -1.34775,1.024916 -1.54765,1.024916 -0.1999,0 -0.36345,0.185448 -0.36345,0.412106 0,0.226657 1.91532,2.98248 4.25625,6.124049 5.56568,7.469212 5.52067,7.395429 5.71887,9.373748 0.1757,1.753751 -0.37187,7.002355 -1.0248,9.822966 -0.20568,0.88852 -0.34332,1.6387 -0.30586,1.66708 0.25118,0.19031 3.0472,0.57046 3.98018,0.54114 0.87979,-0.0276 1.15374,-0.13876 1.22152,-0.49547 z m 55.34929,0.19815 c 4.71433,-0.32246 8.45843,-4.14429 10.13453,-10.344908 0.71015,-2.62714 0.78958,-8.855467 0.14852,-11.645904 -1.05127,-4.576018 -2.72908,-7.556303 -5.33331,-9.473551 -0.97208,-0.715647 -2.20446,-0.937118 -2.86858,-0.51551 -0.52679,0.33443 -2.56932,-0.263529 -2.7403,-0.802236 -0.16196,-0.510293 -0.12189,-0.51096 -3.68145,0.06134 -2.87433,0.462134 -5.51024,2.853137 -7.40665,6.718491 -1.57129,3.202669 -1.97481,5.094045 -1.96658,9.217642 0.0124,6.21993 1.39931,10.547551 4.41244,13.768606 2.44322,2.61181 4.3274,3.51442 6.776,3.24602 0.76393,-0.0837 1.90035,-0.18723 2.52538,-0.22999 z m -135.68615,-0.36965 c 0.16801,-0.64249 0.8042,-0.64487 5.62901,-0.021 2.01399,0.2604 3.73862,0.42698 3.83251,0.37016 0.0939,-0.0568 0.25116,-1.13167 0.34948,-2.38857 0.11615,-1.48471 0.31048,-2.416968 0.55475,-2.661238 0.26862,-0.26862 0.41379,-1.173707 0.5084,-3.16976 0.12599,-2.658127 0.10916,-2.78653 -0.34665,-2.644427 -0.69179,0.215672 -7.65389,1.848037 -8.61363,2.019592 -0.44603,0.07973 -0.87409,0.04281 -0.95126,-0.08205 -0.0772,-0.124853 -0.0643,-0.87404 0.0287,-1.664864 l 0.16899,-1.437868 3.37078,0.11432 3.37078,0.114321 0,-4.249562 0,-4.249562 -1.07329,0.0033 c -0.59031,0.0018 -2.14756,0.224968 -3.46056,0.495875 -1.313,0.270907 -2.4156,0.464226 -2.45022,0.429599 -0.0346,-0.03463 -0.0968,-0.968034 -0.13812,-2.074238 l -0.0752,-2.011281 4.70269,-0.06859 4.70269,-0.06859 0.0298,-2.709332 c 0.0278,-2.529692 0.24133,-4.481022 0.68016,-6.215662 0.17538,-0.693288 0.14905,-0.722713 -0.5461,-0.610252 -0.40171,0.06499 -2.931,0.501143 -5.62066,0.969236 -4.44644,0.773833 -4.9172,0.814264 -5.18687,0.44547 -0.24748,-0.338447 -0.66084,-0.382883 -2.49646,-0.268363 -2.01362,0.125626 -2.20235,0.182337 -2.22916,0.669859 -0.0249,0.453064 -0.0471,0.463837 -0.14836,0.07213 -0.0812,-0.31408 -0.25255,-0.405736 -0.53892,-0.288284 -0.71866,0.294756 -1.88631,0.571296 -3.12978,0.741246 -1.05772,0.144561 -1.24402,0.267207 -1.62478,1.069595 -0.40575,0.855053 -0.40541,0.949294 0.006,1.666305 0.30288,0.527727 0.35565,0.840521 0.17269,1.023486 -0.47695,0.476949 -0.27567,1.136883 0.48353,1.585353 0.87073,0.514354 1.08052,1.267173 1.53884,5.521924 0.31446,2.919381 0.17541,7.195037 -0.3531,10.857059 -0.26112,1.809342 -0.3616,2.051796 -0.97084,2.342609 -0.72441,0.345793 -1.11403,1.123401 -0.80964,1.615906 0.24239,0.392207 0.23601,1.671618 -0.0127,2.553568 -0.16466,0.58383 -0.0784,0.81232 0.51359,1.361 0.68901,0.63856 0.84552,0.66498 4.95569,0.83667 2.33431,0.0975 4.31905,0.25215 4.41054,0.34363 0.31077,0.31078 0.63411,0.16791 0.7666,-0.33873 z m 22.10869,-1.99343 1.15133,-2.498511 1.47543,-0.555419 c 1.86061,-0.700422 3.92621,-1.14467 4.42765,-0.952251 0.21187,0.0813 0.46052,0.526926 0.55257,0.990275 0.092,0.46335 0.45601,1.790596 0.80882,2.949436 0.77924,2.55951 0.39148,2.57571 5.79807,-0.24225 2.8736,-1.49775 3.90418,-2.156882 3.90418,-2.497033 0,-0.707579 -1.88483,-5.788814 -2.62258,-7.070111 -0.35989,-0.625032 -0.6557,-1.525614 -0.65738,-2.001293 -0.002,-0.47568 -0.56276,-2.57806 -1.24686,-4.671956 -0.68409,-2.093896 -1.42967,-4.716221 -1.65682,-5.827389 -0.49487,-2.420717 -0.95576,-7.341832 -0.7487,-7.994214 0.12691,-0.399866 0.004,-0.465814 -0.86489,-0.465814 -0.59654,0 -1.40786,0.233327 -1.97419,0.567748 -0.77238,0.456098 -1.33393,0.565886 -2.85549,0.558281 -1.77401,-0.0089 -3.83912,-0.205555 -5.30822,-0.505572 -1.11283,-0.227262 -1.47527,0.323813 -1.91723,2.915077 -0.22505,1.319512 -0.74369,3.478713 -1.15251,4.798225 -0.40883,1.319512 -0.84313,2.853681 -0.9651,3.409265 -0.39177,1.784457 -4.17402,12.300006 -5.24696,14.587795 -0.78329,1.670181 -0.96418,2.276479 -0.73703,2.47033 0.8463,0.722241 3.75706,2.261951 3.99644,2.114001 0.15147,-0.0936 0.36109,-0.0315 0.46583,0.13791 0.15331,0.24807 3.49157,2.086 4.07114,2.24143 0.0831,0.0223 0.66926,-1.08378 1.3025,-2.45796 z m 35.23815,2.10869 c 4.17478,-0.83605 6.39187,-2.62625 7.41201,-5.984844 1.12497,-3.703699 0.19098,-7.803941 -2.31068,-10.143947 -1.46375,-1.369165 -4.24938,-2.798347 -5.8704,-3.011838 -1.55423,-0.204695 -2.94611,-0.926418 -3.91516,-2.030096 -1.04705,-1.192527 -1.25853,-1.921906 -0.67993,-2.344994 1.33203,-0.974002 3.87282,-0.645471 7.14546,0.923931 1.15919,0.55589 2.20049,0.95331 2.314,0.883155 0.11352,-0.07015 0.28671,-0.609939 0.38489,-1.199519 0.0982,-0.58958 0.32104,-1.469711 0.49527,-1.955847 0.17423,-0.486136 0.52368,-2.005648 0.77654,-3.376693 0.54734,-2.967662 0.62856,-2.8436 -2.5109,-3.835354 -5.30132,-1.674688 -10.16331,-1.123785 -13.81648,1.565521 -0.85208,0.627267 -1.77946,1.184821 -2.06084,1.239011 -0.69023,0.132925 -0.71826,0.175924 -0.8746,1.341575 -0.082,0.611532 -0.37535,1.240929 -0.73638,1.580106 -0.73357,0.689151 -0.74896,1.321 -0.0952,3.907684 0.70372,2.784266 2.05203,5.391869 3.71887,7.192256 1.73758,1.876799 2.82555,2.456441 5.74286,3.059641 2.52445,0.52197 3.39988,1.115468 3.86085,2.61747 0.31122,1.014019 0.12233,1.190002 -1.72194,1.604385 -1.4423,0.324062 -3.20279,-0.02303 -5.28591,-1.042142 -0.90342,-0.441979 -1.81305,-0.780939 -2.0214,-0.753243 -0.20834,0.0277 -0.964,-0.256756 -1.67924,-0.63212 -1.57001,-0.823953 -1.99608,-0.618875 -2.25139,1.083648 -0.092,0.613676 -0.30413,1.115772 -0.47134,1.115772 -0.34552,0 -1.0748,2.130614 -1.30558,3.814288 l -0.15447,1.127004 1.22638,0.66269 c 4.81521,2.60197 10.03544,3.52357 14.68468,2.5925 z m 27.42074,-0.17145 c 0.40081,-0.63787 -0.1057,-1.01683 -1.33637,-0.99985 -0.94649,0.0131 -1.03304,-0.0412 -1.06048,-0.66442 l -0.0299,-0.67865 -0.15953,0.73678 c -0.0877,0.40523 -0.29522,0.78191 -0.46106,0.83708 -0.40276,0.13397 -0.90416,-1.78251 -0.78721,-3.00887 0.0506,-0.530261 0.017,-0.964106 -0.0747,-0.964106 -0.50476,0 -0.64577,3.231626 -0.19717,4.518496 l 0.2809,0.80579 1.77608,-0.0736 c 1.35158,-0.056 1.84141,-0.17759 2.0494,-0.50862 z m 25.34909,-0.16983 c 1.1058,-0.43723 1.32582,-0.46197 1.32582,-0.1491 0,0.53303 0.47437,0.47748 4.16688,-0.48794 5.15929,-1.34892 5.47425,-1.54692 4.98508,-3.133792 -2.22427,-7.215482 -2.44765,-8.249869 -1.72145,-7.971199 0.52162,0.200165 0.82454,-0.538718 1.13451,-2.767343 0.40984,-2.946618 0.36711,-3.951808 -0.16813,-3.955375 -0.54972,-0.0037 -10.25581,1.553822 -10.38501,1.666427 -0.12968,0.113035 -1.0187,4.505252 -0.92987,4.594081 0.0394,0.03937 0.6552,0.140696 1.36852,0.225178 0.99396,0.11772 1.29693,0.254233 1.29693,0.584363 0,0.889408 -2.03573,2.024269 -3.63116,2.024269 -0.78731,0 -0.9244,-0.113347 -1.45079,-1.199556 -1.08569,-2.240321 -0.91543,-7.573703 0.33453,-10.479314 0.48774,-1.13379 1.70242,-2.463266 2.25056,-2.463266 0.13327,0 0.70546,0.738674 1.27153,1.641498 0.56606,0.902824 1.04922,1.641498 1.07366,1.641498 0.0244,0 1.00613,-0.404824 2.18151,-0.899609 1.17537,-0.494785 2.76207,-1.134118 3.526,-1.420741 0.76393,-0.286622 1.62468,-0.735153 1.91277,-0.996736 0.2881,-0.261583 0.60062,-0.398805 0.69448,-0.304937 0.31848,0.318479 0.1726,-0.439877 -0.24081,-1.251877 -1.2418,-2.43905 -3.13149,-4.582578 -4.76555,-5.405691 -0.69448,-0.349825 -1.62846,-0.9105 -2.07551,-1.245945 -0.57543,-0.431773 -0.99551,-0.564044 -1.43837,-0.452895 -0.37749,0.09474 -0.83675,0.0091 -1.15813,-0.216032 -0.67214,-0.470785 -1.58558,-0.279804 -4.0749,0.851975 -5.28742,2.403959 -6.95265,4.274089 -8.46612,9.507865 -0.51283,1.773451 -0.6662,2.972176 -0.77154,6.0305 -0.18822,5.464033 0.48645,8.508367 2.6458,11.938823 0.95183,1.512121 3.1924,3.815811 3.71127,3.815811 0.18392,0 0.82978,0.23254 1.43526,0.51675 1.37945,0.64752 3.98625,0.54359 5.96223,-0.23769 z m 47.79457,-8.10774 c 0.002,-4.964015 0.16338,-11.102946 0.37565,-14.268405 0.20491,-3.055711 0.37429,-6.479136 0.37639,-7.60761 l 0.004,-2.051771 -2.08344,-0.158709 c -1.14589,-0.08729 -2.56544,-0.227026 -3.15455,-0.310525 -0.83003,-0.117646 -1.10473,-0.06422 -1.22046,0.237364 -0.0821,0.214048 -0.28199,0.342478 -0.44411,0.2854 -0.16213,-0.05708 -1.09027,-0.02112 -2.06254,0.07991 -2.04178,0.212162 -1.90513,-0.23199 -1.2603,4.096371 0.56033,3.761115 0.39064,13.706653 -0.36193,21.213204 -0.28547,2.847367 -0.52022,5.363571 -0.52169,5.591551 -0.003,0.54332 1.7133,1.22584 3.09605,1.23084 0.5875,0.002 1.23864,0.1176 1.44698,0.25661 0.21117,0.14088 1.57991,0.22299 3.09292,0.18553 l 2.7141,-0.0672 0.003,-8.71257 z m 19.55511,8.452 c 0.32427,-0.24527 1.09791,-0.37078 2.28547,-0.37078 1.09843,0 1.91856,-0.12253 2.11292,-0.31567 0.20227,-0.201 1.06921,-0.31568 2.38649,-0.31568 l 2.06882,0 0.0745,-1.84522 c 0.0519,-1.285425 -0.0439,-2.082486 -0.31567,-2.627311 -0.45551,-0.913098 -0.47771,-1.04095 -0.14502,-0.835341 0.48096,0.29725 0.59221,-1.297283 0.31615,-4.531349 -0.16776,-1.96542 -0.39388,-3.321135 -0.56336,-3.377627 -0.15571,-0.0519 -0.38659,-0.366556 -0.51307,-0.69923 -0.12649,-0.332673 -0.34643,-0.60486 -0.48876,-0.60486 -0.33361,0 -0.33919,1.68827 -0.006,1.894036 0.14383,0.08889 0.25254,1.363522 0.25254,2.961182 0,3.074323 -0.24012,3.431932 -0.51222,0.762849 l -0.17368,-1.703726 -0.0358,1.544687 c -0.0249,1.071295 0.12978,1.943246 0.50461,2.845196 0.50248,1.20909 0.51135,1.332684 0.12627,1.758193 -0.2715,0.300011 -0.4142,0.90759 -0.4142,1.763621 0,1.4835 -0.30645,1.69735 -0.6953,0.4852 l -0.26329,-0.820753 -0.0258,0.820753 c -0.0305,0.97066 -0.45399,1.08868 -0.67969,0.1894 -0.0872,-0.34724 -0.23873,-0.63135 -0.33685,-0.63135 -0.0981,0 -0.37477,-0.411812 -0.61479,-0.915146 -0.24002,-0.503331 -0.49673,-0.854819 -0.57047,-0.781083 -0.0737,0.07374 0.0532,0.496117 0.28198,0.938619 0.22883,0.4425 0.3454,0.8752 0.25905,0.96155 -0.33857,0.33857 -1.08356,-0.45551 -2.63397,-2.8075 -0.88952,-1.349418 -1.6661,-2.404694 -1.72573,-2.345059 -0.0596,0.05963 0.12835,0.643702 0.41775,1.297935 0.58948,1.332616 0.62145,1.466539 0.3032,1.269845 -0.12264,-0.07579 0.0451,0.514119 0.37281,1.31092 0.73231,1.780679 0.75203,2.252799 0.10271,2.458879 -0.2778,0.0882 -0.50508,0.26629 -0.50508,0.39583 0,0.12953 -0.14205,0.23512 -0.31567,0.23464 -0.17362,-5.1e-4 -1.3628,-2.07446 -2.64261,-4.608825 -2.29963,-4.553861 -5.3984,-10.161443 -5.8831,-10.646147 -0.16496,-0.164961 -0.24999,0.02994 -0.24999,0.573036 0,0.452664 0.0948,0.764448 0.21062,0.692852 0.11585,-0.0716 0.47148,0.499166 0.79029,1.26836 l 0.57966,1.398535 -0.43096,3.451826 c -0.44984,3.60303 -1.29556,8.111953 -1.56787,8.358973 -0.0871,0.079 -0.0921,-0.28509 -0.0113,-0.80906 0.18373,-1.19024 -0.21034,-1.01693 -0.43719,0.19227 -0.1794,0.95627 -0.17776,0.95457 -0.71735,0.7475 -0.30832,-0.11831 -0.31524,-0.35488 -0.0462,-1.57836 0.42346,-1.925478 0.6323,-4.63329 0.34359,-4.454857 -0.12573,0.07771 -0.22714,0.674378 -0.22536,1.325937 0.005,1.78367 -0.76487,4.82906 -1.18029,4.66965 -0.186,-0.0714 -0.34587,-0.43013 -0.35527,-0.79723 -0.0169,-0.66221 -0.0192,-0.66299 -0.29113,-0.0992 -0.30803,0.6387 -0.5124,0.68741 -1.24319,0.2963 -0.28511,-0.15258 -0.44816,-0.42802 -0.37155,-0.62765 0.11205,-0.292 0.0488,-0.30098 -0.35292,-0.0501 -0.82246,0.51364 -1.16083,-0.0668 -0.77998,-1.338 0.50493,-1.685298 0.99418,-4.535115 0.75298,-4.386049 -0.12237,0.07563 -0.22249,0.396732 -0.22249,0.713557 0,0.793182 -0.96506,4.500832 -1.24416,4.779932 -0.67975,0.67975 -0.61981,-0.46351 0.25682,-4.898441 1.23991,-6.272799 1.48379,-8.370131 1.52496,-13.11425 l 0.034,-3.914341 0.309,2.272843 0.309,2.272844 0.0442,-1.767767 c 0.0685,-2.7385 0.60253,-1.386268 0.79782,2.020305 l 0.15926,2.777919 0.041,-2.501387 c 0.0407,-2.484346 0.0444,-2.498273 0.54605,-2.044299 1.04598,0.946606 0.46032,-0.251982 -2.20392,-4.510369 -2.22451,-3.555555 -2.45588,-4.069489 -1.437,-3.192044 0.51672,0.444992 0.6032,0.476393 0.29298,0.106384 -0.5514,-0.65767 -0.55789,-1.017313 -0.0221,-1.222927 0.25608,-0.09827 0.66159,0.0625 1.04657,0.414923 l 0.6285,0.57535 -0.44943,-0.702361 c -0.58,-0.9064 -0.25006,-1.251973 0.41082,-0.430287 0.48761,0.606265 0.49491,0.607546 0.2148,0.03773 -0.45363,-0.922817 -0.11318,-0.918177 0.5202,0.0071 0.75634,1.104894 1.22887,1.466635 1.91579,1.466635 0.77659,0 0.9566,-0.394524 0.48635,-1.065901 -0.48935,-0.698648 -0.49742,-0.954404 -0.0301,-0.954404 0.19983,0 0.78526,0.683576 1.30095,1.519059 0.51569,0.835483 0.99008,1.466597 1.0542,1.402477 0.0641,-0.06412 -0.28658,-0.775754 -0.77934,-1.581408 -0.78873,-1.289565 -0.84663,-1.492408 -0.48396,-1.695368 0.24708,-0.138274 0.44261,-0.138589 0.48855,-7.83e-4 0.40927,1.227556 2.75857,4.801216 3.90782,5.94439 0.78767,0.783511 1.68433,1.920627 1.99257,2.526922 0.70547,1.387603 3.24739,5.226964 3.60829,5.45001 0.1488,0.09196 0.0135,-0.268449 -0.30066,-0.80092 -0.31417,-0.532471 -0.57245,-1.26421 -0.57396,-1.626086 -0.004,-1.015063 0.53634,-10.46802 0.60204,-10.527579 0.032,-0.02898 0.88202,0.0075 1.88902,0.08104 1.68829,0.123312 1.8309,0.177801 1.8309,0.699573 0,0.311215 0.0763,0.947229 0.1695,1.413365 0.16801,0.840025 0.17434,0.833047 0.71598,-0.789182 0.41864,-1.253825 0.65961,-1.636701 1.03006,-1.636701 0.37775,0 0.51478,0.233852 0.6262,1.068597 0.20621,1.545016 0.48872,1.625579 0.48872,0.139368 0,-1.102695 0.0754,-1.295049 0.55718,-1.421032 0.30645,-0.08014 0.5911,-0.111787 0.63256,-0.07033 0.0415,0.04146 -0.0372,0.668845 -0.17473,1.394193 -0.13756,0.725348 -0.37673,3.726848 -0.53149,6.670001 -0.15475,2.943152 -0.38808,5.417435 -0.5185,5.498407 -0.29977,0.186108 0.0927,1.270735 0.61733,1.706158 0.33433,0.277462 0.40075,0.06964 0.528,-1.651877 0.0801,-1.083098 0.37764,-4.469397 0.66129,-7.525109 0.60575,-6.525504 0.61368,-6.917487 0.14369,-7.097841 -0.19664,-0.07546 -1.66492,-0.0084 -3.26285,0.148961 -2.15161,0.211916 -3.31046,0.212689 -4.46693,0.003 -0.85888,-0.155744 -1.60164,-0.243139 -1.65057,-0.194211 -0.0489,0.04893 -0.28494,2.272091 -0.52448,4.940362 -0.23953,2.668266 -0.51869,4.851396 -0.62035,4.851396 -0.10166,0 -0.48226,-0.767084 -0.84579,-1.704632 -0.75561,-1.948759 -1.04164,-2.380494 -1.8692,-2.821402 -0.73109,-0.389509 -1.44796,-1.987668 -1.67968,-3.74459 l -0.17486,-1.325825 -0.92657,0 c -0.71776,0 -0.98275,-0.127719 -1.17586,-0.566735 -0.37299,-0.847965 -1.04239,-0.827985 -2.05528,0.06134 -0.67519,0.592826 -1.06164,0.758477 -1.50809,0.646427 -0.36551,-0.09174 -0.60026,-0.03957 -0.60026,0.1334 0,0.156231 -0.33758,-0.07732 -0.75018,-0.519012 l -0.75018,-0.80307 -1.08072,0.66517 c -0.5944,0.365843 -1.5637,0.908315 -2.15401,1.205492 -0.59031,0.297176 -1.07329,0.675638 -1.07329,0.841025 0,0.165387 0.5398,1.023468 1.19956,1.906848 l 1.19956,1.606145 -0.0131,6.187184 c -0.014,6.619447 -0.33357,9.407493 -1.76074,15.361908 -0.3439,1.43481 -0.62528,2.74729 -0.62528,2.91663 0,0.45347 5.33481,1.87462 7.74913,2.06432 l 2.06702,0.1624 0.2718,-1.00939 c 0.14949,-0.55517 0.55245,-2.91277 0.89547,-5.23912 0.34301,-2.326349 0.6644,-4.270465 0.71419,-4.320258 0.11587,-0.115868 4.00173,7.983428 4.59247,9.572088 0.4906,1.31933 0.53681,1.34947 1.24646,0.81272 z m 25.07927,-0.34426 c 1.10581,-0.43723 1.32583,-0.46197 1.32583,-0.1491 0,0.20631 0.19887,0.37406 0.44194,0.37277 0.66265,-0.004 7.05208,-1.69733 7.81406,-2.07147 1.25726,-0.61731 1.26428,-0.91055 0.10536,-4.401967 -1.24258,-3.743469 -1.59433,-5.746863 -0.96672,-5.506028 0.24781,0.0951 0.5001,-0.04411 0.67616,-0.373086 0.34548,-0.645528 0.92962,-6.002982 0.68157,-6.251029 -0.15932,-0.159319 -10.50163,1.363899 -10.74379,1.582349 -0.14174,0.127857 -1.03208,4.487815 -0.93605,4.583836 0.0446,0.04458 0.66468,0.15018 1.37799,0.234662 0.99396,0.11772 1.29694,0.254233 1.29694,0.584363 0,0.889408 -2.03573,2.024269 -3.63116,2.024269 -0.78601,0 -0.92616,-0.115145 -1.46008,-1.199556 -1.08302,-2.199687 -0.90675,-7.572291 0.34382,-10.479314 0.48264,-1.121934 1.70104,-2.463266 2.23751,-2.463266 0.12608,0 0.69576,0.738674 1.26595,1.641498 0.57018,0.902824 1.05921,1.641498 1.08672,1.641498 0.0275,0 1.0117,-0.404824 2.18707,-0.899609 1.17538,-0.494785 2.76208,-1.134118 3.52601,-1.420741 0.76393,-0.286622 1.62467,-0.735153 1.91277,-0.996736 0.2881,-0.261583 0.60061,-0.398805 0.69448,-0.304937 0.44324,0.443237 0.0882,-0.677842 -0.5725,-1.807547 -1.3867,-2.371203 -2.97489,-4.123323 -4.37132,-4.822516 -0.72888,-0.364953 -1.691,-0.938005 -2.13805,-1.27345 -0.58555,-0.439366 -0.99248,-0.564806 -1.45537,-0.448627 -0.38464,0.09654 -0.8034,0.02779 -1.04324,-0.171267 -0.63152,-0.524115 -1.8032,-0.29436 -4.2599,0.835327 -5.28166,2.428708 -6.85615,4.209242 -8.37901,9.47548 -0.51284,1.773451 -0.6662,2.972176 -0.77155,6.0305 -0.19785,5.744018 0.64113,9.186566 3.06757,12.586914 1.09068,1.52845 2.83574,3.16772 3.37215,3.16772 0.13847,0 0.74714,0.23254 1.35262,0.51675 1.37945,0.64752 3.98625,0.54359 5.96222,-0.23769 z m 15.6631,0.45812 c 1.80926,-0.20175 2.97319,-0.1962 4.46043,0.0213 2.53646,0.37088 2.71386,0.21794 2.31084,-1.99235 -0.15078,-0.82692 -0.34732,-1.57632 -0.43676,-1.66533 -0.0894,-0.089 0.10943,-0.43388 0.44194,-0.766392 0.50684,-0.506844 0.60456,-0.855963 0.60456,-2.159944 l 0,-1.555382 -1.19956,0.218079 c -1.30337,0.236952 -6.39091,0.295205 -8.01808,0.09181 l -1.01016,-0.126269 0.0412,1.739311 c 0.0265,1.119269 0.15866,1.811898 0.37068,1.942935 0.26723,0.165152 0.25121,0.432932 -0.0848,1.417412 -0.22783,0.66759 -0.48502,1.63995 -0.57153,2.16081 -0.18364,1.10572 -0.38546,1.06171 3.0912,0.67404 l 0,1e-5 z m -138.91703,-3.19942 c -0.0635,-0.24307 -0.11549,-0.0442 -0.11549,0.44194 0,0.48613 0.052,0.68501 0.11549,0.44194 0.0635,-0.24307 0.0635,-0.64082 0,-0.88388 z m 87.18636,-1.431055 c 0.0245,-1.365971 -0.13588,-1.058024 -0.31789,0.610305 -0.099,0.90707 -0.0732,1.21372 0.0743,0.88388 0.12421,-0.27779 0.23382,-0.95018 0.24358,-1.494185 z m -84.41001,0.815485 c -0.0806,-0.20145 -0.14046,-0.14161 -0.15257,0.15258 -0.011,0.26622 0.0487,0.41537 0.13264,0.33146 0.0839,-0.0839 0.0929,-0.30174 0.0199,-0.48404 l 10e-6,0 z m 2.48348,-3.680139 c -0.2663,-1.419489 -0.44196,-0.732254 -0.22114,0.865178 0.14624,1.057913 0.22914,1.266287 0.29399,0.738992 0.0497,-0.403902 0.0169,-1.125777 -0.0728,-1.60417 z m 90.93786,-0.924557 c -1.16274,-2.488192 -2.91405,-5.55227 -3.07911,-5.387204 -0.0505,0.05054 0.7571,1.676603 1.79476,3.613477 1.03766,1.936874 1.95398,3.729026 2.03626,3.982562 0.0823,0.253535 0.20269,0.407904 0.26755,0.343043 0.0649,-0.06486 -0.3939,-1.213206 -1.01946,-2.551878 z m -92.16391,1.558458 c -0.0701,-0.17362 -0.12738,-0.03157 -0.12738,0.315673 0,0.34724 0.0573,0.489292 0.12738,0.315673 0.0701,-0.17362 0.0701,-0.457726 0,-0.631346 z m 85.86823,0.268322 c -0.0806,-0.201457 -0.14046,-0.141618 -0.15258,0.152576 -0.011,0.266216 0.0487,0.415372 0.13264,0.331456 0.0839,-0.08392 0.0929,-0.301732 0.0199,-0.484032 l 10e-6,0 z m 12.2025,-0.0797 c 0.17327,-0.208771 0.31503,-0.662991 0.31503,-1.009375 0,-0.905144 -0.50752,-1.38896 -1.45702,-1.38896 -0.76345,0 -0.91592,-0.150295 -1.98553,-1.95717 -0.63722,-1.076444 -1.16031,-1.854449 -1.16242,-1.728901 -0.006,0.327377 1.72848,3.381824 2.02329,3.564025 0.16044,0.09916 0.15828,0.318597 -0.006,0.625847 -0.37974,0.709552 -0.3087,1.208479 0.25186,1.769043 0.59758,0.597581 1.57859,0.658498 2.02095,0.125491 l 10e-6,0 z m -99.91983,-1.948781 c 0.19117,-0.119729 0.34712,0.09924 0.44905,0.630524 0.1377,0.717724 0.16009,0.672136 0.1894,-0.385598 0.0234,-0.845459 0.13787,-1.199556 0.38768,-1.199556 0.24615,0 0.38586,-0.405048 0.45729,-1.325825 0.0566,-0.729204 0.0703,-1.37043 0.0305,-1.424947 -0.19286,-0.264129 -0.87215,0.645572 -1.13354,1.518039 -0.27577,0.920424 -0.5682,1.224349 -0.7609,0.790791 -0.0463,-0.104172 -0.47131,-0.393206 -0.94448,-0.642299 -1.00631,-0.529761 -1.6317,-0.227998 -1.08386,0.522981 0.17453,0.239246 0.38205,0.626001 0.46115,0.859457 0.0791,0.233459 0.29437,0.366696 0.47838,0.296086 0.38494,-0.147715 0.86086,0.617206 0.9162,1.472555 0.0286,0.442328 0.0649,0.400427 0.14906,-0.171981 0.0612,-0.416236 0.24302,-0.839338 0.4041,-0.940227 z m 85.41802,-0.135149 c -0.15208,-0.152073 -0.6613,1.085952 -0.63052,1.532937 0.0113,0.164577 0.18751,-0.08333 0.39152,-0.550894 0.204,-0.467569 0.31155,-0.909488 0.239,-0.982043 z M 209.533,94.976359 c -0.07,-0.17362 -0.12737,-0.03157 -0.12737,0.315673 0,0.34724 0.0573,0.489292 0.12737,0.315672 0.0701,-0.17362 0.0701,-0.457725 0,-0.631345 z m 104.72152,-1.275952 c -0.0867,-0.534268 -0.29565,-0.933757 -0.48841,-0.933757 -0.44037,0 -0.89815,-0.868686 -0.7126,-1.352239 0.10826,-0.282115 0.0137,-0.344248 -0.37098,-0.243662 l -0.5163,0.135015 0.52933,1.046116 c 0.62324,1.231728 1.49038,2.502394 1.61956,2.373219 0.05,-0.05001 0.0228,-0.511125 -0.0606,-1.024692 z m 34.99991,0.464229 c 0.5365,-0.277434 0.92712,-0.308968 1.56415,-0.126269 0.46699,0.133931 1.54949,0.243512 2.40554,0.243512 l 1.55646,0 0.14908,-2.462247 c 0.34775,-5.743926 0.72073,-9.706108 1.15892,-12.311234 0.257,-1.527856 0.59924,-3.900869 0.76054,-5.273362 0.39442,-3.356009 0.38544,-3.364908 -3.04617,-3.017292 -1.41877,0.143719 -3.02592,0.168617 -3.60789,0.05589 -0.5772,-0.111799 -1.9099,-0.20822 -2.96157,-0.214269 l -1.91212,-0.011 0.43603,3.724938 c 0.49022,4.187929 1.1413,12.012967 1.38681,16.667517 0.16174,3.066295 0.16861,3.093592 0.77916,3.093592 0.33879,0 0.93776,-0.166402 1.33106,-0.369781 z M 306.59294,93.82507 c 0,-0.112349 -0.17231,-0.424864 -0.38292,-0.694479 -0.35506,-0.454566 -0.3613,-0.439713 -0.0857,0.20427 0.29734,0.694856 0.46865,0.874045 0.46865,0.490209 z m -6.566,-3.977512 c 0,-0.216541 -0.11364,-0.323477 -0.25253,-0.237634 -0.1389,0.08584 -0.25254,0.263012 -0.25254,0.393711 0,0.130699 0.11364,0.237634 0.25254,0.237634 0.13889,0 0.25253,-0.17717 0.25253,-0.393711 z m 13.9389,-3.387398 c 0.90654,-2.276323 0.89648,-3.982044 -0.0312,-5.284811 -0.31807,-0.446681 -0.63512,-0.755326 -0.70457,-0.685878 -0.0695,0.06945 0.12494,0.47906 0.43197,0.910249 0.89972,1.263545 0.90545,2.369312 0.0254,4.90449 -0.4296,1.237569 -0.76562,2.487633 -0.7467,2.777919 0.0286,0.43884 0.0541,0.422561 0.15119,-0.09659 0.0643,-0.34341 0.45749,-1.479832 0.87387,-2.525381 z m -99.99641,2.113179 c 0.24693,-0.541953 0.22355,-0.790464 -0.13277,-1.411318 -0.23785,-0.414447 -0.3576,-0.87468 -0.26609,-1.022739 0.10901,-0.176393 0.0441,-0.192969 -0.18832,-0.04808 -0.19508,0.121614 -0.58198,0.253742 -0.85977,0.293618 -0.54363,0.07803 -1.38896,0.947813 -1.38896,1.429126 0,0.733734 0.80114,1.417173 1.66123,1.417173 0.69762,0 0.93573,-0.133333 1.17468,-0.657777 z m 98.60145,-2.768476 c 0.17609,-0.685136 0.39383,-1.887752 0.48386,-2.672479 0.15427,-1.344579 0.12554,-1.451778 -0.49867,-1.860774 -0.54858,-0.359446 -0.73008,-0.3778 -1.05656,-0.106845 -1.36886,1.136058 -1.43685,3.502051 -0.15766,5.487162 0.52661,0.817216 0.8604,0.587158 1.22903,-0.847064 z m -8.40933,-0.93003 c -0.75637,-1.463983 -3.94177,-6.274795 -4.0699,-6.146662 -0.12025,0.120252 4.20092,6.967411 4.39706,6.967411 0.0533,0 -0.0939,-0.369337 -0.32716,-0.820749 z m 5.64469,-0.830218 c 0.035,-0.863135 0.34427,-2.08874 0.8119,-3.217726 0.74072,-1.7883 0.74321,-1.808915 0.12877,-1.065953 -0.7827,0.946405 -1.37605,2.871828 -1.37605,4.465254 0,1.684001 0.36587,1.531417 0.43538,-0.181575 z m -11.7996,-0.243069 c 0,-0.208344 -0.11364,-0.378807 -0.25254,-0.378807 -0.13889,0 -0.25254,0.170463 -0.25254,0.378807 0,0.208344 0.11365,0.378808 0.25254,0.378808 0.1389,0 0.25254,-0.170464 0.25254,-0.378808 z m 0.85594,-1.199556 c -0.77287,-1.325801 -2.69757,-4.230014 -2.80334,-4.230014 -0.072,0 0.0347,0.255695 0.23715,0.568211 0.20248,0.312516 0.85077,1.335296 1.44064,2.272843 0.58988,0.937548 1.12584,1.704633 1.19104,1.704633 0.0652,0 0.0357,-0.142053 -0.0655,-0.315673 z m 3.43721,-2.967323 c -0.84054,-1.250064 -1.60488,-2.272843 -1.69852,-2.272843 -0.0937,0 -0.0339,0.136371 0.13278,0.303046 0.37755,0.377547 0.39942,0.796475 0.0296,0.567946 -0.15037,-0.09293 -0.0906,0.184466 0.13275,0.616441 0.41774,0.807812 0.74331,1.081038 0.48451,0.406603 -0.28392,-0.739875 0.10218,-0.358634 1.15091,1.136422 1.65132,2.354127 1.47649,1.7834 -0.23208,-0.757615 z m -87.1199,0.06314 c 0.66804,-1.017404 0.68716,-1.084513 0.12592,-0.441942 -0.71495,0.818554 -1.23463,1.641498 -1.03658,1.641498 0.0677,0 0.47746,-0.5398 0.91066,-1.199556 z m 94.94047,-0.594021 c 0.43605,-0.708675 0.75831,-1.457382 0.71614,-1.663794 -0.0422,-0.206411 -0.44496,0.373414 -0.89508,1.288501 -0.45011,0.915086 -0.77238,1.663794 -0.71614,1.663794 0.0562,0 0.45902,-0.579826 0.89508,-1.288501 z m 2.706,0.230997 c -0.0806,-0.201458 -0.14045,-0.141617 -0.15257,0.152575 -0.011,0.266217 0.0487,0.415373 0.13264,0.331457 0.0839,-0.08392 0.0929,-0.301731 0.0199,-0.484032 l 1e-5,0 z m 2.32698,-0.253574 c -0.16292,-0.304404 -0.38443,-0.844204 -0.49226,-1.199556 -0.13038,-0.429664 -0.20332,-0.49385 -0.21776,-0.19161 -0.0222,0.464962 0.64552,1.944629 0.87755,1.944629 0.0708,0 -0.005,-0.249058 -0.16753,-0.553463 z M 299.63382,78.31579 c 0.58421,-0.834085 0.48668,-1.638634 -0.25779,-2.126429 -0.85431,-0.559762 -1.89941,-0.217479 -2.2331,0.731362 -0.20075,0.570824 -0.14098,0.793177 0.35519,1.321326 0.73746,0.784988 1.61627,0.815331 2.1357,0.07374 z m -83.16479,-0.38575 c 0.31413,-0.40054 0.3052,-0.409472 -0.0953,-0.09535 -0.42067,0.329908 -0.55445,0.537288 -0.3466,0.537288 0.0524,0 0.25132,-0.198873 0.44194,-0.441941 z m 96.60987,-0.363024 c -0.0806,-0.201458 -0.14046,-0.141617 -0.15257,0.152575 -0.011,0.266217 0.0487,0.415373 0.13264,0.331457 0.0839,-0.08392 0.0929,-0.301731 0.0199,-0.484032 l 1e-5,0 z M 205.21023,76.895079 c -0.39885,-0.390488 -0.40537,-0.37094 -0.10199,0.305984 0.17824,0.397718 0.36997,0.585431 0.42607,0.417139 0.0561,-0.168291 -0.0897,-0.493696 -0.32408,-0.723123 z m 14.03697,-0.354004 c 0.27454,-0.515234 0.2636,-0.535896 -0.11738,-0.221616 -0.23109,0.190627 -0.42016,0.446322 -0.42016,0.568211 0,0.385748 0.22442,0.241051 0.53754,-0.346595 z m 75.47644,-0.284751 c 0,-0.05244 -0.19887,-0.251315 -0.44194,-0.441941 -0.40054,-0.314125 -0.40947,-0.305193 -0.0953,0.09535 0.32991,0.420665 0.53729,0.554442 0.53729,0.346594 z m 1.12429,-0.685735 c -0.22215,-0.429596 -0.46144,-0.723562 -0.53174,-0.653257 -0.12651,0.126513 0.63205,1.434339 0.83194,1.434339 0.057,0 -0.078,-0.351487 -0.3002,-0.781082 z m 19.00484,-0.541799 c -0.0604,-0.314135 -0.11213,-0.116586 -0.11493,0.438998 -0.003,0.555584 0.0466,0.812604 0.10983,0.571155 0.0632,-0.241448 0.0655,-0.696017 0.005,-1.010153 l 0,0 z"
         id="path5730"
         inkscape:connector-curvature="0"
         transform="translate(-315.47795,-189.05444)" />
    </g>
  </g>
</svg>
